<mxfile host="app.diagrams.net" agent="Mozilla/5.0 (Windows NT 10.0; Win64; x64) AppleWebKit/537.36 (KHTML, like Gecko) Chrome/133.0.0.0 Safari/537.36 Edg/133.0.0.0" version="26.1.0" pages="2">
  <diagram name="复变函数论" id="JanyoTGOJACyCgFFGg6d">
    <mxGraphModel dx="1096" dy="516" grid="0" gridSize="10" guides="1" tooltips="1" connect="1" arrows="1" fold="1" page="0" pageScale="1" pageWidth="827" pageHeight="1169" math="0" shadow="0">
      <root>
        <mxCell id="0" />
        <mxCell id="1" parent="0" />
      </root>
    </mxGraphModel>
  </diagram>
  <diagram id="HzpxLz9Qpzx1VMe7QRKl" name="数学物理方程">
    <mxGraphModel dx="7880" dy="3780" grid="0" gridSize="10" guides="1" tooltips="1" connect="1" arrows="1" fold="1" page="0" pageScale="1" pageWidth="827" pageHeight="1169" math="0" shadow="0" adaptiveColors="simple">
      <root>
        <mxCell id="0" />
        <mxCell id="1" parent="0" />
        <mxCell id="yBlYgujM2W9td2w1A4_b-1" value="" style="shape=image;verticalLabelPosition=bottom;labelBackgroundColor=default;verticalAlign=top;aspect=fixed;imageAspect=0;image=data:image/png,iVBORw0KGgoAAAANSUhEUgAAAdEAAABkCAYAAADZswrpAAAAAXNSR0IArs4c6QAAAARnQU1BAACxjwv8YQUAAAAJcEhZcwAADsMAAA7DAcdvqGQAAB+FSURBVHhe7d1PiNtm/j/wd38wCTjQKgerkOxQhdIexoFqWDYwzSHKYdNle6jn4Dm0LFVY2EOmUE2hZdkcKl9KaSHVQD2HllINy17sQzXXvVQ+bFO2LNVA7EOXEpnWC7UPKxemEOeg72H1eX6y/GdsjT32zHxeYJLI8mT86NHzkZ7n8zx6IgzDEIwxxhib2P9LbmCMMcbYeDiIMsYYYylxEGWMMcZS4iDKGGOMpcRBlDHGGEuJgyhjjDGWEgdRxhhjLCUOoowxxlhKHEQZY4yxlDiIMsYYYylxEGWMMcZS4iDKGGOMpcRBlDHGGEuJgyhjjDGWEgdRxhhjLCUOoowxxlhKHEQZY4yxlDiIMsYYYylxEGWMMcZS4iDKGGOMpcRBlDHGGEuJgyhjjDGWEgdRxhhjLKVjCaLb29uoVqvJzWPb3d1FsVhEp9NJvsUmUCwWsbW1daRjwXp1Oh3cvHmT6+Yhtra20Gg0kpvZGdJoNHDlyhVsb29jf38/+fahVldXsbOzs3jnWngMFEUJJUkKc7lcaFlWGARBcpeRNE0LFUUJFUUJTdNMvs3G5Pt+qKpqCCCUJInLcgpM0wwlSQolSQpt206+zSK2bYeSJIWapoWe5yXfZmcEteMAQk3Tet5zXTf0fb9nW5yiKKEsy6GiKKFlWcm352bmd6J7e3sAAFVVUavV4DgOPM9L7jZUp9OB67pQFAUAoGlachc2pmeeeQa2bUOWZUiSBMuysLW1ldyNjanT6cCyLKiqCkmSYJom3njjjeRuqdTrdWxvbyc3n1ivv/46LMuC53lQVRXFYjG5C5vAG2+8kepubtZ2d3eTm3pQO57P5/Hll1/2vGcYBvL5/NCesiAIsLKygiAI4Hnewnz/J8IwDJMbp2l9fR2+7yMIArz88sv4+OOPk7sAUXfPRx99lNyM3d1dmKaJIAjgOA5u3LiR3KXH1tYWFEXBm2++mXyLRarVKnRdhyRJkCSprzIPs76+jnw+j9dffz351pm0tbUF13URBAFUVcUXX3yR3CWVTqeD69evo1arwbbtU1Xeq6urUBQFjuPAsqxTc55Wq1W4rpvcPBOe5+Grr75Ct9sdq008TsViEbZtw7IsvPLKK8m3sb6+Dtd1YRgG3n33XbG90WhA0zQEQYAgCJDP53vOp2q1CsMw4Hnewp0TMw2i7XYbV69excrKCtrtNh48eJDcBQDw0Ucf4a233oJpmj0FCwBXr14FAKysrKBcLve8l/Tjjz9ieXkZAOC67kJVrkVz8+ZNAEA2mz20XBEdo/fffx+tVgvlchmFQiG5y5lCdTubzSKbzY59ITKOjY0NfP3113j22Wfhuu6pqsvFYhGVSgU///wz/vjHP/ad74fZ2NgYq74et2q1KnrJ1tbW8PPPP4t2L5vNot1u49GjRzh//jzq9Tpu3LiBdrsNROcgof2Tfyf1eh0A8OSTT4qf9eWXX2JlZaVnv3kqFoswTROapvWdFxsbG6hWq7hz507Psd/Y2EClUoEsy/jzn/+Ml156qec7FYtF7OzsoNVqodVq9ZXLtPz444/41a9+ldw80kyD6Pb2NmzbRhAEsCwLzz33nKg4xPd96LoORVHg+37P1Wm1WkU+n4ckSeLOKQiCns/HVSoVNJtNsZ9t2wOvhk6T7e3tkWUyTPwOirpYhvF9H7ZtQ5IkIOpWGXTBc5bcvn1b3HlIkgRVVeH7fs8+iqKIK+tJuK6LXC6Hg4MD8dnTUpf39vag6zrOnTuHTz75ZKLvFG+cHcfBU089ldxlrhqNBp555pnk5qnZ29uDZVkIggCPHz9Gs9lEEARQFAUPHz5M7j43nU5HtCmqqvYE0vX1dXieB13XRfvRaDSgKApUVYXrugOP69bWFhzHwYULF4bejM3LzIJop9OBqqri31SonueJxhtRAxQXBAF0Xcebb76Jq1evolariSCLqDHxfR+mafZ8bpAgCGAYxkwr9rxVq1VRFpIkQVEUcRFhWRZM0+w5DgDQ7XYhyzIQlRH9qSgK8vk8NE2Druti/+QxQrS/pmkDK/xpV6lUsLGxAQBwHGdg+czCPO9GO50OPM8TF7tp0fntOE7yrZFc14Vpmsjn8/A8T4zpz7NMjkun0xFlRhdsd+7cWejeIAp6vu/39Fytrq7C9/2e7tybN2/C9314nje0PVldXUUQ3Rgt2jGfWRClvvEgCOD7vigcuhI97MqarjpVVcW3334rtu/v70NVVeTzedi2PbTQ2f+6wpvNJkzTHGvsicZKg2hM4vPPP0/ucuZR/UN0QbdIYzOz1Gg0cO3aNbRaLZFIdZh2u41arQYckhDoum7PBeAkSqXSQnVlTlOn08Hf/vY3fPjhh/B9H5qmwbIsvPDCC8ldFw6NcSaDKAVMuhOleOC67tDv1el0RP0Y94571r0CPXqTdacjCIJQkqQQQOi6bvJtMc3CcZzkW2EYfZ7SmQelPG9uboYAQlVVk2+xmFarJY6DruvJt/vkcrlQVVUxJWnQsTvLqF4CENODBtXPNHzfD3Vdn3j61yJrtVriXB8FQKgoCte3GMdxRF3Tdf1ETguitqTVaoltmqaJ6XVUP+LfzbKssFAoiH+HUVkAGHtai+/7xzrlbHTtTknX9ZFf2rIs0VAPajQMw+gr/LhWqxXSXMdh/wf7H9M0RVmPqlS2bYsyNQxj4HE56/L5fE8A9TwvBBDm8/nQtu3Qdd3UL2pwFEU5kQ3mIOVyWQSCUWie7VkMorZt97Rhvu+LefGWZQ1tA08qXdd75qjH63r85kvTNNEGUTwZ94JVVVVx8XYcc+FH1+4U7t+/LwphGNd1w1wuF8qy3Hfi1Gq1EEPuYOM0TQtlWT6WQjrJarVaKMtymMvlws3NzeTbgqZpIYC+q8BRcrlc+MMPPyQ3n0qu64YA+spQluVQluUQwJFfdJwAhOVyuef/WWT3798f+Pvev39ffJ9RqAwPO+dPI6pXy8vLYaFQCDGgjp0EhUIhXFtbCzVNC3O5nPgzl8uFa2tr4u90rGVZFvtT20Ov5eXlEFEMabVaPZ9LnjPjvEbFommY6phop9PB888/j0wmM3KQmPq4ESUaUV94p9NBPp+HruuHjjUVi0VYliUyJIf1pzPgypUrANCTERdH2XGFQgGffvrp0OMWt729DcMwIMsyyuXywg32T1Oj0YCqqtA0rW8u6BNPPAFFUYbOixtXsViE67rwPA+WZR1a/xcJ5S8YhgHTNEX9qVQqeOedd+D7PkY1M1SGlDTS6XRg2zZ0XR+rLp5klIfwyy+/4MUXXzyxeR77+/v49NNPkc1me7L44zMlaLvv++J8GkWSJOTzeZGDMCwZzfM8fPrppzg4OICqqjAMI7nLTNunqQbR9fV1fPXVV/juu+8OrQjb29vI5/N9g7+7u7tjNSC0fiINuCuKgr///e8zmz+0CNrttpgnNglaKcY0zYHTWeh927aTbw1EiUeapqHdbqPZbB6aKHZSUZa5OmQxhWQASKtYLIrsy+TcukVGF8SapomVxSj5o1Kp4E9/+hOCIBgZRC9evAhEjSSVIZWHrusLH0ypLUr+juO0ZRREL1y4gEKhMPAiF1GQOok3CpSQlslkRKIRza44rGwQxQnLskZeiO3t7eHu3bs4ODgYeqMwS1MLolTpKZA1Go2eaRKzQun2kiThP//5Dz744IOxDs5JVK/X8dprr4mpBlK04hChK795oCk1Rwkki2h1dRWqqg7NVH7iiScgSdKRV46hbHZFUU5UEKXFEw4ODqBpWk85pb0TJfv7+8jn80DUi6Lret9F9yKg+ezUi0bfgeYSJ79X3LhB9MqVK6KeURns7+/DMIyxeu7m5fbt2+Iu1Pd95PN5BNGyfZqmiTJLXoCQ1dVVILrbHLboCC3EcOnSJZimeewX81MLouvr631dEXt7e2JOl6IoPfMTMaTRp3lkiNZSpHR63/ehRJPX490F1AXmeR4uX76MUqk0sKAZmwRdQb/66qsDl6MkFy9ehBStmzvoLn9ctm2LO7mTEkRpUv25c+fw4osv9t2pVyoVvPfee/A8b2gQ3d/fF916gy5EOp0ONE0T7UhyubhFQIEQ0UV9LpfDP/7xDzz11FNYX1+H4zjI5/P45JNP+nrK4t25yVV8CC2ditjCJ6+88ooI3mTUNJF5iE8H830fzzzzTM8Ul2w2i7t374o23zTNnoskGmaybRu2bcM0zb76gdiFXLPZHFiHZi4xRroQEKW8D0pWSIpn+p51w6YMHYVhGKcmW3QSQRCEtVotubkP1VVFUUSSRJqXoiihqqozT4KYJtM0QwBhLpcbmM09Tnau67qi/IYlFgVBIMpIkqRQVdWxMzWPg+/74vglp5LRtChJkkJZlvsy5On753K5viRJ+t70nRFlgtP0kHHKbl4o0zaZda2qak92bvLJUvHyMQxDzODQNK2vfIiu62Eul5tbDBheu+eIMrHGCaLlcllkbZ11WpQRVyqVwlarJTJnW61Wz2vQtlqtFv7www9hrVYT26iRlGU5vH//fuJ/Y61WS9TVcQLuKKZpiqzGkyD+3YdlaJfL5UOzc13XHTs7ly44KFtzUYyabRDGymF5eTmUZbln2gp9/+Xl5b4goUVZq3KUtR3/XBj7bC6XG/j/zhP97snfiy664t+1lcjAJbIsi0zlUUFU0zSRATwPM38UWprH1bRarb6u32FkWUYmk0luPrMODg6wubmJ559/Hr/73e9w5coV3Lp1q+d19epV8fdr167h2rVr2NzcxB/+8Adsbm7i2rVruHXrFhzHgaqq6Ha7WFtbQ5EfX9WjXq+j2+0ik8n0rQmdxtLSUnLTwqLFwD/44IORC3YfHBwkN/XJZDJjncOUYJLNZpHJZMRjFhdBs9kc+h0KhQIODg7w7LPPotvtYmdnp+f9TCaDR48e9Wyj8VRZlnHnzh08ePCgrysY0RKe45TxcaKnGw3LkUj+vtlsFm+//Ta63S5arRYQxY1ut4u3334biHJeaCZGUhAE+P777weWz3GYeRA1DANbW1sig20cyYSZ067RaCQ3pUap4//973/x4MEDPHz4EN9++23P68GDB+LvDx8+xMOHD/Hll1+KF32GFrtWFAW5XE6Mb7DZCCZcqH5eGo2GmNJyWELLNM/jF154QWSSS5IEb4LnEs8SJfmNOn6maaLdbo8MBlRWNI5qmiYePHgwcJyUTLN8p2F3dxeWZcG27aFLjQ4qp9dff10kGSEqr3gimaqqA493p9MRF1bzap+mllg0DKWvIyqIwyjRswYlScKFCxfGurqgtOkZf5WZoOSAaSQF0OPNAEwlOSW+lu4nn3yy0Atez0M8oYSmWaXluq5InpvGsZsleiZoMpEoaZzsXHpeMJ3D42TfUsantSDPI42fJ8MSW2gqUDI5is7/c+fO4S9/+YvI0LYs69CyoPnLkiSNzAA+LjRf2HGcoRmy6+vrkKKHBwzLyK3X67h+/Tr82Jrr1ehRc7VarWet5Hj5TfpUoGmZ+Z0oouCpKApM0zz0pcceeVYoFPreT74oZfok6nQ6MAwDiqJA07SpdE/NoiwW7Wp3kQwqb8dxRDbhsAnigwz6WYuGuvTtMeYUt9tt+NE87mGkaEJ9fOpGp9MZOQz0+eefi7ZiUcRnDQzy1FNPwYweqBH/vamnB1F3tWma+OKLLw4NoFig+tLpdHD79m1UKhV4njc0kN2+fRuWZeHzzz8fGkARPVs0GWSpjCqVSmzP///wAnowwjzM9E6U5nnRiTKqWyKO5o198MEHh979bG9vi/73cSoe2d7eBqJxqAsXLgCxYOH7fs/2eGWlv8dPmCAIkM1m8fjxY3EBoESPjLp06RLOnTsn9o1/lrqmVFVFEE3XMY/wnE66Ew2iOZtH5bouHMdBEARjHYuzZtAdCG2jY+wOeT5iEtXHUXPm5m1nZwd3797tuUMYpd1u49y5c2PtG7e+vg43ehj5UXtnjsOgenAYuoCmIEDPB6U71XHqAbWvk/y/s3D79m0oijKy3aLpLlJ0N24NWeGL1hcY1Btz8eJFXL58ued5ovR80rk+ZzSZaTRNabPHKCNtnOzctCjzdBFf9+7dS/66Y6HMxeTPS/Oi40YZc7M8FidVqVQKEa03TJmTy8vL4hhMUucXneu64fLy8sDvVC6Xw1KpJP6kv9+7dy8slUrh5uZmaJpmWCqVQtM0w0KhIF6bm5s9f66trfXUvWRG6iKaJMM4jK1nrWma+Oza2lpYLpd7MuIPO+fo54z7/85ToVAYel60Wq2ec2gYWls4nglPdSVtmzkNM+3OdV0XKysrqNVqE91qS5KEbreb3DyWarU6VreoYRhirGbRXltbW8lfd2zPPfccVFXt+5mTvn766SeUSiVkMpnUx+K0e+211+BHz0vMZrMoFot49OgRms3m0MzEQarVKnZ3d5ObF8b+/j50Xcdf//rXod/p7t272NnZQaVSEWOhn332GSqVCmq1GlzXRaVSgeu6aLfbaLfbuHz5Mmq1Gi5cuIBms4nHjx/j/PnzWFlZwdLSElqtFm7dupX8rxbSOBnG9Xodt2/fRi6Xw6uvviq6+rvdLr7//nvU63W8++67sCwLrVYLGxsbuHnzJqrVavJHAdGd/kk5P7/55hssLS3BMAzRY0OvjY0NVCoV3Lp1a2QC6vXr14FYl26j0UAmk0GtVsNLL72U2PsYJaPqNNEE9Hw+n3xrJEmSxl5sIYkeV2UYRvKtU48mpE9rrqEbm8yd5licJa7rhpIkhZqmibrn+754tVqtnn8HQRC6rhuWSiXx+KdFfQSd67oTL7jhOM7QeX3D6LoeapomJuTbtr2Q5ZFEz69MLixAPM8T7VJyHzrH5MRCDI7jiHqBaJGF5DGgOrcIiy0YhiGOHS2egGghEkTPfo5/H7rb1qLFJOhPSZKGzrmmRw8qihKG0UI79P3naSZjorSmo+/7PWOE4wiCAH60xNXly5fHys4ltBg6pUOrqjqwb/20Wl1dFWNx0/jenJ07Hlr+DlGdbTabwIjEDxoXkqL1nldWViBF66IqigJvxBOQTpKnn34a//znP8fKVdjb24Ou6+Lc9TxvrM8tgvjxp7HJTqcDx3FE3gOiDG7LsnrGeekcG7Ts3/7+Pm7duoVLly4hCAIE0dNQaCyRMlNHjTEel/39fXz33Xd4/vnnoSiKqL+0fGa324Wu631LaNIDHhCdL6Zpjsy4fvrpp9FqteBFD9Two/V4R43HztpMgmij0YBhGPA8D3601uOoIFqr1VCpVETQRVSguq6PzOwbhDLfqFE6KSfiNFy8eBFKNGdtmkGUuiw5iA62uroKz/NgGAYeP36MpaWlvsZikN3dXXz44YdYWlqCFz0CbZyEkpOiWCzC9/2hi/eTRqMhznPf90dOkVhUV65cge/7cF0XpVIJlUpFXChRWzaoTsSnaCSDKKIbg3iXtu/74gIjfpFrLejj89bX1/Hvf/8bzWZzYELa9vY2TNMEhqydnLSzs4PNzU3oui4utrzY4zTnInlrOk2u6/atFZnkOI64RVcUJfQ8T9zWT9qFSF1jkiQt1Nqax0WJ1u+k7hP6k7pUlGgNz3iXCn1GVdVQlmVxHGgb/ZxJj8VZEARBqOt6iKi7LYySJCRJ6ut6S6J6PizZ4rSgc3qYIAhEHU1zzi+C5Dqx1M0a75Yehrpzk0vhxVF3MZURDRfEh1uGfXaeqBwAhJZlJd8Ow6h+KIoy0ZCfEg1ZUTs1bzMNooeh7DJ6krnruj0ZZ5OeUJQBJi/QuprHKRc9Pf6wMdF4ptworuuKYDvP7LdFRZmUyfLe3Nzs25ZEmdSD1kw9TUqlUpgbsO4rMU1TnO8ntRwGZcm6UdbtYW2YG627u7a2NvL708+Ln9/02VEBeJ40TQvlKPN4kHv37oVytO75sHHQQTY3N0U7f1j5HoeZZueOsr+/j5dffhmtVguPHj2CGz0r7igZZzQmGl/R4ixpNpviwbSHGXedVhrbjmcMj8qgOytopR1VVfsWHnj77bfheZ6Y+5lULBYRBAGazSaeffZZGIaR3OXUuHPnDg4ODvDOO+8k38Le3h4sy0K328WLL77Y15V5Ugxqs27cuIGffvpprCGQZrOJn3/+Obm5x40bN7CysoKDg4OeobGDg4O+tWgXQbVaheu6yGQyOH/+fF+GcafTwfvvv49utwtN0yZqs5eWlnBwcIBMJtM3B38uklH1OFBXFl3FJ59qQLf4k1xlBEEguifPYmZuGHX7jKNQKIhu2knRY4lGdVGddnQHms/nh2aP0jBFspwoo1CSpIm6sE4yyqqMPyasXC6HUpSVqWna0HI8Cai7dVS3vOd5YaFQCE3TDN1YtrNt26EUPSbtsLtJ6vqmz8a7jQ/77DwEQRBalhVq0RNdqG2mbGXqDRu33QoT35m6c+dddyZvRY+IKg2AgQeegqg04fgIdT0qijK0/539T6FQEBV7Esnxq+SzE087uoBIBoRhaLzUjJ7/SHV/UU7+42RZlrjwoIsQKodJGtFFROeFNGSKS5xt26IOURnQvydttxY9iMa5riu+J50DsiyPdR4Rz/NE928+nxcXo6qqDh0uOA6TtaJH4Pu+WHFCUZShJw5VjGFB1Lbt0HXdvgbIMIwwFz2YdVQiw0lHV71aNLBOlTFeOSnIxU/U5N/ppI+/N+4r/rNlWR56LE8TP3p4sDLBnDwKulJ0p3FWAygxTVOUoRbNHz8N5ZBMLBqHbduiHKQowWzSsqC2UlnQxKJBHMcJ1ShhMX5Belgbkuy9DGMP7abza17t/rEE0Um6LA67E3VdN9zc3BQFSoUoxSbsnna2bYeWZaWuNNSdO42ymucV4HGhOqnreqqGjhpLuvBxHCe526kWBEFommYoRXcNqqqGuVxOlOlJL4/DFlsYhs7Bw9rEYeJtZdqfcZziN0jx84G2JYc+CH2OAmj8HMzn86ES3UhIkjSXujTTIOp5nqgolmWN1eBSxcAh0yriXSh0QHK53JkdD51EoVAQZcyGa7Va4u5p0pOTxn0Q3f3H70Rpm2EYEzW6JxGNAVPPha7roWVZPRfCdDGcz+fDUql04srE8zwRDCb53Q+7+zqM7/uhEvVsLHoQtW1bHOt4G63reihFF1cA+m4M4sN/g7q7KQ7IsiziwXH3cMxksQXEni1XKBRQLpeTbw9FaykCwMcffzwyu63dbuPq1atYWVlBvV7H+fPn8a9//WuiVY7Ooo2NDdTrddRqNczo8J949XoduVxu4vr79ddf4969ez2PbCoUCnjrrbfw5JNPYmNjA+12G9lsFu12G61WS+xTKBSQy+UmylRcVMViEZ999hl++OEHIPp+pmn2fLd6vY5KpYKdnR2xjcoD0Qo/uVxOTMAf1RbMy87ODorFomiDVlZWRrY/dOyHideNUfsh2rderwNRFvQiZje3221sbm6K86FUKuHOnTs9+9DaubIs97T5tLACgJGLvbTbbfz617/Go0ePxHHAGPFjWqYaRDudDqzoqeaqqsI0zYlXkph0qblisQjLsnoedMtG29jYwDfffCMW4GeDjdOQIar3tm3Dtm2xxBui1bMMw+g5B2g5OFql5cKFC1haWhJLBNKSl7lcDtlsFpIkiVWoiKZph67sMg/x89/3fciyjN///vfQdX3k70vl57ouvvrqK2QyGbHSD/nll19EgI2XSbvdRqlUGvnzZ6nRaCCfz4vjZpomLl26BFmWxT5B7Fmj8b9PA01n03V94dq/arUqVq5TFAWO4wyNB/Sgdd/3kclk8N5778GyLDGFbNjnSLvdxsbGhlju1fM8BEGAXC6H3/zmNzBNc3ar1yVvTdPwPC/UdT1UVTUslUpH6qZwHEd0jZRKpeTbffxoMW82vqNMcWH/4/t+T/o+dUlq0fSfceqk67phoVAQ3bxKtHILDU3Q+CF1/1qWNVF34XHwfT80TVOUgxStqHOU39NxnFDXdVEmSrSiD5UN/R9HaWemKYhWrpok03Qa4glNw8YT58H3fTGUkc/nRw7LxTmOI7K4034nwzBCGjZwXXesIcSjmkor6nleX192WjSIrEw4T5SNj4Po5DzPCy3LCvP5vMiGRpToQHP/jsJxHJEkQWOo8YCxKHzfD23bFkFOkiQx/3FabUAclTuN40sLPLVqnAunaaKM8UFjhfNQLpfFtC5d18euD5R4RheR5XL5SGV51HNxUlPtzp2G7e1tWJY1dncum9zTTz+NbrcLRVHw7bffJt9mUVdUqVRCu90WXUSKokBRFGSzWVy/fv3QLqa0aLUXWlz74cOHyV2OVbVahWmaYsxP0zQoigJVVWdWBqN0Op2+hczZ/BSLRdi2jZdffhm//e1voWna2Mdna2sLrutC0zQYhjG7LtcZWrgguru7C8/zoGnaiXuSw0mxsbGB1157jct3hE6ng263O9aYKGNn2VEuao7y2UWxcEGUMcYYOynmtgA9Y4wxdtJxEGWMMcZS4iDKGGOMpcRBlDHGGEuJgyhjjDGWEgdRxhhjLCUOoowxxlhKHEQZY4yxlDiIMsYYYylxEGWMMcZS4iDKGGOMpcRBlDHGGEuJgyhjjDGWEgdRxhhjLCUOoowxxlhKHEQZY4yxlDiIMsYYYylxEGWMMcZS4iDKGGOMpcRBlDHGGEuJgyhjjDGWEgdRxhhjLCUOoowxxlhKHEQZY4yxlDiIMsYYYylxEGWMMcZS4iDKGGOMpcRBlDHGGEuJgyhjjDGWEgdRxhhjLCUOoowxxlhKHEQZY4yxlDiIMsYYYylxEGWMMcZS+j+WDXnOtEoywwAAAABJRU5ErkJggg==;rounded=1;" vertex="1" parent="1">
          <mxGeometry x="341.99668701171873" y="547.998916015625" width="465" height="100" as="geometry" />
        </mxCell>
        <mxCell id="yBlYgujM2W9td2w1A4_b-3" style="edgeStyle=orthogonalEdgeStyle;rounded=1;orthogonalLoop=1;jettySize=auto;html=1;entryX=0;entryY=0.5;entryDx=0;entryDy=0;strokeColor=#DDA15E;fontColor=#FEFAE0;fillColor=#BC6C25;curved=0;strokeWidth=6;" edge="1" parent="1" source="yBlYgujM2W9td2w1A4_b-2" target="yBlYgujM2W9td2w1A4_b-1">
          <mxGeometry relative="1" as="geometry" />
        </mxCell>
        <mxCell id="yBlYgujM2W9td2w1A4_b-2" value="" style="shape=image;verticalLabelPosition=bottom;labelBackgroundColor=default;verticalAlign=top;aspect=fixed;imageAspect=0;image=data:image/png,iVBORw0KGgoAAAANSUhEUgAAAXQAAABFCAYAAABaMh3vAAAAAXNSR0IArs4c6QAAAARnQU1BAACxjwv8YQUAAAAJcEhZcwAADsMAAA7DAcdvqGQAABmRSURBVHhe7Z0/jNvIFf+/+wN8B6wBH6+QinUM82DkipWB0AkuiJPiqCIu1oW5hbbIFqHbyMDxEjiNi5ttcgECJFzgdpsNEC4CN9oi3GIPyaU4qrAN2AhCAZGKGIejYPgKqggVwAFur5hf8eMbUBQlURK1vtVvPgBhazjLP/Pn8c2bN29WOOccEolEIjn3/J90gkQikUjOJ1KgSyQSyZIgBbpEIpEsCVKgSyQSyZIgBbpEIpEsCVKgSyQSyZIgBbpEIpEsCVKgSyQSyZIgBbpEIpEsCVKgSyQSyZIgBbpEIpEsCVKgSyQSyZIgBbpEIpEsCVKgSyQSyZIgBbpEIpEsCVKgSyQSyZIgBbpEIpEsCVKgSwZoNpvo9/vp5DOl2+3i6OgonTySZrOZTiqEbreLVquVTn4t7O7uotvtppPPlN3d3dzl0e/3cXh4mE5eCrrdLm7cuJG7nzSbTVSr1dz554JLJAk0TeOKonDHcXgYhunTZ4Lv+xwAV1WVM8YG0rMAwCuVCnccJ31qLjzP4wC4ZVkj730WtNttrqoqVxSFM8Z4FEXpLGcCY4wD4Iqi8CAIRHpWuVPZ6brOPc9Ln36tzFt+yXLIevc0uq6L/IsuC6mhSwTHx8cIggBRFMH3/fTp3GxububWRo6Pj4fyfu973wMABEEAy7JEuq7r2NraGsjf7/ehKAra7TZ83y9ci1UUBY7jIAiC9KkzgzGGKIqgqio0TcNbb72VzjKR3d1d3L17N52cSavVws7OTjoZmqYBABzHwdWrV4E4r2ma2NnZGaiXIAigKAoQl+E8bG5u5h4Z5MEwDOzu7qaTc9HpdGDbNhRFAWMMhmEMnE+P6lqtFjzPg6IocF0X77///kB+xH+TVd4zkZbwReG6LrcsizPGuG3bA1/0RbDoL984fN9f+PstmiiKuKqqXNO0ucrSNE2uKArXNC1Xmfi+z1VV5bZtD6QD4MnmSRpfuVzmlmUNpdfrdZFWFHTt5CjhrHEcR2i6ecozC9/3uaIo4jp5NFTGGFdVdaAtUHkk06i+TdMcGMWQFlvEyIae37KszGd3HIczxnIdhmGItmUYxtSj0HK5PFbTNgyDq6oq3pu083GavK7rYvQ1Lyv8/3Wewuj3+9B1Hbqui69XEARgjMF1XaF9FcXR0RH29/cRBAG+/PLL9OmF0ul0cHBwANu24Xle5tf3vLCzswPGGBRFgaqqQKxZRVE08C8RRZH4l85fvHgR7XYbiqKINN/3hTY3iuPjYxiGAcMw8Je//AUAsLKyAkVR8J///AcA8M4778AwDPzhD38Y+Ft67na7jfX19YFz89JsNqHrOhhj+Oijj9Knc3N8fIw7d+6kkyfS7/ehqireeOMNrK+vD9XBOHq9HkqlUjpZ8Pnnn6eThnjnnXcQBAEcx8HPf/5zUU+u6+LOnTtoNpswDAOe5w3162q1WmifpLrI0nS73S48zxPtNi9RFOHHP/7x2HJK8uGHH8K2baiqCsMwBvoAHTSyVRQFlmWBMYZyuYy1tbWBfhQEAVRVRRAEA6O/edta4Rp6rVbjuq6nk3mlUuHlcjmdPDOe5/FKpcIR208rlUo6y8IIw5DXajWhMVYqlZFf7PPAkydPFqbl5qVcLg9o5KRFcc753t7eyPqt1Wojz81LURr6rNeo1+scAH/x4kX61JlA96f+3Gg0OADeaDR4GIb8ypUrI99r1nceB/XzK1eupE8tnHa7zQHwWq3GPc/jjUaDM8Z4rVbj7XabP3nyhLfbbc5j+cDj56WyC8PwTOYTChfoWUMH0zTFpM68QzDf97lpmtw0TW5ZFq9UKtwwDK5pWjrrQmCMcV3Xxb+qqg4NTc8TURTxSqXCNU3LHM7mZd56NQyDK4oifiOeFOXxRC1dnzoNkZ44zcJ13ZnMFSTQTdPknufNdFiWJT5OSVPRJOje80xOR1E0dqg/iSAIxPvzlMnFsixeq9VEXtd1xf8p37g2EUXRVOXBY9MKmY7OkiiKuKZpohySqKqaWca2bXNVVQfanW3bc/ezSRRucllZWYFpmvjTn/4k0j788EO4riuGF5OG4JPo9/tiYmhlZQW6rgM5h5Hz0u12xfNvbW3h+fPnAADbts+lyWVzcxPPnz/HyckJPM+D4zgwTXOq4WsQBDBNE7VaDfV6faZy6Ha7iKJIDN1XVlagqip834fv+3j//ffR7XahqqpoX61WC5qmjW1TvV4P7777LlRVhed5U00o0jBf0zQYhjFgxpjG/EFEUQRd1yeaX8jUYlkWPvroI2xtbeHZs2cwDEO0dRrir62t4X//+9/A8yiKgpcvX+Lo6Aie58EwDDDGhswieeh0OsKUReXhui5UVRXX29nZgW3bcBwHd+7cwb1793BycoIvv/xS9NVknwWAu3fviraWlBXj6Pf74l1maWOzcvfuXURRJMyBSbJMfq1WS5imkmVelAlvHAsR6ADg+754mX6/D8dxYBjGyI43K2ct0JNQR0M883+WjawIdnZ24LouPvvsM5RKpQEBRvZKshMm7X4k2JJ2QM/zEAQBdF3PVQ/9fh/vvvuu6ARpAdnpdBCG4YAAA4CvvvoKp6en4qNjWdZAHroG2TIvX74shLASe6zkFepn0QHT0ByUYRjinltbWzg6OhLvnKwXZMx1AECpVMLz58/hOI6wO+cR6GQnpzJFXK6+7w98MJLtIInjOPjhD3+I09NT4RVD9Ho9MceSvP6FCxfQaDQG8p4F/X4fp6enQ++Q5PDwEJ7nDX10dnd38cEHH6DZbMKyLNGHyOvHdd0hWdfv96FpmmiHeepjatIq+7xYlsUVRRk7E1wkALimaZl2+0VTq9UK8Qx5HTiOMzT8o6FycvicB8/zuKIoA0PwPLTb7aHhp6ZpXNM0XqvVJprRyIMgC03TRp7LCw3xpzUNzINhGEMePzRfM20bc103t6/0OMjThjHGFUUZ2z5c1+VI2N2TeJ732vpqFqZp8nK5PNI05HkeNwwjncx5LHfIm0tVVa7rujDBKooiftP7Jn/T304yFc7CfC0+A3J/Sy6EWCTUeF5HI6nX6+fShu66Ltcz3NfmEeijOvE0kDIQBIGYJDUMI7Nsyb6bdBFLQu1vHkiALboN83gOQtf1IWHO5xDoSTv8rIRhyJXYLZGuR78bjUY6OzdNUyg6aRqNhhB28xIEgXCLnuUwTZMjntuY9JHKgtpmug8RyfT0HAgJ/nR6ERS+sOitt96C7/tiyL6/vz/VMtlZSA9Bz4owDNNJ5wLXdfH555+PND1YloVqtZr7oMU/44auk2g2m7BtG7Zt4+rVqwjDUJhUDMNAtVodWOLvOI44l1X3QRAMDflfB3lDKURRBMYYPvjgg/QpgWmaQ2U/7qB6SbrFTUO/30e1WoWmacI1F3H70TQNW1tbuHHjhqgXMq02Go0B8xnR6XSAeIHYLCQXjV29elWYn1RVhR67StOB+DnpWdPnTdOE7/vwPE/MCUyLqqoj+1AyPatfqKqamT43aQk/L+12m9frdeFidPPmTV4ul3m5XF7IFwmxK1GRLpF5ofued7dFgjQw0rzS7nKj6o/+blqTS5JKpTLgNonYJZTH9yVt6smTJyK/53mcMTakKdLzzOuGWa/XeblcnktDT7quzcq8Gnq6fPJCbotU7yxeLETXIzdGALzdbvNGoyHaQJYrKb3H3t5e+lQuKpVK7r+txe7T9HzptjwP1B6p75MrZblc5rqui9ElHTdv3hT56dy8bWIUhWrozWYTt2/fxk9/+lPs7e3h/v37+OKLL7C6uorT01PcunUrl7YyLb1eD2tra+nkM2F1dRUXLlxIJ59LkhOPAPCd73xn4PxCNIrYi+C73/0uPvnkk4F0GgGVSiUwxgAAf/vb39BqtXDhwgUxCU2aH5GcGJyVw8NDPHz4EKurq3AcZ0j7zXu8evUKvu+jWq0WHpZgEun6nIbDw0OcnJyg3W4PTCoDwBtvvAEAqNVqsG0bAHDx4kX85je/Qb1eB+KyTwdN6/V6AIBKpTKQnoaWwiePzc1NvHz5Eg8ePEC1Wh0bCqDf7wsPH9u2EUXRUFueB3r/jY0NPHz4EA8fPsRf//pXNBoNMMbw9OlTRImFRn/84x8RBAGePn2Kf//739A0ba7QGmNJS/h5GGWLIj90TdNGTjLMCmJb1qQJtEXA4uXR582GPgrSwGzb5lEUDUxaRlEkjjAMeRAEPIoiHgTBXBq6ZVmZ9vwsLYYxxsMw5KZpinbmZUxc0XvMUydRFIn6nec6ZMvP6hd5Ic3Wtm3uZfi6u67LXdcdSqdymPberutyLSN0A4vnFNJzFo7j8CAIBuqL7NtJSGOdRBT7z6ffkSYUJ2nptLw/az6iCGj+ZtbJcho5LILC3BbJxWvUEvi7d+/C8zxEUTS0dHceVlZWhK30n//8Z/r0Qrl37x4ePXqEKIrOpdtiGvKpJdcqcjNDHJgpaRdNzluQJlKr1XK7n/X7fTx48ACvXr0acglrtVp49OgRtre3h2yUnU4H29vboq5brRZ0XRchAhD71ruuiyiKhv5+WtL+09Py9ttvQ9O0XK6coyC3RcMwoGkaXNcVboTb29sjfeN93xd587rIHR4ewnEcuK478N5kHzdNM7M8Njc3YVmW6AO7u7vwPE/4biddYmfppxRmYFJZHh0dYWtrS4QrSEKuhvPSjwPCKYoyME+TLn9K++abb1AqlQb6SxAEKEj0DpKW8LNC9rRxX0UK5JPWqOaBNLnXoaHXajXhujSPFvdtIa3RJZd+pzXoJKRRjbKxZ2EYRqamFUURRxzOIUsDYowNlXVaG6c6ed2QrTU90pgW0uh83+dRFHElXi2Z1pTT0AhqGsYFwELsVZS8Jv0/3e8poBZBbSurTvPgxa6x48rSj8MuZ63o5LH8GXVuGtIraKdlkRp6YVelWAfkdpYFddZxlTIt1MiKvGZeyD1r3mH5twXf97njODyKIm7bNkfs45/VwZNMO6QfBwmO5IRmFC+9HiXADMMQ9U+dOj3cXzRZZUR9Yt626Xme6FPkbjfJFTEMw4l5pkGL1wfQewZBIExSo+olaWoic8movJOYJNCj2F16Ur2T8pdVX3nxYhPjrB+nRQr0wkwuAHD9+nW0223oY1YLXr9+Hevr67mH5pOglaK9Xg//+te/0qcXytbWFprNJkqlEvb29s69yYXo9Xq4fv06rl27ho8//njse826mrLX6+G3v/0tLl26JMw6iK8XhiGuXLmCa9euiRWjRKPRQK1WE7+RMBWFYYj9/X0wxkaa/hZFtVpFo9EYmIil4f+4/jANzWYTW1tbWF9fxy9+8Yv06QF+9atf4dKlS9B1fWiyeRxHR0dit6her4cvvvgCL168SGcTlMtlIF6lnY52Wa1WUalU8Mknn4gV5LOKG2pno8ry3r17CMNwolzpdDqoVCojr5MHepZyuSze+euvv8abb76Zzpo5MU9t/MWLF4VO1qLoLej29vYAAJ7nZW5y0O/30W638ZOf/GQgvQhel6fJ6uoqXr16lU4+12xtbWF1dRVPnjwBY2zIcyN5GIYBJQ72X61W05caSalUwqVLlwAA29vbqNfruH37NsIwhGVZ+POf/wzGGBqNBizLgqqqI32FjThM86effoog3ljhLIX51tYWfN8f2nwDBWzuQHS7XZimibW1NQRBgE6nM/J4/Pgxvv76a5RKJZycnEy1FdytW7dw+/Zt1Ot1MMbwj3/8Y8CfPYoicM4RRREqlQpOT0+xsbGBy5cvpy8FwzBwcnIivF3IU6loms0mHj16hIODg/SpIdbX12GaJjzPy73hxyjW19fBGIOu6/j444/BGBs66vU66vU6Ll68KMp1Y2MDjLHChTmwAL3ftm2uKIowRTQaDe55Hvd9nxuGUaj9nMcmFxoOnjW0PH1ZTC48sVrTi8MTjzOneJ4nvDhmHUonoc0B0sNhuscoUx5P+HurqjrVUNhLLEfPOqhtpX/ToSgKL5fL4nfy+YtaGRmG4YDJI23HTkLmqaLMTmQ2Sl+LTGPj+jPZmsnEMM0cSxoypSXL0vd9IW9obmVvb4+zjJWhLF4dSm2E2tQsPvpBEAysElVVdWJfSc9PpSFT57wULtB5wr1Jj53sNU3jlmUVatMjqJKlQJ8f6hz0Lu12myuKktnQqIMVJczJLpmeXMtrr9zb2+OqqnIAI4XdKKLYHbNo6vX63AI9CIKh8MaO44y8JtnY9QkT2XmI4tDKoz6yyGETpw/hrBOIRJQx/5a0qyOxkIcOVVW5aZpCoJNiyRPL72dxtU1D90uXURIS6Fl56D2SdTwrCxHoPPGQlThe+aQOOSuINXTkGGz4cbwMXdcnNsQ8LJOXC32E0+XC4rjvSUjQY4zGMS0kiCzLGhDIpAVPotFoCCEzb6coCvrgzyrM/Hh7vlqtNvROWdelMhynNU8DjdJIA05+UJBzBSopPPP2/6S2n8SyLCG4yU8/zwed2nuWpxURxL71kw5qdzSK0jJGfMk86XMkQ6is5hnJTJaCcxBFkXhgZQFR63zfF0PtPJ1ejzX5IpZj88RX/jxr6FEU8Xq9zrUcXiRRFHHf98Xy5aJHXEEQDGiYtEBk0n2iKOLlcnmg06QF4OuA2iWbwfRBClF6xEJEselFj5UT0gAX8e7JeqEPbJ7+k/SUQobZZhrIvKdmBP2aBTLXTMKPXUVHkfzQjMtH9TOqjxXFQgU6QTFPEMd8mJd2u809z+N6PNSqxFvRMcZ4u90e+YWrxduVXblyJVeDzCIMQ95oNPje3t7AvXVd541GI5fW8m0hjLfFunnz5sgy43G+dHyKeeOkjCMMQ37z5k2uxya7SYKA6iDZJmat3yKh9jHp+dOQmWmSkkD2bSTihIyrx3mh9kL18vvf/z6dRUDvoOv6wHNOWxYErYlAwXFZ5oXW30wy3ZC8mFSn81KolwviAPm7u7sDs/0HBwdYW1uDqqr4+9//PpB/Wvr9Pg4ODuB5nnCXq9VqYgadNo3O4sGDB3jvvfdw7dq1mWfcHz9+jE6ng16vN3BvXdcHPA2+7bRaLdy6dQu6ruPx48eZ7lVEqVTCz372MxHVrlwu4/79++lshfHVV1/hv//9LzzPw9ramvCgyYqFQjE+WLyLjW3bUBSlEC+GeaBnffXqFRRFGYprMord3V0RCXCSp84333yDSqUCTdOwtraGjY2NmeK25OXXv/41PM+Doig4PT3FL3/5S1Sr1SHPnuSqTtd1sb6+LjxlGGPY2dkZyD+KXq+H3d1dvP322yiVSvA8D4wx/OAHP8DOzs7QfV8HJGsohs0oKI5NUV5PI0lL+HkIgkCYV9L2PTcOfD/rF1pSHLZtc8Mwcg3/nHgjDMRDZzKD0G+abBo33JwGN96UgUwJZLaj+xFJc15a6/HjVYqkuRZl508TBMHIMmSMiZHDqDxJaHSRxwzgxvHs6f0sy+JWYu9SVVV5vV4XNuV5SZY1mb+SprekKZWeI+kFQpDZgepy1LMlTTzIMLmFYSi8sQzD4IyxoVg2dO/kMyTP09GIN3u2LCtXPSWhuYS0rMuC3j1dJkVTqECnjqSq6lDDpCFYunIkZ8+ojkQ4jjMguI3UJhPtdnugw5HwRML2zVIuY5PuyRMuk+mPPgkUEuhebF82DGPkBBhNKJLQ0WJPqyI7lBcHwCJhR+YI6gPlcjn3BOWk5/J9X0wAUp2kP1QkCJP1Qf8ne7see5zkcVSIoki4XmYJaHKnZIyJCcRxgpon6o6eS1GUTPMdfbDGCcsg3uSCymTWY5Z5BxLQek7THuUfVzZFUOhKUQC4ceMGkBEoa2dnB47jwPf9zOA+ktdHp9PBs2fP4Lqu2MTAMAxsbGzg1q1bI+uLAjY5joMgCHD58mVhYqBNFWzbhqqqY80Hh4eHwmzFGBvaixHxvWzbRrvdxrNnz3IFQ6PFOIqiiMVJWdcuAgoSRsGafN8XJodR5TeOVqsFz/PgeR4eP36MMAxhmqZYLTnuPfr9PnzfF3VDG0Egfi7LsmBZ1thrUJ2899572N7eHrmxdbfbhWVZ8H0fjLGhgFhZtFotWJYlzGRZdLtd/O53v8u9yrXb7Yo25/u+CISVJCt4FuK2nid4Wb/fx2effYb9/X1RvqPKJQ2tZl70CubCBXq32xX2M03TcOHCBTx79kxEfhvXiCSLp9/vw/M8+PFuLSR4NE2Dqqozb+Td7Xbx9OlTfPrppyKqZhAEI4VZq9XCwcEBHj16BMMwYJrmyPseHx+LD8P9+/eHlpiPI2sj40VxeHgIy7KgadpYYZXF4eHhwGbbqqpCS2zWPc210hwfH4uPQ3Lz6TT00fQ8D5qmjRX6VH8vX76EYRi5BPl5pNlswot3NYqiSOz3kFeQE7Qh+6JlYOECnaB4BYjjPczTICXF0ev14HnewutkkiDd39/H97//ffzoRz9Knxqg1+vh6OgItVpt7PW+LUx671F0Oh1cunRpMcvBc0JtIx0rJ4tms4k333xzYv2dd/b391EqlXKVyThmbRfTsjCBLpFIzi/zxoGXvB4Kd1uUSCTnnywbtOTbj9TQJRKJZEmQGrpEIpEsCVKgSyQSyZIgBbpEIpEsCVKgSyQSyZIgBbpEIpEsCedWoLdarXSSRCKR/H+NdFuUSCSSJeHcaugSiUQiGUQKdIlEIlkSpECXSCSSJUEKdIlEIlkSpECXSCSSJUEKdIlEIlkSpECXSCSSJUEKdIlEIlkSpECXSCSSJUEKdIlEIlkS/i9f1dBLf5LwzwAAAABJRU5ErkJggg==;rounded=1;" vertex="1" parent="1">
          <mxGeometry x="-163.0048200334819" y="207.9984514508929" width="372" height="69" as="geometry" />
        </mxCell>
        <mxCell id="yBlYgujM2W9td2w1A4_b-4" value="" style="shape=image;verticalLabelPosition=bottom;labelBackgroundColor=default;verticalAlign=top;aspect=fixed;imageAspect=0;image=data:image/png,iVBORw0KGgoAAAANSUhEUgAAAPQAAAA5CAYAAAABWQaUAAAAAXNSR0IArs4c6QAAAARnQU1BAACxjwv8YQUAAAAJcEhZcwAADsMAAA7DAcdvqGQAAAdjSURBVHhe7Z1tsrMqDIDxbsy4MmFlhZVxf7zGSdPwpWI9NM+Mc041CIQEkGA7xRijURRlCP7jJxRF+buoQyvKQKhDK8pAqEMrykCoQyvKQKhDK8pAqEMrykCoQyvKQKhDK8pAqEMrykCoQ/8IzjkTQuCnlcFQhx6YEIJZlsVM02SstcZay0WUwVCHHhDnnFmWxQCA8d7v5733ZlmWN9knUTuLqJX7RSb+tlUIwQAAPWUAwADA3suXenq8DgBmnmd+WbmQEMLutKl24eef2C7Lsrx1PjXoi4KffDi02XpAxHv/oWhuIBRJ3nv/OAP6i9Q4ryEd8Lqu/NIHzrkquTsIIex24pz7qCPaEZVTGLGAtTYaY96OGngaay0XURrg+pR0yz/X0CKPtnAXvJ5KGXGEpmBPSZ/HCkl2+DTKWvuY0eCvQWdNKR1O07T/X9NG/PGKj4gUOvO6ox2lEbqmTj8P93DO0RE6JtLWjgZKO0faSGof2m4A8Pb3SB5H8N7fmt8odF3lxt6fL7IpzwMATIzRrOtq1nU1MUYTYzSv12v/y2V7os/Ix+jq0NgotdM65Xu0dLotssq9dHVoRJ34GTjn3p7FKU9ro1Q5lTxdHRqD/7RH1979e0ghRWyPpzm02skxig59RrFoPNSIztxPyZNzSoxh+4fvFkP0GfoYxbCVYeEQ82+58e1zCh56uCPcMSKox5zDGubQsG0u4ecp3ntjrTXeewMAbwtfEmgHd7XjUbv7ZYoj9FF6OnPuWfBJXFXGmllNaiptNt1LxzzPe7qaPJ4O17e03zuEsNuPdJ1CZfm97ySEUCyr2/bvF4N7GA+kccgcPPYMANF7z8Wa8N6LcVA87o5t0zpi3JaDMtK1HnCd1ELbKQeNCz+xTlyWp8nZD687t2Eue9aeW+FlQJujx36dJ+bkKlc6riJ1T162u+D1zB13cTTfljQo90SHjoI9YFnpeSw7l5XO03ry+94FL2fx4DfgSDfM9XbmwsrSkZn3oggdOVIyVyLpI3XcUZ4olKklX0xT46QtslfA9VkD1wV+lspM7dha+zYb5fD73gHPs3TE+G83UJaWKTcWAAB2BZ2h5MwIrXhJ9gyoC0umOgCw15eWQzKgXtBGRZ3V5t9S3hbZsxzd+ik5QcomJNlUPly2tw5o/ek5tLPUYCeXntCqWC5/tOKt96gt3xm48iRqZK6EOjA3Oqq/VOeKMjVlbmmPK+D1qEHSQYozsr11gO2aareYsLXLV7nnef5Y3W6Ne/IVxdbVcZ7+KjDMI4GrjDXhnyvBkBPXUYzx7e0oAOimlyeTai+JFtnevF6vPRLBCdtXS0m2VnRoHg45gve+yZi4YjHtNE1mmqY9jICfebyyF/M8iwo2W5m99x8K7gnqBUNO3KmlzjXVDk8LW6XK+Uvw9kRge5VZsrWiQyMtDS7JnukYrLVvTotx1BS5a1cTQtjLdqaOR8B6or6lji1lFJy7y16ittwlrrrPE6C2lrLxaodugY5iaGxnDMZ7v08hY4zGWmu25/+Pz17Yr9wL/IIA2F4nTI3ePaANW8o3xri3Q8oQpE54BEobMihP1gH9MgrvfbKjqnboO52EgwaLf3ll6OfctPhq0JmlqU9P6HSU6yIFH805d7Xv3bTUq0X2TloGjmqHThlCC9KUkJMr7JNILUr0JoSwO2eLAeLzdGqEHpUr7PbbYJvV2Fq1Q7cYj9mmeVfxpAUSfI5JLUpIM4wrwcatmWpz1nVtToP0rtcTeKLzY4RI8icn7EevduijPXtrR3AWXAHvRe5Z1DlnoGN4yDln/BY6q51q11Iy5qMdwbdpKffdtloCBw6pbRz58k5Kd4emGdbeo1ZOAg2+B7S3lByKjp49wMaV8lZk+AiW40l6RVtLtTf1KzqAFB0aE/KeoJZUD5NDqkAtvRyafiUxzgK4sdDV5KvB/HvUzWyd0LIse93ctlGG/j86vD2/BbU1v30hBbe3mbz6Sik6dMuUhYPGhxm3GCMPtdQoGxeqznQIEjjVRey2uAQAu7KRHg6N+fsbf4FEMhalP9SZEezIAcBM07TbHJczJrN5FfcG455Svo8Vjxx8Xzffe+q9z+5VjewFjZQs3WebkjmKVIea40pM5d7hI/mjfMv9a2Rb4S++SHaHL8HgX0oqDU1HZanNXCV7FtQB3jeVLz8oHy1fexN65CpVe78cXDZ15MpxFKl8PF9+fIsjZWhJg3I99FxrJ6ny8mvS0Vv2LKgDCZ5nKu+P7xQL5AfRailNcekuFwo0/qiaEabt+Bk6/aIiTm14iCqlp5q69ILG+VmzJsE0UIip0za0HVbZDYkS+MxOKNS7dB3TUzvARzVuGy7xI33S+dZ7nCF3T2pzvJ7Ih0Mrf5czDm0KaRz5jrg7n+WVNoqLYsq40IVGPvPhrOu6j57qzM9FR+iBqB1tKbkpnvL30BF6EGjorAV15rFQhx6Q0vRZGRedcg8CroCmVj+V30AdWlEGQqfcijIQ6tCKMhDq0IoyEOrQijIQ6tCKMhD/A/CNDGiR+mMGAAAAAElFTkSuQmCC;" vertex="1" parent="1">
          <mxGeometry x="-1550.0044580078124" y="-811" width="244" height="57" as="geometry" />
        </mxCell>
        <mxCell id="yBlYgujM2W9td2w1A4_b-8" style="edgeStyle=orthogonalEdgeStyle;shape=connector;rounded=1;orthogonalLoop=1;jettySize=auto;html=1;strokeColor=#DDA15E;strokeWidth=6;align=center;verticalAlign=middle;fontFamily=Helvetica;fontSize=11;fontColor=#FEFAE0;labelBackgroundColor=default;endArrow=classic;fillColor=#BC6C25;" edge="1" parent="1" source="yBlYgujM2W9td2w1A4_b-6" target="yBlYgujM2W9td2w1A4_b-4">
          <mxGeometry relative="1" as="geometry" />
        </mxCell>
        <mxCell id="yBlYgujM2W9td2w1A4_b-6" value="" style="shape=image;verticalLabelPosition=bottom;labelBackgroundColor=default;verticalAlign=top;aspect=fixed;imageAspect=0;image=data:image/png,iVBORw0KGgoAAAANSUhEUgAAAJYAAAAtCAYAAABMDJJUAAAAAXNSR0IArs4c6QAAAARnQU1BAACxjwv8YQUAAAAJcEhZcwAADsMAAA7DAcdvqGQAAAcUSURBVHhe7ZztkqUoDIbj3JicKxOvbPDK2B9r3JzXBALi6dO1PlXUTPMRQggQ1O4p55zp4WEwfzDj4WEEj2M93MLkPQq3baN5njH7xLqumEXLsmDWx1nXlWKMFGMkIqIQgms8vxmci0+O2e1Y0zQRER0TQ4bDcD3E2c2toG6tOk3TRCEECiEQfXiiWuGFJAkh0N+/f9/yvBtGM9lBjDET0SmllLBqzv/O1lvSYJkxRiy6RIzxSKif1An7TSmd8hAcV2l8P01K6aQn2uOuOcg5Z5dVUMEQAlZ5g+tohvcMuBfZp2YwWV4qs3RCvTU534JmZwmWWWPupSt456OgREoJs4iMfC2vB9zmtaPAAnXAnzVijGo48A3U9EfbUMU+zaCnIdoxWKNWX1tNo1YL6muV4U5jtWFQrlXvm6jpq42JBs1F846lebpGyfvneT6Ve+XWQLl4M2JkPVmnttKZUfrexbZtmHViWZbTOFJKY4J59DQEvdkDxisWKLsWu3mxZMoVKlcl5+EuJsHVXar7LVh2QO4Yiz3rypHlVUBOQmlAuXJTu4ImS+ol4Rth6QiQ45HtuZ1MUdxMQwiqLohsPwKeO+sS5YHH0EOxt95Viu1KcF1NtpZnUesnV2KsGnI8PakG1v+m1GqrXHMs7MC7mq5MYBY7CDkmJCuOHMVOEUI4/i/rcD7X57ooJys7d2vy2ADbjEpynL2pB7MVTgTd5Fjy+NAM4EHT1UpaH1bi8aJ8dlSZUG6LDVD+t6Wa/hrmKx1+/RFCOG5K3huDfJ0gn/Vs20YppSN50F5DINbrC4JbnhwLGTc7mcemka+CLH2sMZPztQnfTC29ZR7efFNKR948z8eNMKX0Nh45f/LWKHXjOZJ0PatDT8uw9fcEf6NWYKwE1B4IdhgeT4tcqZPVrmWH+iQe3e/g9Bxr27bD+3FllFjX9Ujo8TVCCBT3Lw/245lyzrQsS3Wll3i9XkS7fF51qNu6rjRN01EXwedglj4o938PehqvPG3XQbQ6ctXWyu9E01vqgz9bOqHeFjU5P8VP7aSnHYtXXoxR3bF4hU/TpMYoTIzxTRb/LHejO9i27S0msnSUOzMTY3yLPfDptRGOPigcjsUTIgNENDzn18Bgk/YA0DpGRvF6vd70k0cgKcfVPM+Ucz614eMPnXKaJlrX1Tw2H/7juBW+Xq83w2s3EO2WRGJ3k46DN7W7Vru285Bxe8OdTDodj5/bSbm840pwPFK2vH21gjEdKbdZ1otvgLhgSNzkPjUPJ7ISa3AsgQ8G+VbBt6zSLQNl3on2DEmDx6CV81jxZzIeMiKlshbQbr2JwTn8FJSVAFUa3sqvgQZqadtDqR/WRf7rRU6GHI8Ex3oFlNWbJFb+nfwhJfaQ26hEO3Is7grOLdL+0LXULx8JON4SHzs6dlp06wHn9C7+0H5Ws9FLztMbN9AHDDbPs1s/jJdGclU2x3NRPNOTt2lJCOFUhxcY1mOu6ufl7ZXOuq5vQTgGfq1BKbZHw4yCA23LaHLRJHjNocHlqK8M0GWZHGe8+XPl0gXEAuehdR67wLNRgud9KVjXwMCxJbZpAfUckYLyHZnsZ0Qc2kNPX5+aB8npAelIcFXgFj2Kq3K141/L8+wOnjqfBuehtmOPoMmxUEEPuAXfgXzexDFHzvlkQFkmEz7voi91kCugLe6mybHwFUcPd9xKlmWhrLwmko5cMqzUiQNiC5bDsvGTmt/CHfPwBp6NEoxdepEytNjlDmRcUYsp5MPPWhzJcvkhsRxbre0IZH+1cSGyLV2YTw9F6SMN1yKnVu7BMwG9QS0+hef0CTz6WvZDva32IyhaY6RjeWXVymtgP1qKxufEXritbH/nJElwHEyCz7s1fXAhlcastW/BlqxM0lUso0iu9oeG8yZLHw20S2v7K2C/VrL0aa3XS1PwfjXgwyfAmjwZZJe+7LTYFwvl/VYoUym4Tim5LifyawKpa0n2CLZtO+x1pa8MnwlF+AYNeb1exXIT9DQJrkzLu1vAFYPBPJaP6FPCY8KjDBPCRw3WkwnH0kMs/OaPN9X00I5EtHOtvMbZggI0ZKtwDW1QIYSc9l8Dw7IRtEyUNiloB06l/B5QTkuKlc+YEE13HrtW1kqxBXbQongJlGsl7wSxU/KuwgnlcWJHlrDjyXxLBjpfqV7LhKOc0q7aItfCko3JOw+SJsfq6cBC251woB7DoY6lxBNtUXNIKthAG0+tDVKT4ZXTAtqcOucB+THHYnBQMnlBPbXkAdtg8oBtvO2YK217Kdmvd86bboV3wLc3RMuzWJZFvSlF8ZtBHrQ++XMcr4wkfiuZDJklZH/ePq+y7H8nS7MhviZzg54mQe/F2GI0MkbqgY+63va58VVQibjHbL8NnoOKa1Qx/3YDsjn+/sDDA+N2rIeHFv4BvWsIhN3QHAQAAAAASUVORK5CYII=;" vertex="1" parent="1">
          <mxGeometry x="-1503" y="-902" width="150" height="45" as="geometry" />
        </mxCell>
        <mxCell id="yBlYgujM2W9td2w1A4_b-11" style="edgeStyle=orthogonalEdgeStyle;shape=connector;rounded=1;orthogonalLoop=1;jettySize=auto;html=1;strokeColor=#DDA15E;strokeWidth=6;align=center;verticalAlign=middle;fontFamily=Helvetica;fontSize=11;fontColor=#FEFAE0;labelBackgroundColor=default;endArrow=classic;fillColor=#BC6C25;" edge="1" parent="1" source="yBlYgujM2W9td2w1A4_b-9" target="yBlYgujM2W9td2w1A4_b-10">
          <mxGeometry relative="1" as="geometry" />
        </mxCell>
        <mxCell id="yBlYgujM2W9td2w1A4_b-9" value="" style="shape=image;verticalLabelPosition=bottom;labelBackgroundColor=default;verticalAlign=top;aspect=fixed;imageAspect=0;image=data:image/png,iVBORw0KGgoAAAANSUhEUgAAAUEAAABJCAYAAACjKpToAAAAAXNSR0IArs4c6QAAAARnQU1BAACxjwv8YQUAAAAJcEhZcwAADsMAAA7DAcdvqGQAAA3ESURBVHhe7Z1rluMoDIXJzEa6V1LOymIvpVfSZCm9Es+PjjK3bgRI+JGH9Z3DqQrmIQlZYEylTvM8zykIguCg/MMZQRAERyKCYBAEhyaCYBAEhyaCYBAEhyaCYBAEhyaCYBAEhyaCYBAEhyaCYBAEhyaCYBAEhyaCYBAEhyaCYBAEhyaCYBAEhyaCYBAEhyaCYBAEhyaCYBAEh+bfcRxHzvxUrtdr+vPnT/rx4wdf+giu12v69etXGobh/vmddD2dTvcxEh325nq9pp8/f95luV6v6XQ6Fe04TdO9XKvs3kzTlM7n812XZ9l0K8TfF9t+PhDjOM4ppXsax3Eex5GLvS2oG+r4LrDswp7jxD6SUppzzlxsngtl95LTgiafh2EY5mEY7vYv2eFZsG6afhaZH2t9MJpTaIZ7VzT9mD0DiheUG2Us5W9Fy4aIp+zesD94bce6vZp+LJumXykfeS2tNsZitHcmpTQPw3DXbxiG+7Wc87ebwjJD7g2ODYN6bT12NTkYLGspr4Hj4iXn/M02DMqGYy59DsNQ9AXWDf3pFWD50CfGcfxml5KO86sEwZqAa8HBYY8+96YWKPgaX38FWsGAVzZbjSH20YJtaoVvUkk9gYbbQUr5XId9Ief8INtW9u6F5RM02UVHTYfTPM/zNE2J34/IJmrOOY3jmHLO367lnL+VwfxSGfmd+0p/NeCs1UD9hmFIwzCky+WS0m1zVfj6+rrnibxfX1/per3er03TdC8vbbwK5/P5/ruMG8o4TVPKOT+M5e/fv++fn8n5fL7LVvIHS5mlnE6n+++tPrBsqpQXn9J8n8k53/3NAr/0wPolXTBf649jAvvSK9CyPdtFeNBXoiFHzb3TVvAKkGfA3tQzY28N68az+6zMklqZZ9FaCc4kvzCuuM/J9mlRsqVsP/Dq1ZJ6fKtUH/MFlKnUF8v9irDdNHg8NX3TrCj8jLQFW+r1irC+pcAg5UrXn4UlCAooe0tfL55xZr/gMbCkNeB+BS0Py5ZsZinzbKx2FF1KpFmJlpJ4ZSF5420/A1dWWtlS4gFLFQF7KenkSSIn66btK7wCOC6vLGcJ9IuW7HKdx2aNGxbba6H5Ry3J/bOGnIjYjtvWdEF5S2C9tWVdC7Z7L6f5r8IfB+4dpQV7X7w38rCf0Mn1ek3jOKp7Fr3wfl9p/4n7xDo5Z5OdeD/mlbCMdc3+bDf+jHtjJTvI3rOwxX6a7GfX/LG0J8jgvneierK/L+8GxF/GcXywTauP2nsBL7jPb91vZcZxTB8XBDlo8YsQD9zWmpvD3PZaiJNhYPNicQnZ6G8hDmqBbzBGdJOXVQK+0MLPNWr2b8mMfoDBYol/SIDwTLIcqDiga/pxHtocx70U3FvUfKdm817GWyBujVkVXhq+M7w8XqIePprJI0yN1uMbo8m6VhJ5Od+avLqsyV4ytOxTu1563Gz5SA3PVoDAcmnJ42cC6y6P2JJqbdbgdtdKNXks6SNWgvJoIzMBroZwhpTP8jtfF3B2xPI8i/EM5FkJ4FGbtWBd+LOFbHwc3gpZgXhs2UtpDHCceYzTza7aEZSU6iuhGrxKGgyP9Ny3JmeCpwLxB7wPEugrsqMsWVmZsqwenadpuvetHUmTfHzSQHtL/uVyeTgCI2OFbeBTA+Z9G3uO1u8IR/Y1k2f2WrISWItXk8fLK8iONmzBPtCD5mMW/UtlUJYe2Vp1WN5n4rWZxlt/lZZ8QwaDqzbvSojh1V+NrVcurw7u09WwlquBB8O3pLRaLHE+n9M0TeZ0Pp9VH7P4reZvIm/N/6fbN99ooL6aXB8JR8V3gmekAQ5CatdkP0NSbZ+Dr8tMg2k2zJp7g/L0zow9yJGk1n6W2HIo/OmiVfZaG0tBG7bGlf1mjdTSvQTKInbBdjP9nbHWj0UOS5m9WEOW+gi/AXgeEJGbDR2gBgY6j0Gxj1cA5dlTJhwHT+JxkZu0Zn9uAye/NcC2a3IIawZCS38MBze0B7YtZTEPy/I9U2KpvGuyhiwf8WJEY3Ke7+Py1o156zmsvWA99pKpdAYMbahtZLONUf6S7Hw0pPUCwcuSYy/4OOnB0wdSs2nJFzhf6uDZWmlTXqaUzhB67bM2vB1W8pkqHBVniK5bMMLj5ZZYZzXBW17oqbMlvXosBfut0ZKt1Q7r1zv716jJqOU9A5SxJC/bCmEbctlSPa3uM2nJaqH6YuR0Oq2eRjhl3jtr9lDaCBZ4A3lP2eQFz+l0etg4L6Xz+Xyvdz6fi/qV8l8VHocWW69CxA+maUon5SXcMyiNKR6P0cB6fGxmbzgucJIXTHhvYBK6Vn4MR8VZia5bpS2pzWyJDlhi2fH2kkR+lupp13ppyWpJuLeG+XvN1KW9WQZlK1Erw+O2Bek2vtoYo0yyFyf+IjKx/+BnWXVJkvpSlvdIa2D7GtifBSmbc66Op2YLL2xTbyq11cNDLd443TJZB6cHccqSI2sJnYqvWVIv3E5PQluW8rekdtMgKFuJUhn2zTXBoCR2w760fmtlepMnCM43GTRYtp52pW4pn69Z4XHsSWv6u/piZLqd6uZT2pzHv0/TdH88wVPajLS35aPMpJzAl2U/PgrgSXUpL2V5k1hD23j2IvbQ4MeVTF+SIODY8JdH9MrlATfoa/1ZHmVw7PCFFuYPC1+IyGMujh/C4y8J/Zl9bA1KNvHCsvW0K2NVGoPU2W6i+MDxAH1E+pbxSuTriWTqelHDUfFT8M5YPDtZ6anjwavH3FlnKaWVA2ORC9sqzfjelQ2DbXHCJ4EaKGfpkXRu/F35krGSfkd6xGa5Erz80FJJfmkDxwDb3gqvPXrvXcFf401g58KB1PCWF5YY3wLLZYHrWHVZgvXmsOqiyW6ta4FthO3y5xqeshoshweWfUnSfES7hnW2oNceLV1qVN8OfxLeJXLtEbhE6a3d3nh1XRt5g60lL9pJgr8+vx7DMKTbgoAvVXnmePfYsobm71re1jzDdw8TBJ/psM8A923W3rdqoe1bank1UGbcM11LF7nZ5nnu3ltEffYOGJfLJeXb38hjSiDLMAwP10vjoO3dSzuazbfSt/c+XeTvvDT8FGRZ7XnT6ymrpS3ofTyYFz4ieOl5HK7tleE+j3WPbi2s9ua9KJFV8yMtnz+3+rNgbQvL1cYB20J9t/IntqkVrueRz97Lm4EGsSbZZOZ8a9oClscD1tU2vtdE+mo53whn0Vqg7Klxs66Jx97sA0vTEjiolsByLb/A9tCfthwLiw4aWM9T117yzeBB2yNtAevgZQ8ZhVYA9NIj+xoyWPvksVkjLQHbKdmBZW6B5fH3LfHIh7BuJRsw6jnBTwDPGiXYv9H2Qy6XS5roH5OPyjcKI3IN9x+2MKXlXBafs0I0O2j7P6+IyC621nRnTqeTqVwNy1nGpIzNeDujhvtafJZWrsl4rXWmk2VJ4MM43t5/Xo/tos9rvrYWLfvLSyGWAc+qClr9BzgqfgK8P2BRk2cRKz11PPBMnCv/1FuDy5Uef6TdvdD0wP61MSzJLkhbS2nZVGDb9rBGG5qtWqllSwTrpI0fhWdlRcs2qsnPZWvl5FqSG2umQ50eRbls7TNfkzy8KbQyHtgQlpub61hlwDpbwPs8tVSCy2n2EP21a0vQgh3Lwn2yzviZyyJaWz1g3y08ZTXYLksQ/TFh22jLwfDPw2b6fsetg2BWvheR5cdrGtqEoMkrtrn18djBs5NlcGqw8Syww2iG0/D2U6LmuMnw0qbkFLPRMbjt1hho9a061NrGuljOEgitN3YLlLmFp6wG22ptZBLie4ITwwGJU83fWuDEyPpj+/iTE/sforXJ5anMYwfPTkscmQ1gbYvrsdFKYB0v3GcplRxBnMiC1gbqyNdacHktiXxWW6Lja3Wwba2M9LkU7KeGTC6aba2J666FBBruT8tjO2pltDzJ91Bqp5W8E5zWD/oiXXvs8NnJoyyiKW6F61pl6OkLYXmxf85b0s9c6YuTRXeu462PsK4luByX7elbo9Q+o8mzNC2hJQ8ieWwvrsNl+JpWpoVWl/N62mVq7VL6XwhtCTrC96BhnpSTJHlSHtuRPJ71pB4L26O4zMrcvhWWgWfHWVnGc50eUFbNRmKPHptocNtasvTF/jA6VnwItjMoqzuGbS7942cP4jeiA9u/hvTL/XuSpz/BuwItjSeOW6ktbTxKZZNRfimrtSMxQevXi6aXfP6WzxXfkZITegzJbWiOwwbl1AO3IX2v5QgaqIc4neg/OCeOXtBBRQYPtbHwoE2e1rZKPpNvL/pk/GrjyG1Y4XpaavlQrY2hMSFp9q+VR7jflpxLYVkHWGwMw/D+QZAN6h0Qgdsp3ZTcD6YepN+tHYFhfXvt5mWkJ4Ul/aEO+Lu3zV5bSD3Rpwe+QT1oAdzrR9y/tGEBx9JaZ77V88q5lFzYI805v38QRERRz2pGYGcotaEZ0uMAr4Y4pMyOW5CVow9r2YzbluQBx1Rks9yg7As9OondpQ1Lv8gatpT+vX0Lw8LJbG84CPu85SDUnEocP7DBgWJLsC8vPXU+hZq/H4GP/bO5LZE/gQpsTPTvGoLglYggGATBoTnMl6oGQRBoRBAMguDQRBAMguDQRBAMguDQRBAMguDQRBAMguDQRBAMguDQRBAMguDQRBAMguDQRBAMguDQRBAMguDQRBAMguDQRBAMguDQRBAMguDQ/AfaZ/wGLjprigAAAABJRU5ErkJggg==;" vertex="1" parent="1">
          <mxGeometry x="-1595.0044444444443" y="-708.0025699869792" width="321" height="73" as="geometry" />
        </mxCell>
        <mxCell id="yBlYgujM2W9td2w1A4_b-13" style="edgeStyle=orthogonalEdgeStyle;shape=connector;rounded=1;orthogonalLoop=1;jettySize=auto;html=1;entryX=0.5;entryY=0;entryDx=0;entryDy=0;strokeColor=#DDA15E;strokeWidth=6;align=center;verticalAlign=middle;fontFamily=Helvetica;fontSize=11;fontColor=#FEFAE0;labelBackgroundColor=default;endArrow=classic;fillColor=#BC6C25;" edge="1" parent="1" source="yBlYgujM2W9td2w1A4_b-10" target="yBlYgujM2W9td2w1A4_b-12">
          <mxGeometry relative="1" as="geometry" />
        </mxCell>
        <mxCell id="yBlYgujM2W9td2w1A4_b-10" value="" style="shape=image;verticalLabelPosition=bottom;labelBackgroundColor=default;verticalAlign=top;aspect=fixed;imageAspect=0;image=data:image/png,iVBORw0KGgoAAAANSUhEUgAABTkAAABBCAYAAAAaPqBrAAAAAXNSR0IArs4c6QAAAARnQU1BAACxjwv8YQUAAAAJcEhZcwAADsMAAA7DAcdvqGQAAC8qSURBVHhe7Z1rcuM8r4Tls7FRVhZ6ZSOvTOfHuPN1+gVJ8CL5hqeKlUSiQNwIMrItX/Z935cgCIIgCIIgCIIgCIIgCIIX5f/0QBAEQRAEQRAEQRAEQRAEwSsRNzmDIAiCIAiCIAiCIAiCIHhp4iZnEARBEARBEARBEARBEAQvTdzkDIIgCIIgCIIgCIIgCILgpYmbnEEQBEEQBEEQBEEQBEEQvDRxkzMIgiAIgiAIgiAIgiAIgpcmbnIGQRAEQRAEQRAEQRAEQfDSxE3OIAiCIAiCIAiCIAiCIAhemrjJGQRBEARBEARBEARBEATBSxM3OYMgCIIgOISvr6/l6+tLDz8t1+t1uVwuejgIgiAIgiAIghcgbnIGQRAEQXAI27bpoSAIgiAIgiAIgkOIm5xBEARBEARBEARBEARBELw0cZMzCIIgCILDiHdzBkEQBEEQvBbX61UPZWnpGwRHEzc5g6CR2+2mh16GV9Y9CD6dlg3k19fX08z3dV310NMSN2Tfi5Y580w8y9zt5evr6+l8f71eX+r5wAx078mL2+22XC6XrmufgUfofbvdluv1+nQ5PMrtdnuIP4PX5Hq9Ltu2uedBSmm5XC7u/kFwJHGTs5FXmryP3tDNWEixOXsmn6/r+lC/9nK9Xpd1Xbs3btf7F3LMiGsv1+t1ePwe20fAP3utfr/dbj/XWjbz3Mj1+VTe0Re3221JKblvHmzb9jPfH80r3Th8pRuyQb2e8z9dr1AXUNcfNXe99cUD6tWz+H3btmXbtuVyuTyVXl5Q060vRivFDPUXe9cz7UY+j+TVtm2n77m3bVtSSj/1w/L5K8I59Ep18RU4e26dAWom5kFpHrLtcbMzeAr24IeU0l5zybIsP21d133bNu3yNMAe6JpS0i6HsW3bz7ijrOv6Y8ej/c3xn2Ufc6R9iAma5kNKqWgP5xPa2SAXevOZ87Ln+h44f1tyWP2t6Pmz7HkF1nU9NcZnoPFGHltYfR/li5Kezwjma/DcYL1aCjX1meZBC6rzmXtN3ieM+or9PyprFN3/wK+zgPyROJWuLfkSY+txoPNgpt01dOweH6nurdf3oHqf6TNwhJ0ai0fZ9o7U1qNXRPMkV2N2Y86U+gbBGcRO3piYuYKv/R4xgVuKp+pbsu0ISpuyVrB4LA9cQNSfKaVhu5jRTfK2bXtKKXs9b/KtPCid2zP2nw2P36OD9Y9Oq4xW2G853+aoXcd2BP+D45ybD0dx1HiaR6W85XpZ6ncGpfx9RuDn4PnYtu1XbnOz5p3OmUewbZupWwm17Wzda3uFFmbKGgF5U6udvbD8HpCrOd04lxWdE5pvfG1O/lHovlF188DXn2WDjplD+0E/PdbTenMph7X/7YlHkAdzMRX+F5sJYroedPOfc6VGS99X4KwYBsfxHpnYiRZ7btYi+siNwt7xz5e10J6N6jDCLDm91PJjFPhqRHbNPzn9NU56Xvs8itEcUDt75bQwUjdK16ktwW9G/D4Cxp1Ny/x7prx4Fj28HBW/YAytd1ZTWubMUfTowDadWbuUWTqUYnQWs2yx0NzsHaPkp1Ie8XXW+CW5R1PS28sj9C/5k9HYz2ylcXtQ+cF8OB9mx8/iyJi25GJL31dgRt0KHs/HPZMTz6/LPV8lpbSs62o+Qyyl9PP79/f3r3NngGeFlZ6JUeJfHTqX7+/vX88469V9Ef+f/ZwPfdbIzOe23e4POId9eI5VD8hb69mZ+jfDvl3X1bSP9XsEGoNRUkoPmROzeEQNeiW+v79/5WyuZmD+zWoY05qDI3hznse01rEgeAUwn/DsOM3/dH9e3v7vxXqzlus1j4DX0951/VFA75TSUC1rjcPt/jzqWbCsRM+KyzU8P1KPofGxXG726M/12nv99b6urev6Mw+eaW8Am9RHXmDfMiBjFGs/fAYz7eU8GZXLe6bgN/w/b64O4Dm1M5pymbzvBC1zoKVvEBzJZbd2hm8CCjAenGuR7jes/vz5o6d+cbvdfk3cR7mN9UgpFTczV/qHe3kSnZdBPVDUa7aDy+WybNtWjW+Nr6+vbA4diddOhuPO1+dyh/uXfAXfl/ocCfRc13X5+/evnnYBG0ZktJKLB0BucQw4TkA3plrXVvpnGn7C8fTiN3RH4Llr+V/r0xHM8L239rG9M8YdBXo/gy4e4L9X0fcduN1urpshLXWb5/UzxJLXnpRScQ3lf14ftd4u4sMRPSDHGz9eE0u1zgP7UnMLObfe39igP3FOwdqr8pTV8b+Fktsv5PL5cv+SqlJOedeOIxit/0evZ9fr9T8+0T1BaVyuXQvlUg/f39//uXGouvXA828x8n6EkbrwrnjyR/Pm+/v75xjHBccBfH273ZY/f/785//8Wi3wwnJrdbulb4nr/Zvce6+fSe3/huBF0Ld2vgP6fBo8gyfdn6+A4y1vqR593s5M+G3UJX28/c6A4zECnsnlge0fea6G9SwnPGeL8wo/eSz8zf1xno9btOSnkvO35j7mQ82n8GWt35EgDjl/1YCtbP8ZcB5a42q90lY7z/JLrddvr44n7jN9o7GZAce4xmi8U+ULyFrx6v0swNfBeWBtRNPc7ZlPz7RnA1zLc3pxvXqGPFQ9EB/ez3DcEDuOIWxC/DTeOI7f2f5loJaxv3tlPALozfkOv3DeeGxjf54N4p7LdQ/QvWXut6C5xv5in1u5eZROs6ntIXtbkOcsP2lOzoJl1vJ8xvhsR6menQXbNGJX8Fg+LnK6gHkZmXzY0M2E7chtIHhhmz1+D1wstvvNSmwctK33b0dGH/4Jm/UavlYLVK8fZmzSHgH7gP/pUD+gXy2v0z3fWvxXk9nKaBxgw4iMHmrzsJSvpdZ63ex4vBLwgeX/2Rwxlnf+cbx74Boxa56M6PMI4OvgeeiZU7imp+5hHvRcW4LnV04+8m/mHByB54Pqf2Zrif0uulp+nkGrTl6seq/7F/zNtiW6YczHVFYNHsfLZrxgX6ulNZ04hh7Wji9f0TyD7Z79leqfjBdoGD5n+Wub/L+izte18H9TqcHWnN3Bf4G/WudRKxyXWWNx3tRk8vjIjdZmzbXauEfCsYucf218K8cbwRPSm7R8TQ+4Vhe0UbggWPB5r61HkuRdjFhwsaHgBZjPodhoUSxdn2utMdDY9cjIAd1nyWOwSCWJu+aDjo/rlFKe5UBMWkFuMMnY0DObsWFUkEvqEwv4oSbTA3T3js1o/ik43xqbT2NmPGsgHprDvXD+lPTnfpxvaHrO20pjelgm+uIM4KvgOcDcXRrqJ+c7k1sneF3Hujwr/5Wa7JH14pko2Xg0nDMMahHXxS3zjlTuYzXIPypOlt/YJugI2Ga+1vJDCc7PFrvgEx07J8OzH4NM7FM1Btxq8yoHrkFjObWmuuv53jYDzocRuSrnldbyR5Mm/r+YA3NkMfKxF5ZZ05/Hxv98mneouTiP3/WYzudHwbXJU6eC56Wv6r0wPQWBrwEsA03/5n56/QwsvRge12vrswEbHwHHFKhPLb/yMfzOfTlfSvE7gtp4uZyyjtVQX3mx/F7Kg5zOSk2XXJxHYf1yY+eoXTdTz2AOtZi14o0x95vVZtgAWa9CqdYE59NTPzWPR9tMautVj73PyFH+82D5j/16RBuJleoGWTn9AfqqLtoHf2sfHi8nh2WVKF3vaRbap7V5sOLG11vn98xxHb+3zUBlWvp6mCEjOA6ed7Pi481FqyaVjr8K8CX74VVt+XTe+ouHLHIP9S5hfYNZLyMP5VXYFiuMrLd1/hV41MN/+Utu+CHOM3NB6c0NfYB1DjwsH6SUfh5yjb8Z9jd/aQI/UHuRL8oBKmtpsE8fpJ3u36K70JcAlOy1xlGZrXhyT79ACFh+599LsktfGKAPN48HwD8HM+sux9jKAZDrN1OXXvDFGDonnxXUikf5K/hNLrf5PNc93eP1YF03Kx9qX8Kj+qu9NbAfaL1uJtYXNar/NG6z4L2b+pfX01FYxjrwZR+6js8CPmiVzXZhb+fJpdweCzrg3Jr5shvNdY6jxwZrn+XRW6n9X1Vi1v8HreMyt9ttSbS3x560xxecm9Z8Ch7PrC/9AbX1lkGd13FH5tCj4S9ywzwCr2ZL8IG3pkuveujHP3Z6RUOPe8H13Gpv//aCjxHkdOMxe5ipaw/6MYmUeet/zv5e8PZ06+3y0EXPbfIlQqqn/r0PfCxIUT/h7f/4CACfU39qvyQfGdiNOWP1ZVv0HGRYPrDg8ayPMWjTsTU2LM/SwTrGMlVeDh5Hm+rIDT6yqPVhOcFzwDEfhfOmRK7fM+THLF+cBeZx8Bzw+qZ10IoV+lp13QPPGawxvbJylGTyXM71KQGfqK964D2NF41X7nrYmTvfA8a26g3rNQPOk1FyPuA9BfZqlm05vLnA8eqFdfXA/lP7OVZ6LgePP2IH+7sVtol1qNnAunv9Z5FkP4zfV8c+Whtf65WhdgfHA7/P8r1XXmmOsoxXAjbBbraj5o/gOXmtDJxAaQLrhK1N1NoGkBebVNjsHQEXILXTQ+6f5h56N7MYv7TZ4D49direwj1jLMibIasE64xYtIBrSnqy31rlW+RiYFGbpz25XJNpwfZrYx20wa/aR/9OtPnUc7kWnA/HbxSOZU4ezz3lGXJhqdSOZwNzP3gOcnsZrtGYGziWmyuonzlQV9eDnpXtgecsan5yPieSfVLygxfIafGFFStF9wujeu6O2JfqZA+s/1EgHxF/j28Zr39b5Vpw7nko+Y/noZfW8S2s/T/Prdo8YJtqfRmdt63o9fCdd59Ya5b8XAvOhWPTMl8stC6jWbmMc1bNmDEXHwH0hk2a95atwXPzWhnohBclbVr0cVwnNR/LJTZPCO1jLZYtQFfV39vUTl3weBOhtltN7WuhR45nk2MVZK98i9SwSR4ZB2C8GbIsVF/1F46VUP/mgC0z7GFZHkr9e+dhSWaOzXgn+H73IfLZOg/U1zNa8C8uZwLf5+qIF64PpZgityw7S9edxQxfnAn8HZyH1q3RZs2F3fiHkOuxp0aX0PX1WVpt7iVj/4jWImd37tt24wW9Xp8DjxzdD+XY5M0L6Gsdh7wjgHz2JfusZovGr0RNlodWf+R0O3PPplgyevw4onttDEXn0kI501uTLJneFvwvD1pyoBfOnVrdrcH1m2OqdtTGs+bRK6A6W/MneC3eLmK6WMxoOayx9HgvKvcZWm0DhH57xjdeObtRbCxU7igeOUeM5/FHD1Yeqs/0vOLtx2ON2mPpXaLUH+daKclsQedByTeWn9Fff+ZgGaO6vwtn+8ITaw8ay5zM3PE9k1NnU9LvGemtGcEYmuf8U88B/t2T5yxP5eixHlQ+Nz7Gv+eur9mSo+QvRccrtZIc4NFb5c4AdtTQsWe1I1DZmqM1Hdgn1nnAOeCJcQ6W4yGne6sc0HsdY/lB50gJ7jfSWtHrob/qnqge4Tz/nZOjsnLHe3R/N9Qf7KsjyMWlB5aTk8nncnj6PCOWzhxLPRe0o/l0NG8ZsY0+1sO/66sTeCUfr1LwT09C80TmVzowjr760Qr0LjW8usx24lqPDTn4evWThfq21Epy2PfefrW+XuDHHDrmrIaYzYR1Zfl8bNu2X3HTGEMG4r8UconzZdSe1twt9Yf+rUBmz7UM61bzDceiF523n0Ju3qo/cv1mMsP/0Bv5ksuL2lrDufcooOMscrYyWstamK1vMAbncK1+1uZcbq3AWtibM7PIrdstsL9q9sDuZOwttXbW2OS55DlYP4/cWVhrMXIGDXbjd/UN92NZs0EN4hzg/Rj+LunB1+s5hmWM0CqnpHdPXrSOr+TmHsvl4xZs00hrBfN4KejukdvaH/Rc88pwrnhariZy/e2lN2aK6oq/VTfkWWmOts5Fz7pxNIiporFUf9SAL5KxjnAf+NUzBs93bquxh+FY6LmZ8NqYGwe65M4fwX8j+sZ4EwnJXgtEbiI/w4SFbqVCVCJnWw/s8xreyYh+Iza2wj7BmFy4EHc06/hO+QFZuTwcwfJ3bkwtlnqc9c3p6plXXlpzL9cfx2u5ZDE6fwBkeHzTMk9ysC9KY70TsNfTSvEcyRdmRu7o9dCf8YzTklNco2biHd/LWtlMcZ3rAX79FLb7hjlHojXubLieLYWa5p27LO8ZmVG/2V+jQE7Nr159c3uNM5gd+6PsyNX1XF2z9nU4hrhZ14FZfmmVY/lvpPa2jq9wbnK+t8xJtmmk1eabF62fNVr7753XvAOp8L8f+6OUM9yX9zQsu9TQl2X0gNzH9VZN4X4lm/aOuTii+yywr1TYlh49OV4sBz6Er/V8bhzux3FIxv0tXW9zMkfRnOcG23P19Wh8GTiAFVw4uzZRZoNx2fnKdt/we5KB7Xo2SjZ60KI3Ase9BPxZ01kn7lkTJldcevHa2wr8o3JL+msuc+EF+jfD8RiFC6Yntqr7bmzyW4HMkfzXDQx+osaobhqfnsZxSJlYvRsbvaigtPpD+/c0ltEDZCA/LHnoU8tPrpU1WvzUgnc99aD+1ZZoM9U7JsZ4d1CHLF+VNq3a90h4LSuNjT41OH+eEdbPY4/F6PWMx1ecQ1oLuXEtWjJrs3VsFrNjz7bMIjcf94r+OIeYa83NXbc3rCU1SvpZoC901j0bcsZL6/gMX6tj8jnomiPJC29sG7BynG2ujdEC6+71S2t/XSs+nZZ82cXfo01z1wPHj/MQx3R+esbIXa9zIxnrgsdnR5AbW/N7GchxlgU/st9r47Bfc3WEr8eaDB9b9s1AY1hqlt5H8l8vTkKTF85G0+NHw8HH+KtxowH99LgF2/FssK09jF7PQFbJT+xLzZFcs4rtlrnZMQPVcZQjCk9JZk1/nENf9W/uut0ZYy+t8wr9Wd+VNvktizPg2tULZEAX9pGlj9VnpOVi9UmwPzxYPqw1xBd/t47JWLms8ngtq8E5xTpqU7sX5xroQe3pJadnrvWCcd4ZzjONs26Ucy0dXF+sPVtOZ9Ultw9gOc8I+1dt9NBSGzzUZLG+Lc2yrXRuBhx75MZmvHsdx7g+Wn+zPTNArbbyds+sDQyuQz+2q+Rb9UkvrXNL+2J9AizP0ltpHR9oLNUPLFfPPTusO+sPfyKX+W/uz+d0DrAsvubTac3DUd9pzFpB3WGsnF8KtUdRnTwN899a348GOZxDdR2pA7DVkrXJ42MU1iFHTk9L3gwwFtcQbbD5EeQ91YkWvJxh2u/opIajrcmni6vC11rHF0q4o+3wwL7t1QfXq809sK8trJhobHiylGTxRrHX9hw6vuqmTfuwbiwrTfDxTrbn7OYxc32ApVfO75xvufneAuvpgX3Nf7ONLbbvE25yqk+QB/gd59jHfBznOHf4b6tt8tEVlv2ptPqCY9ZLrwzOGYZzYjfepVOCc8qTQ9xm0eL/HPCN2s26wk7P/C6R7nPoXUFOqC9BLWc4H0d9XQJjQQf87hlfr9XjHN/1Af9U5WDbeuaMZd8INVkaD/hb/cl6WXZx7YOc2WjuzmyjwI/qNwbrewn4UfvBdj2+H1A3vf5AX+hk6cZ5UdOvdXzA9RA/E+25+Bz01Xzmtsv/gfjd+pmzKRlzqAfW09vWzIvypcb9Px32uSeG7MceMEd61jHoqtdZedNSk3vn4qPAfC/BeV7rm4PrGZr6vgRfl0Pn7pHAHtQ9C8/adiTTPaCTo4QG+0gwhi5OPH4uUDk9rYl8tB0e1MYeRq9nLN8pOR8rNb1UTq5fD5ovs9oMHT2ySucYyFJgvzIj3xhrXpVAfx7b0qNFLsenB/WJ6mjJb9EvB8sYkfMutPqitb8FrrdysITmCGCdWnWbkVOjzBg/5xtmxjj7RDnPiCcfPHmG86V4jMJjqD41Hfk898nJOtIOL1q7VU8Pln0jeGS19Mn52bJ9NjoG0HFzOiqt/XN45Hj67IU6mTtu+aOX1tzz9vXK9fZTNC9yzdtvZhuF466yS621P7dPpzUPZ/iu99rFqAm72GCdr9Hqg0fj0RW+8PTNYc0rL97rvP1mURqD68+j+L9lIrfbbUkpLeu6LsuyLCkl7fJQ1nVdtm37+fv7+/vX3yml5Xa7/fzdw7quy9fXlx5+COu6Liml5XK5NOnEPkAsjyaltKSUlv3fjXc9vdxut+VyuSzLXafv72/tslyv119/r+t6mP7QlfNnoRyDHdu2/TQ+tu/7j24jOnr8stDc9OZBae6OzpEWvr6+luv1WmyIAets+YGPef3Qi+qk/uSYa97OQsf8ZFp9MTInMb+tHMyB+cnrpwVke9H69ChKNnnAWpbzKeZzi29ytObKKwHbPH4q5Y7n+hnoGo61h4/VannJjoX2HmeuazV4b3G5XJp1G51vLeT2bADxye1PUPvAuq5FeaOwfN3rttTtfd+LNclLrbYxnjwtyarNhVlcLpdqA7X9D+dyz1yYAWJkUVuze8mN1wNkefXk/rjGe23wP87K1Z56yXU5+IfWKK1XPCd7Yqu+bombtx7oGEeTs+F6vf7Uxtx6dAp613OE1rfJ6l3to+72Yhy8XVb1K71qoTrmzgF+6/ijUFtK9llYdo0AWSM+4Rjk3vbMfY6A/QId+NiIfSMkx8dLW3Igdx4y9Pzsj6ronGtpNVR2DpxXWz3o/OGPKECelTcaI/4403b/qJoe4993iUWP7u+G+rhGa/9ZlMaETsinFkaunUXJtlF4bs0C8/DdQG0o1QXY7onX2vDYhFZ0rUGMWfdcbmsdzZ1jHv2Rqj1jo7V2lGjp6wHyevyCNcvyN8Nr1lH5tFPs2RbWr8fGMyjl894wDy07S3JbsWKt+xP+vWXfiH6lHLHG94A81WbpuRqP78A+jHXUxjK8bXZMFodf0B/6emkZ491hn3tqyqN8V8oxtiHXpwRf/+xAV53XVuNY9fhF60Qrnmu5T6nfkaB+5Gr1mUzzgCaABzgB1/QkjQfWKTf5LN01IbVg5WTh+CMCnNOXbanplbOrF8u3LXCOaAwA65zrMwp8yPJ7bTtKxxwl32CT7Jl/Vv70+iBHa/619md9czbXzudgXeAnPgZ5OJboBjXrNaO16v6OtPoC/TXHj2YtPE+JY9rKyLWzaPF/C7ym5XzXA+bmO8G+KsF1qYZ3zeiBdWXdeTyuq0wp53PX7B21YiY5G/WcdZ7x9GkB8nrml2ffpradyUj96L2uBuRhX5CcX+CKcyXQD7nB18/Il9LcsmDda6itFq3je/H4SfWz8kL7WHjGasEzptLa/5Fz+Blhn1t5oDzKdyXdRvPwqLl4BPj/1wPHynsNMzpXPGsqy++J3SiPHNti6sfVgfdttcsJb63FW7Ktj2nw242hM+vO16SUlj9//vz8XeL7+3tZ7x9brn0UYyb69mnW98+fPz/2bNv28zHgErNj0yPv6+tr2bZtWe8fJbJiwB93WtfV7DODP3/+/NKBPya3ruuP/2+323K73bL+vd1uy7quy+VyyfZpRT/CzY0/GrSu66/jl8tl2e4fp0/3j7NrHjHIa8B9/9W3uZR0eTasj93lwKMyvr+/q2/lXzsfu9BSh9+dVl9Y68WR/P3797C69Qy0+r8GamhpXejl7Nifgffjit5+y4F+wroKXXLj8D4L8Jqcuy4H+qeUpq3LXlhXXQ/+/Pnza/549PPEr4XW+YV923K3LXc99MQ8Povr9frLR/Dp9Xpdvr6+fjXsk7Bn1n1fLRY1bvdHDl0ul599Ybo/QiGl9Cs3sE+zcnu77+tzlPyrOReMkcv3d+STbH0nIm7/au92v7/ggddhqwYfTao8DpLrfyo8tuQo+H7b2WNn0buevfTcPeZrWq5rAbJB6RUK/bumW+nVitI4R+EZk22y9N5JTk5GK7XxcpT8y7D8WTrXYN1G26jOM3VZKvpoTPTvGbTKHOmfs7V23kLjYB1vkaew7JocT59PwOsv0Nr/DKyc8jJy7SyOGP8ImQDz9Z3w5nWLXz3yelAdWuon+uVsqK0VteuPwmMf65bTr3Suh5y8RJ9AUGo+Bi1xnQmPO6vN0N+SUfOl6lGD+7Vc56Gmq9IyvsbMonV8Lx65rfp5+lj50IpnTKW1/955zbviyRfmGX03moetPtjpmjNpHVPnU8u1YORaoDpY7Wzgm558OZJD3snpvSu+NPZtBa+wWne8LfjOM7+DbO14cKq+SnwG/MpCzq/66oP1KvRR+qpO+i5DBXqU9GH9e+LUi+q03h9Mjoa/9adF7riX7+/vX2OnzBc4bfTlR2g6du0VGI6h9U7oT6XlXZwzqMnfG75AIfgvWic/BbyraOY7qGu52gq/WhzU8cYSa6knXi19W2jdszEz1iO+rvSuuJlYezCLmk3eOM+gpAvOleYnr5dn7tty6zTvh3SPVNovrfd3Es/Q35KB8XTcxYi37vcsIGfGXDkT9k0pr5YD7OEah3f74h29ubXSOsbM1tGLvjuZG45rf+2n7aw6+Yrk8iB3/JPBvH7mfBrd73jX+hy3263on3R/l79nLZgJ1tUz13I3etezh547yLjry88YmEnulQTvKxTcL/fsg9wYgM/3PL+hBX7WQ20s9Mv5oHSuh5xeJf8iL6xzoMXmmUC3RM9FavHVWTqzf3L61XLYAv25leLUSqtOrf3hlxI1vyn6rBW+zltzarD8wEfN75q3tf6PYCTurde2ziUPM+V51oVR4IN3wVt/PH3AzJgC6Knrold/Xpdz1PJb6/iRebY37hFVN6VmWw8qj3VQ+FzNb0ft+2tY43p8vz9gv5mbD4BtqfkbaA7N9H9r/rXqsN2/ICiHZ/572e5fJpTomajsb9WdbZ/VZtjBOaTyc229P/dVj5eaNa8+FfadNS/hK8B+fBZa1iWL1nzQfFsLz6ifydIxz6AfdG25Xu30omtPy5hnsBaeawpfnRFPC7+XM+iimTNU0WB7r/MCuepYT3KWNnIM22ChvsmNNwOPXaBWhEvneoA8jrEWej1es0N9O0vXElpogFcHtm12vlvweBZsT0135ui5W8tPpTYPe4C8Ug4q8Ldew/rxOY4Pzq30xQL6u/rc6oPfIQ/HPX58Ryy/A+Q/n2P/Pgsc91Y0v7bMN8ly3nCbkTe9uivQz9KJdR8Fst4F9k0ur1vWglydG6E0PuufGxPX5+wDnjzReXAkPI7abVHq67GtBUseYq/jc189x3Cca31nwuNqjpTqCsNrcK3vKKX5AHL21GD/5+ZTD1a+lGA9ZtBj07Ztv+oZ68RN9198fCfbc/1qcqzWYkcOleltLXpq+3RK6xXO8fEjfJerGV5KNngozaWWdiTeuq9gbvBPL+oXL7l199HwOmXB53N5tMn/JLNttDVrQIOWM0Tha1qu82AVEsDF2zq/NyQU255D/XMEPEbOJiXX9whdVTckvvrXu4nUidNSZHrhMa3xcscB27aecNPJkxPoU9I7B2SX5PfCunv85JmHrfTYBj2UXM3p2Uiu91fM9Hit9cT4HcjZn8t99G+Je400uHBzHFvRPKg15Bbq6gw/QO4IrJeFp955yc1jD/DZqL0zYd8smZrqraFce2aC8a3YeWILvSzbmB47c2OOwrq05EtOn9oc6YF9hT2Qyse4a2Vfw3uoHrt7wXy0dAfe84sjx2ZQyz/OnVZ92P8z8c4tMFuPkr9ybHSTM9dW2nOt9EIy+51tZz246Th6Xvu02JFDdfLQ2n/vvMbDdr8B0prjjyQ3DziHmNm+Q06PwDb0yGKbkNvgWWLZ63NrrnvRNdAL+rPvHu1HzRHURtUL+ZjLI62LuX69+L2cQRX0FGYNdEuwa0C2OhrwmFYfXO9xdK6YKbUxR2BfenSucURMVL/FyJPcAqBYueO5bgQeU/UGpbxRnWfngIUWYi0+rFOrPmpPzie9eOcVaO1fg21rxfKlLgYAfkzGBhjH0bCAaH8c5584x9daennZDn6l7UjYl6A0V63+I3CMe+GcaGXk2lmM2o+8R0Ouax7O8PVO47WievbIOALOd/xUoLt1bneugb1AtsYTsF+tsXHeOqewrBK1MUc5wp+z5e3yz5XGqMUG7ov+m7yL7gh4Xc3lF0A/a4322jkT9g+PP5Kbao/HL168cwuwDjPo9QnrjYY1Jhl7KguVYeGJm6ePF421R576wYOOMwvVZabsI+EYYm7l8ucI32H8EUbzcLZNs4F9PbbttKfVOHvo8Y2uA96WjH3yDLTeaeP6WfM1X4PfZzIsjZ1ZMoRRB82kNsFr49auZ9iOErUxR/Dq4OUIXVmm5d8WG6y+1rGZeGXn5sARPm2Bx4cO+ncLOn97ZJRojWdr/xqz7WL9NDe8sE65PDsKHnumX87A8rt1TM/NsnFGrEZ0Grl2FiP2W7WGm8q1jrWCMVuxdB3VZRaql+pWylO97giscQH71erXohfLqlEac5Qj/HmEvqyn6toyXk5G7dwItbxRrP6sm0fGEbBe2lrR63vlWLTMrf2AuPfKsuLecn43YmTR2ic3lhcdzyOP++d0VHScWaguXhsejc4D/VuZ7TuMN8JoHs62aTY9tiV6Ryrb55GFczpXWq7X/i1tNirf03L2ab9lsr7Tvl299o13DH+z3OxvmSt9i7Wi33DG3xA1E68+rfA3Rbb4P4f6YzaIDX/D4+Vy+fH5v3y34b6L2ItvF1+WZblkvu2wB4y5OP2LvEkp/foGRuCRcQS7fCsof4Nia25er1fzmtI3vn06o3Fn32KuYC7NyvUcuW8DPHrcI+BvJkwpFb8F0MrxoJ/eOVCLQ0rp1ze9LhO+AfMdgU/YN/Ad1/Rt237WLvYp6I1jjd6YoQ4dpdcyoFsOruelPU8LZ9Rjaw/h+WZx2ItvIlf42Kz9G+d0rdYD3kdiboBHfmvs9/f3su+76bvc+qzwXhZ7B87rV9+/aZ1qAXH35LKXWg7PmvclNF88day23p4F5/Wz6NTD19fXr7U1eAy8n9H/f63jyuV+70HXBYZlcf7iWvzMUcoP1Cj879fKzPoO23DPBmtTybbSGqz2lOR0oXc9W+C7y7m3YzP61uzcR6OOpHS3GB9L8L691/v2Wtg9097RV1osjpC5G3fqAd7SXPO35k2uv7efB/ZFixzVoUfGkSz32LJu3lhb+aGyZthpjbPRs3mSfHTaOw+9QNas+WrZ48HKJfj3CL9bQAf4u8eOR8Kx9Oju6dMCfDYij+Pcysi1s+i1H7nHuY35z3ahtazdJZArrWgt6rH5KLiW9Hz0aVYt7CFXd3C8RTeWVQM1bybs+xm5CtiumXI5BxiPX1in2tzUee2Rn6MnLxjVW21/FNZ+AK3mW+6bO97rL6B1uaXOjDJTluLJS7V9u387+37382585JTP43fPWB40tl6/qB0edKxZQN6zrqk54ENvLGf7DuOO4NU9x2ybZsDzTI95bERflQFK59LEvQTm22o8B5PtScZj0GZRswXj1/oxJf+NMGS1ToSSI7UQHmGMByvgrFsLnEA1Ztp7VNHXeM5iJO6ttmqeea5h+PraxtyCCxB+9sg5AvUNNxTLHJwbaosW0pIcDzxWaxvliDkwmsNL5h8Q9bvVZwaqi9eOZ6BVb28/L8inkdiw/q2MXDuLEftnxaEFxOzdsOoq1ietJWiP8L9i1WReZ1tgWWei+4rZcPxmMZIHrWse4PjU9iRKon/qdI/iwZof6oMWfWZizQGds5ZuupewUDk9vtuNuQV/5VpNL1DTh2UdMbcs3yvoo74cabmxPPTKaokL8ORYD9v9Zg379Ij4zkZ9WNN5tu9aY27hyfkSs20K/sF1xgvPz09kyGo4O1fgV2PznBzv3DsSa/IhCVr14kJwFuzPVn1L6EI1S7bGvwVcuzbeJFRbvAWhp4AAXYxzLdE7EM9iK7zbUXXWBY3tKsVB5ZT61uB5xTJy8rzzEL5XG4HmTa5fK6xfSWYuh0r5qH3Rf2aObfTKoMeOZ0HjuVTyYyd/lnzeAo/dG48W/ZWRa2cx059ngDn4rvB81ppTq5GPQPUDJR1z9Y9r2FlwHWqdB6jl3HRN5DneKj8H+6nFVyO2Al0DS3EGLX0ZzAUej+Wof9m2M+aKjq85zbqrv9mPep2iPmcfeGmdWzxWDis27HvVu1VnD6xDTr6l52jLjVXC8slS8K+idlhAN7TesVoY8cmZqO91Tlpo/814dyHP33RfA/SYFY9ef3lyvsTR+fBpaFxb6b3uHRiymp0OB2ow9PyjadUHfa2JzraeQe94GgfLFu0zi9q4OWbo0jp271jqOx1Lz2s7mtpYOd11LtdQu1Sel9Y89/ZX3WptFiyT/aHj5VoJjVGp9cRCmSnraHrsb+2fIxeXHkauH7l2Fo8evxXE7lN49vjwXPLMSc55ti3JP4FnMGO8XC2x2ixYpsfne0ecShxlF6NjlMZqiQG3kfjrmCUwFuiJhereen2rrS191Re5dgQeX6p++re3ecbKobLQWvBcq320HcGRsmeicffEUP03s/Uykof7k+w734lZ8fhEhqyuTaiUeTX9kZT0tUjGK2PJeMXkaKADXulpJfeKtdU8rz55YbkevdnXo3qwrJ7CkAO+1LwojWP1zTXkl7ZWON6lvOF3C2AczZXctYpex+N7bWAZHtB/VEfVdxZWTs/WwZNfXv+UmCnrSDinW3zp8WNv8+qgsIxWRq6dxYjtjwBz81N4dH7U4Bz21h3PfudouJZ49S5Rs2fmHLP2BDm8+4wW2He18b2UcsI7Ru/64JUPWE/PtSs9nw3XtcZC18xWOfCNNw+9cpmU2Xe3jNuKJxaaV714xsqh/lg66o7n+lyeoM2Gx3sFWn2huTOrWbHzMlp/WY9gnFF/jlz76nRbrROzZyI8gpFkUZvRjlpc9wnFxiJnx8wxgHeB0sV9pEAzs+xKxo3thW7eefXNycm1Vvm7sQnx2I5rWLfevObxYW+LDch5j977fTyvbMXaMHvH9aLygTV2z8YfbPJYghkyGeRGb16cDeeh1/6cD0ca8r8XltXKyLWzgA9eBeT5J/AKc5pz2DuPGWu9PdLeI/ZsjFWfZtV4paR/khtOM8fXPUQrm/GIFW4416szrrdi0au3rj0t+qmdrWMzvdfC52fAfjpyLu/O+az+98ZN8YxVA3nUcz3bUNJB+/WO52G938B/JXp8gZqCumL91D58nH8fZTQPOTeCcUb8yWvpJ9JtNSYYJkPPRDgbDvZIwFnGMrCglUgH3fQD6ov1oE1yCRRktnM2kN8CLxoaa+g5Q1dsClU+4tEK69waz9F/KpQRGdvATcseen3mhfNI48r5NOIzBnmF+jzDJuRHOqAWHU2vvvBjS8M1s3KY5+XSWMf2CTeIZjCrppxF6lgzXpVX2L/NyGGWcYStG92g0hp/BGzLEfbkQH070pegxTb0PXrPlkPHbskBvnZteFGb1/mjY/FswG6Pn0bxxFXzrlcvzdlH4Mk/5N6RoKbmfB4cB9eUWi4ovGeN2M2B60trPD59DnXv5JHAcPyrMGMBge0jMnKgQBwln8E4rZNmFC6CPUX0CFgn1g3tDDBWa0FSnVv8iTl8Rr49K9ukG1I5ztgQHgnmxivb8KrwetCao2euJSWgw6uQPugmJ9aN1tw6kxn18+h1HDqe5ccjbckBG8+00wPrdXScj6C3Pj9jLN6ds3x91jjPysi+Jxhnm/A/0ej1wf/AfGiZE4leAPP0f1cu+7+NbhO3221Z13VZ13XZtm1Z/v1HoN2ektvttvz580cPNzNLTvA8fGJMP9HmwA/X+r9//+rpIKhyuVxeKn+u1+uSUnqZPU0vsHN5of1bEARB8P7E/yZB8Bvesy3L8ut361hKafn+/v51/tPousmpju4QEQRBELwA1+v14xfKoJ/L5bIsL7RPeDV9e4mbnEEQBEEQBK+D3oOziD3dP/5PDwRBEAQBiBucwQh4J/CrgM3j9XrVU2+DbpJvt9uv80EQBEEQBMFz8f39vez/Hje57Pu+pJSWlNKybdvPseAfXe/k/Pr6+vmY+hJ3jIMgCIIgeBM+4aNyt9tt2bZtWdf17W0NgiAIgiAIPoeum5z8DofYIAdBEARBEARBEARBEARB8Ei6bnIGQRAEQRAEQRAEQRAEQRA8C/FMziAIgiAIgiAIgiAIgiAIXpq4yRkEQRAEQRAEQRAEQRAEwUsTNzmDIAiCIAiCIAiCIAiCIHhp/h8GCpY1zEYqHgAAAABJRU5ErkJggg==;" vertex="1" parent="1">
          <mxGeometry x="-2103.0044444444443" y="-577.9981255425347" width="1337" height="65" as="geometry" />
        </mxCell>
        <mxCell id="yBlYgujM2W9td2w1A4_b-15" style="edgeStyle=orthogonalEdgeStyle;shape=connector;rounded=1;orthogonalLoop=1;jettySize=auto;html=1;entryX=0.5;entryY=0;entryDx=0;entryDy=0;strokeColor=#DDA15E;strokeWidth=6;align=center;verticalAlign=middle;fontFamily=Helvetica;fontSize=11;fontColor=#FEFAE0;labelBackgroundColor=default;endArrow=classic;fillColor=#BC6C25;" edge="1" parent="1" source="yBlYgujM2W9td2w1A4_b-12" target="yBlYgujM2W9td2w1A4_b-14">
          <mxGeometry relative="1" as="geometry" />
        </mxCell>
        <mxCell id="yBlYgujM2W9td2w1A4_b-12" value="" style="shape=image;verticalLabelPosition=bottom;labelBackgroundColor=default;verticalAlign=top;aspect=fixed;imageAspect=0;image=data:image/png,iVBORw0KGgoAAAANSUhEUgAAAysAAAA9CAYAAACtMPZHAAAAAXNSR0IArs4c6QAAAARnQU1BAACxjwv8YQUAAAAJcEhZcwAADsMAAA7DAcdvqGQAABsKSURBVHhe7Z1rkqM8s4Txt7HBKzNe2Qsr4/wYp092ji6lG2B3PRGKngFdSqVSSQIh3/Z93yfHcRzHcRzHcZyL8T+94DiO4ziO4ziOcwV8seI4juM4juM4ziXxxYrjOI7jOI7jOJfEFyuO4ziO4ziO41wSX6w4juM4juM4jnNJfLHiOI7jOI7jOM4l8cWK4ziO4ziO4ziXxBcrjuM4juM4juNcEl+sOI7jOI7jOI5zSXyx4jiO4zjO5di2bdq2TS87CX6Dvq5Wx+fz+Q7fxJXqc+pi5Xa7XUoZzu8C9nc1x+d8P/f7vcn33e/3y9rttm3T8/mcbrfbpWRsmfhu2/Zus2+clFyVdV2neZ6n2+3m8wUDz+dzWpalyc6v1m8Z9EPYxFVY13ValmValuVr7BS2dLvd3r7vVLvYB5LLfpqmH8FxjkTtb1kWjeI4Q2i1u6v6zGVZmus2CpatVC6tV00eTh2q953aw9vgJ2qnpbT0kdFo3a4k4xVlakV1fXbdbvtfobqxbdu0LMu0rus0vVacf/780WjvVRsTi+s4Iwg9mencHRwniNpeqe9rTT+K+/3+9v3gKn1KdTZN0zTP8/Tff//p5SC3222a5zk7tjl94XZblmV6PB7/zDOWZZnmef717cG6mud5mud5ejweP+KkCM3LrtJ/t22b5nn+ca2k/46E9Z7yC3gr1Jt1XbvqIWQHp+taVy+1hFa9qdXYlVfwzucxz/M+TdO+rqveisI2Os9zUdqrsK7rR8r9m1HfV9p+6mvnedYop2Lx/2cAXbFsVt2v6/ojnXMcKb1re16tLxxNa59jfdbmMRLth1NBHx4Fy5SyP/XbvUNPNO+zdbzv+15dw2VZksrH/Xmeg0bP8RynlXVd347WalNqr58I5Hc+B/jNWptjv1ubx0hC48LZqEylDycwIUE+pZSU5fzEYkfw/anJ4rfDNl4L94+rMs/zP4vUM/sX6z0nB8vcO/QaC3h8QqilRx4ga9Xruv4oUBWEUOL8eSVqTeM4Ftgmc7bFcT8VyN/DGTjHYLXPGJ/Q5ty3rtDHIIM+0FAZc4EnSTphyoUrt9eVYR3G+gxPsEAs7rfSw8565DGa0Dz0qLYOlcN+IAfPpdVWOeAax9OydW7eA56bQ8+lfi4Ueix+k9oNGQXCLk6kRFmcr+P0RG02ZZdqz5+G1tX5DFrby2LbZ3M122RZWB69ngtar5Lg1GHV4SR9ouck7hOw6CiFVc9X4AwZQ/1Zr8HmQtc/AZW7R+hV9+TRxY/H430c22th8w7T66O2GvBRXO2HRqcen+ZcGtgsiB3jGLr26Xxjnb6VHr6v5MPZo5nn+ce4cSb3+/3H/+EfSvsLf1zvnEOqzdZ1ffcJfCAc8//fRs+jcq2+qUWvLWmnaermU1r0pocZTC/fUjsvPpvaNuG68/9Br3Gq6TQwPjFgeZ3SkYPT1BQNA0mduOA4fCpRyDb5ZJHTT7moRE83CtXTOY9t235MoCbyfzH/tW1b8DrgSViurWHjsbJSwLbm14lCpaDcx+PRNCFAH27pnzqp4Lysp/PwCWDIo7Reufb6dGDvveHJn9UedcJo6S+fxP1+n5ZleffrnF/R+ErJXI7Hzlh5KUInTZXA4zb6Y0t+ufoCHW+nV9p1XbN2r2XgZMFJJvfqZ/AX4BrHK9V/CK1bbb7ctuprWzl8saLHEJbCaWoV6nw/7FBDtllju1cC9eNBo7dzcNrghcX0mqxiEa1uV+11jhzDWrKIaBnUdPA6G9WXBdYpKNUDeD6fb31+or84gpC+z0LnCVPjgvdqoH/yGMZ/GfYDMdvV/o5JsYXSPtW6WOlNTCcKfABsXH1wqk6av+q7lhq/qKgspe0Jhs+pdF9YCbw3z7IvjeNbP9rJxevx4Y7zncBG9MO0vcJ2lZo0PYH8uj/WuQ78sWJNUN/G9xY6aREBp+TEfGaJzWramqC22RJqQPklH8DGaPUXTj2s+5Av/41w32A/oH0/do3Rj6r1w20Nmp/6qRzcnrUBsuj1mlBrU1z+GTqYGvzZHhifSusAYC/Ix6JPSxxl2JsVrEL5aQY/DahZdekKcGrIy/l+QttwQMp2LeA17llP6263248nvaCmLs44SnyevnXm+DVbL/gtzJLYAhJC3wqVgnT8FLKG2qfius0T+dQOd+wvLPrPbedz7LT66m+kxK/kfAfe9lrymjps9eHtglre8/n855rCvglB0+T635O2cGpaK7zVvNSvtNg0jxOl5YKYf5zkDRHeJPEbJR0XMA/he3xfqa1309KMV1O8Wg9d52s1hPJ0nFpa7KnVlnuAsvUJTWldnLGU2Am3o1Jjc2fZxBVsknVl6essL+IhHf9b89XrGsdpx9J+v40SfeR8R+peiLPbQ/vdGTLsEX9tlSXXJilC5ZYQ8ll7wAeODqUkTwObXiuwbdum5/M5PZ/P9/8neuql8fn6uq4/rsVWXM/nc7rf7z9WvAynL1qNOV8HbLEl6JMBvZ8KnPZ2u03PiM2O4vl8Rp9Ux/qXcy4lNhJqQ/i/kM+9KqF6HM3z9YYfWMcOfjoYelJ4u92C151zwdzEsQF9fZId85P8s2A7w1iMucHtdiuaF1jjtXK/399+i6l9OzNVvDEvjf8DXb0woRVYS0jtidOyGOyRdJxdfoTJGrCvN7SnH09qcA+2iGu4z/E0f+sTlR5AJqCy1OwHdcZQYh+Iq7A9llBSdk/Ulx9dPsrlPp/rGypzj+D81WtM58y6rvsc+WFpbpuULaGtfwMWfQDWn4IxrwRre4xCx98zZAjpQH1ISq5QXGvgdCXoNyqT+EO+zr5Ty8f1lPw6j1K5S2Xf98yPQu6RD2HgWBAgUCju/lJCrkNwZTgfKDiWt/M7abUH7mSlsK3WpG9F+wP6IPfFK9HaVkexvj4U7AUPDhZiNmXxnyFi+Y1GB6Ya2WthnfOAm9MFZEbcWs6o85VhvcdCaOKjpO4BbsMlMR/pjaWc3vZg0Qfg/hi6bsmD4fxK0/aA551nycD2ClgvqmtF49aGGmLtXpIv9zWrbWudS8luAwt9pPTnz5/ga7hQ3JrXjJwPygrlPRps+8FrPQ2p13e8dY7D/X7/8QoR16x5clwEzRNl32634a/FIXNKbsjZkxZ7YJ1Yt4XEaE1fCvTI9eePJ/mvFbap+/3+/j+3qfaDu/zQHqN2Os/z+99qJ4iXyq8HqFfKVrGtJ3a/lBYbBZClxH9ejaZX/wVsgaNzH4/Hj2t6XyntOzFy5fw20LdCdqy6SrVBKD3AvfX1sXgqbi/ur9/pYf/2fG2X5zjYDn8VnvSR+tFjWCtnbwPj8aHGxrZtq0oXosamHo/HtO97l3Y/tC109WIFq6PYKg1YV1Gx1f9Z6CpwibzKitV7l5VqKE0ovylR/1C8kN5C8Uag5XAI1fEqtMrUmr4F1i0I2VEJmhYh1Iah+0rsvl7X/KZCuUvQclKhJyV5huJOAT1aQX616WtRezmq/Fg7sjwxWVTmWnLl/Das+mD9h7C0jSVOb7jMXOgJ8szpdY/olv+/vOY2Viz9aSSq16NliLVpiQ+BzpEmRqxtculqsMq+V9pAiX5CZN+shMBqbs78cijiHbby6gRWvvM8T/vfrXLT4/F4r0j3ff9xjFtsdYu4q/wKKYg9bQo92cU1lml6rZKRnp9kjyZWZ7C8PjRjPV6NVj21pi8lpvPWJySwp33ff9gi6ocnlZZ+zG9IVC6kh22o/9B+0Iub8a2eytOTUJ/OwX1+etVj9BuoEVjspgeWcqx9Fm+nS4LVzn4TVn2zb6iB+5e1zFZK+qLFNkcDvWAcga7h957yRujKHNXGCuunRQbMJzGnjIE4Si7dUcwFPx7ajK5eLPAeed1vqvs3ddW1RD6C41XX2XD9YpSuLBEf+2k1/5QO+V6sLOTHcdZ1/SevXrA8rAvUj3U4SoZaVE+loL616WtBuSF9skwtsnFbIh8uj++pHJw2Vj77C7Z/zasX3NaxAFl6y9D6zYrqmGW1oPkdCco9unzonMtku4y1McfpEY6s85Wx6iPnk3NtmLvfG9iZ9k8E9nMj5LHqdSdZ4TdC/qNEXta1pfzeQMeQ4UhQ5kzfaqyveRbrEHpc5Qc2e5NrqxJYdq2LBtQf/1eb5zxmmvNyKKU8BU2MWWAWNtQZdhm8kQao8YWcwVFYFFraYRGfG5SBUYfqa5GH41jkaQF1SIE4ofqcjeqqVMaj9KxYbCDXB3OonYYI6Uz7tt4H3G9qZbSCslLthDgxeVvJtRnDcZfI4MZ6zsmMeKF8rMAvlcBtXNvOpWUyqhf2uXoPhGTWa7gOnabitsj/TVj1kYvH+g3F4bY4ArR5jNHjn6W+KBs+IyXvLjpOyZ1rCytL4rSpVEC9WQcaJxdS9UvBZeLfHGLXQ2Gm00eRLpWe42q82vowLJOWHQolcRHQfpNxTGSKU7CxsKC7YcLCgiKP0L29cFDuDddriXRGli8Wh9G6W7GmY5lZryNYE29szmw3Cyof27NV3pJ27wUPOLGAeuRsJYXV3hRNF9OlxhtNrI247WOytqL+0BpycFvH6rd3slOVrSQsgadtJaEXnGesrXvZJdK36PybsOrDEg9xdHzjdkul703MlmDzI2XhOpeEHNxfY/XjvtJSR5WtJEDOWv+iNmTFUl4qzt5Y71joAeeHsWWmBRUHXOc0qfvqX2tknkqNDRVZ5bUXSBkyx1dj4XQM0hwJJjIpeCKSi7s3DIbWdBzHIs8oIEPM0Z0N9Mn2pwuYHLm2GIHagTWUouVY0XQxPWq8s4BfGd1XuK5LYIHJgeOl0EVQTNfW/FJoe1kD0umAVhJ6YclT61kL0rfo/Juw6sMSL9Y+setngElarE/2AvXlcQy6Q9n4y7adg+PqHA1wnJZ6cruVBOhY+2xJSNlZCswNtd64rmWstBUMqI4XmuDjb0hejcv3e1CSH9fBqkvVTylFn62ocFx4KF7qulYwlheua/yzKW2s0vjA2sAp3R5FTsYrENORtX1idjqa5eWkcrAd1Mho1UMILjeW1mrPI4EMR1BSzxK9WHSdu2+ByykNremRRyuW/HrZJdK36PybsOqjNB5o8Ve9gSxHyFFSZ9aRBcSNxS/NLwaXUxNa8xiBJf9cHIsvssQppSS/mvJr0jD/+ytjntApCLmTO/i0BD1lInTCQQjEWxKnbo2GT3tByNU9RcnpCaqns3SQAyejlNTtaPjEGIX1jJNRroTV3nD6GrhaPdg+rHXqCU76O8JOR/ZVbuORdWFfXxImOc1M7+dCz5PZUuNQDP5NHg24x3/xe0HOMcC22PZbTmdq5fn63ZJ5nv8Zs7+ZlvEFfX1d12mnEylzAXpGf1uW5Z84obC+fhMEZfbGqosaf3RlevnpLLp6iYHXTvxqkF9FMfraazfshUyt1nnbg+Y7Cl0F8iu4vUImzs8Sn8mlLZWlN2jbULteCW7PEKzHmC5TdjoKyGXRr9ptqA4pcraWI+QngOrXUp+eoG5HlltiK6ybHJZ2yt23UKsrrktL+T3gsScmi/ab1hCy/9+I6iUXYu0D0E6IZ003Esh0ZJuX1Jtt20JsXgdK8+uN9lWLDo5A5YpRMheO2ZS1LCul+fFYHpNRKS1DMaVgwVi51oItk+lcB8g1cE94whWT11Inhutnia9oeRxa8m0F5Y9uk1aseuJ4oU6I+6k8eoMyLeiCwJoOWPWUgvV3FTuFXo4sm9vCQkmbsT5jfS93fxTcR2AHZ2IZO1ifkJlt1xo4vfOvLwArHdJSMvHRcTDXrqM5w6/shYuVUj+E+DGdst7PYJFvNiw6OAIde9UnQF85uw2l0XihOC0gn1lO+U0Fa7xYKMWUIpY5F6zKZHjyHyPXAdQQRpGTA6jTzMH5WuIrKaOoya8HKD/V9leB9ZUjpdfUvVHoQJ9D7aOkfWrtdKXz5JGe+z3unQFkOrr80kkCt5mFlD/dT+yf6qtzco7GMrFhu7XqP8RV6nwVrPrExCfWPgzrONWmo0lN6uEPQ/d6kLNnhm27B9yfzkAnyRYdjALj2mI4fpjTxOJwsMRBaAX5qB+MBbRBiYyT5F+KKQUKUViIFJY4lkpopUdgzZ/lzcXdGwbD2nSjgVyxuqfuHU1pW6Xipu6NorQ8tZnatCXpassbjcVOp0H9inVpgXXYg555laD2d4YMjMWmVeZaeuTxTYzQBdpxRN4lpOxptB0g71j5TG9dja5bDu2rFh30gsstDaV5aD019GxXzdsacjKmQin/029YFHw4XfvRGD466vERDn+Y1CM/5aiPnayy42Pg6fUh4V+bOh/ItSxL0C74w7ejdJqC9W35CBMf91rijgb6C+n5KkBGfOh4JVnR9iGZ+INI68eRtYzOXzm6vBRX6EfAKkur37L6+G9nxLg1z/P7A2mLnkf0hdS8qNV2emO1+U/hrLHZYkdqj5hL6EEQFvk1LyV3vwXM71JhogMuUEeNg7Cuq6nOMe73e3p5g1VT7FVmbpWE16SWV+KWVaJuL+i9orY8gQMlcXeJb9HHTmmuhG5/i9nG2a/oQe9X1iVt3oPl9cq4BO0nJXUvtev9ona6B75VCNkqZLfWtQTWpYWa9opRWnZPWKdTgb8bBes1ZAN74Glta+hdZ2wrSvncbwP1VaBf6DrHlGj3GthW5sgWV7SXRb4aUL6WG6K3L2A7PwNtf4sOesF1z4UYHCdklzp+h1B/1YKWZ9FnTfk1aXZKl3yzglXRnz9/9JYJrL7wt5VaOazo8bUxcExhiPv9nn2yUrrCvN1u72Mzc2Ek27b983Zrfh0h+Hw+f9T7v//+e//7LLZte6/8exxVyEeThp6ojQA6LoH7CdLmbLIHt9vtfYzr83Wkq17jMFKm2+0WfJoFWwWPxyPal3syum8qR9QpxxVkmMTfjh5DQGmfzYEntPAHeLL/DWzb9vYJuZ8HCB0PHbqm9Gj3bdv+kYufJvM4/RsItc8RzK83a2eUjzK5P+50PHIPesxVSmgtr7evi6KrGCa06mNSqySshiyrtL1w9Y94Oflq4DrhqQlYIh9G8dOVmFxcP+tTN13xlgSr3q3oqjgXoKezYN310gXXbxT8BBU6jz29UzittgPnoflwOrZvTROya6Dtbw3zgF97DvXRXFCd9IDbwQLL00rPvEpBvfnvmViewnNbqczr660cB74eyqNnnZHvLB+1fhrsS0J9FP4m5A/Yn8NnsL5jYyrS9UDlDNVBQ0yuVpC/xc5K/VCKUTZeguo+ZC+j0D7PqA+JkYtjsWtrWRY4H2teNXZQK/O77+uNEmIFw5Biig5R0qFK8y6BnWIocLkhZ8WGrPdiIdXYS8K550KsU9WgeWKwUAMcVX4Jls5eA9dtFLl2TtmKxmUd6LXedrrLZETT5kIvULbKGpMLE58RaHmsn1DopQ/OS/VwBNwG0PGZWPTaS/+j9M75oj/3LqMVteeQ3+EwJxYnDLeN2hKXofd2StsDlKVonfHvkaguraEVbovRdYwBGfA3Zz9HwbpJ6ZrjQIewmXVd33aGvzzXQhxrWTk0H2teNXagZZWwruuYxUroWg6uyBXQBozJxR0nROre/kpvRRsbxhu6l5K5lhJZz0L104uazvlbUVvENUXj9CJU1hmoHkpCC2fbKsrfDf7vCCx61baqZZTe1T5a5RyByhYLJVjahe+r3tkWvwnVqTW0wnmpro9ikYc7Z8mhWGx1L2g7zU8D368llKcFlc1CTRrmtv8VuAreK4ps7vf7ez9hyb7+J30H0iDS14LvRbBnObUHl78tWdc1GfebYBua57nrdzOcd6lt/yagJ6uOav3FJ6A2o/1227Yf/w/5UwXfYcV0FfquLBY3RGy/vcqeA3XB/nKuj9Y7BOI8n893HlPlt2IxvbIcqreY/nOgrJDeLfWOwd/fXXWcZHtncE31kQO+YcqMY1ru/Po+7fF4vNvjarpqJWVnimVuxfYFtM9ze0yJvGKoP4RPnMhPWL5/WNf1PWZAHku6EJABecZszILaYUw/6htr0LSxslJoe04F+VjqirHk8XhM2+sE2SaZdfVipXSVpK+ydAXXY5X4jbBeQq+5Y2A7m+r5W+FXp6V11q0Eaqe6ncH5F7bTUv2X2vanUOrTLPrjbQIc5siPdJXCMreGUN9pDTWE0sfkUl+g91tDD3rm1Rv2nzXoFpfZuE0z1i+urKsWUC+LnqHPnI+NjXehUAPmJD0C7EyvtwSLnaVQeWJMAX8NvaMNQoHvc9pUWSFifaWk/mxTsfI1f44fS5OiPMULNTwLULRWQDuI8xfWVc7RhIBuv5lWHTGxTsyhtYxvhH1BjX6+1U7ZNi2U6iHmTxFK8gKp/K4Qagil13yPCj2YKvvZ1WHbWwzfsoRQ/82TwW+B9WTRERaAJaTGwtK8gM4ZrxZq6wXUd8awxMlhLStEqF1L624pX+NosNgu030bmJXQayFQmte3oq9Nc697GaRtfbV5VVQ3+sq6Bd4Swq9bS9vgt6BtUaojHAdamu7qwMctDce/W9AtTLwNphRuS+SD7RnWbRo5eOsG5xnKX8eHmq2dPE7BzkLbXkI8Ho/3VrQ/f/5M2+u47fW1FQ//n+h4XI7DrOtaJT+D9vmWMRJbRdjmWnWEtkWeU6d8r8Tz+azq36XwVqH5tQ29xZehvRnu89zH+Br3QQXxkZbzwL/Vt2jfnCq2KSqWrVGT+KPa+Zlu4YqVlaJlfLLUNTYuTbW61tWLFV011aKrrdIV3jejT5pKQNpvpIfd5VC7dOK02Ole8UbB+Re31Tism0+2M/SzT64DM9rH6hzlW/R2JKxDJ43ac8jeetmkpawjWDJbPnvKlvxRSAvzPAdXVTXMlU8DnX8JPTn4dJ6vHw3DE55edhcCeS+Rt39OH/gjPKce2OnIPvEN6JubT4GfDn9DX8GPWo6028fj8X7DslT8uK7z/29TRrTPtwE7Qwj1U9jkvu/vt7M1sF3HyjqCx+ORLHvf9+T9Epq2gfV4FQkn3JrPN8Kv0UpeY+MVYe0rxiuD17zOtajZEvrtWxUdpwfoJyVjgOM4zjfRtFhxxqMLltiTNd376xNA50h0nzj+TvTWRG10cjt1HBM9Hgw6juN8Kr5Y+RD0g6YQqcWM4xwBFi0IIWDHbqeO4ziO4+TwxcoHw/uY/em0c1V8657jOI7jOLX4YsVxHMdxHMdxnEvSfBqY4ziO4ziO4zjOCHyx4jiO4ziO4zjOJfHFiuM4juM4juM4l8QXK47jOI7jOI7jXJL/A3wTNnjjSJahAAAAAElFTkSuQmCC;" vertex="1" parent="1">
          <mxGeometry x="-1840.008473307291" y="-455.9959033203125" width="811" height="61" as="geometry" />
        </mxCell>
        <mxCell id="yBlYgujM2W9td2w1A4_b-14" value="" style="shape=image;verticalLabelPosition=bottom;labelBackgroundColor=default;verticalAlign=top;aspect=fixed;imageAspect=0;image=data:image/png,iVBORw0KGgoAAAANSUhEUgAABekAAAA+CAYAAAC/W5A2AAAAAXNSR0IArs4c6QAAAARnQU1BAACxjwv8YQUAAAAJcEhZcwAADsMAAA7DAcdvqGQAADbeSURBVHhe7Z1ZcuO6EkSptzHLKzO1MlMr4/topW92dhVQAMHBdp0IRLdJDDWDogbe1nVdpyRJkiRJkiRJkiRJkiRJkiRJDud/eiBJkiRJkiRJkiRJkiRJkiRJkmPIm/RJkiRJkiRJkiRJkiRJkiRJchJ5kz5JkiRJkiRJkiRJkiRJkl/B8/nUQ5fj+XxO7+/vejj5weRN+iRJkiRJkuTSPB6P6fF46OFvw1bZb7ebHkqSb8PW+D+LrXUn8/b6bPXxlfnJun030hfXZFmWy9fpZVm+5MwY+h1c6ib94/H4Fu9mWWyRfcvYJEl+B4/HY3p/f79srYB8STKCK39q5Ha7XVa2n848z9/yhe7tdvuSvQeMu/Ie8NtAjTrCH8/nc9M6W8dvZWv8n8k8z3/VnR47HhUnV2DEteDW8T3M8/wjfYT4fX9/v9Te2ZtLrfK39t+bK/piC621DfvmlXSf53maLn5t//HxMd3v92mi6+Cr83g8ptvtlm8s9LJeiGma1mma1nme13me9fRlmef5S/b7/W7KviyLHvoC4+d5LvZLkmQb3z2/7vf7V525GsuyfNXB727n38o8z5eJLd1XrwTHeu7bx8ExYV1nXRWOl175dfzVcuI3gv24x5+tYK3edfh1xtFw3qKNrpmj52O07vBayO3S+qr7Xj5YlqUox1GovVqBTe/3+2H6aIz2yN3KUWto/F1l7+ipaRwbNXjfjfQ/At4zjoy1rZRkZJ1wD+x+v3/9X9vV9FeZrhIrHr22O6qWWsDGV7ft1bjMTfq9C9feFy8luVGwPLRATNd676QZ1V8Z4QvYDLZF8fc2Be5fO1aaC3G6RX7MVZpjWZZqn+8G7D0K+CMKLtjmQnxGbR7psxelWnM2fFEctSUTHYP8+M3AVtFawTazxiA/p4tcSPXIU7PBSDjWe/aE+bUP1MhY/w/ERC0e7s7NHY15D+TVKPj61pOthOZCZPx3i5mITlHUXpyn3Ga6mYC+yEuc0zG1tpfddZ1WdPxIe9fYGv81MH8PqK+lmlKqO6yb53vW3eszAo7jM1F/t+rM+XtUvLLMR8DXD3vqdqQNe2A7RONWY6OlnQ3LEr0e2QPkWCQ3S/VvlXzl/RMtsq+eBcffdNEcsWB7R4Ceng+PgP3eYucz4+NsLqM5HNezodcYEZz314W8R6nY8IWTFZg8drTuRxK56KgV+yi8KZzRevxkyax20g2jd62rAb1U3y2wPZGf+jfqiV4UeHWmdI7heY5GY+QMGUqorVvA2FKcsD9rfvqJqP/3amfHFed3KR4YxMZRjIj1Ugwvy/LV70i9rgpiomSztfACpnV8NO5qRHKqtF5rDET1vAqj5V1eN15bG+czrgNa215EYqgExpfibA9muYEzGp6/1zY8h2UbnLfkZ7ta43m/1nN7gPV6bTGCrf7mPOydo5WojzTfe5vGzd25P7CFHjuybNExW1F7qB1UDrWb2hZNr8903qNhPbfmJ/a4XtTm8Lc27WPFKfeLwP236BABa6nMICoL4ukKRGUGC72OaBnXQ21elaMG759W7P106hY6AHbYHg7QoOhZgwPFCkIOIkaLXGnsFAjYqwI958I7w7Chd74FtavV7nKj1hvD/RArKMjaF83yYw1eH3N78aJrf2fgd9V1K7pR1Rrb1JNF/Rxp3lxRevIhokuNnnUjcK2cnNiFTxSN+0jr1f+7U/Jfzf4WWp8s/xwJx1FJV2DVg8i4LURj/W5cXLK80XYFv5wJbFaygfqE60OPzUtrReCapjGwGi+g1MeqD46hIdbRtIZasVdD52xtLfOMkHckkGcL8M0o1P+tzI0v6kehsQv/wu8a9ywjzlvHdU5tPTqyrHfnulznVdksMFbn3BPocuSagO3Yi+eHveD8sEAuazx7sYxjfI7rnff/kTWDdWK5rLUtHbiNlMtD5dXjjNXPwpvzLNi+W22KeWan7tRQ23C8Yl407mfJzn0icP9W+XXtElrTdayen1+vGVh3tQH6jMDLtyPbaKZA3Va9S/a04q82/09ivIcasRxwRGstDKshK+PN6/Vnaue/A5buymg9a+t5eL7aG40fyx7cZ93BZmewlw5qqxq60VpYvkFfjLf8uIWe8RFdSmD8XtRs48mudtVm2b60zm+lxy49Y/ak5OuWtjeltVQHRuWc5UWB10/n+U1wDeZj+rdnKz2n9tdj1hyt6FzRBp1KckUb26fGiPVGtF62jF0HXK+w/UaB+Vr8yIywaw9nxVKvnVRePa7zaj8Lb+zeWHocwQh9t/qxlZLMs+wv3wGN4xHtCHg92NxaPyqX2uFsVLdeWKdevdg2NbivJXvLXGtHf6B69zRG4yPaLBv0Ahnwfz7G66EpfFzHnAHWL6H6lfpbfc/S7Qxu6x+jnsLz+fx6UvHe3O/3aVmWv/7+/Pz8q0+E2+329f9lWaa3t7e/js/zPH18fEzT66nGeGI092W4z4mu2AR08HScHPucxZmycPwA9Xukz3eA87sUG7205k4kH9n23pxat7y5otxut+Y5WIaeOG7Ngefz+Vf9rAE76/+tv7kWQ65SfWY/TgPs/xOJ2FGJxP6RqJ85dwH2des6Asfv93tTfDwej6//Yy1dB/9fluUfeTgvLRCv7+/v07Is1Rxkv9T6/jSez+f09vb29S/bbHrZEvaHbUpxjJjy8sKKuS32hrwcFyqzB+L2drv9NX6iOfS4R6sOaucWeExUPotWmSdjX2Q4l/VvK5/RD8cZ9Nfxuib079EFbL2O0usVzYm92Cr3GXi2Ql3geoAcqemGelTrN5qz7B95PViiVL/3gus07wtaT+6N1xJnAX2mwh6GPZXh/Q+1a+qsxT3oazrYX3WIxoju56W+NVpfAym8t0zG/hRF5wFqoxpsm9pYjifLhuq3Gq39Gb0e5n8Bx64CPbXWe2M8e/fWtyhe7Nfg68WWcaOAf2p+5ZiaCjEY7fdj0bv2R8Jfqyl93eFK8Ls6/G6OHuOv0ZR0w3zf+Z0h6OnBttjKMuBrxJBlxFdmevy20NfbvfH8daARcp4BdNhLfs7FCJH+OF/qo+/sboHnObPVcopzeJKvRuJftNn4qqDGM5/jtdHHy4tVbFaT+7fCto7AMV2y/ZFE8nUPsK7GaUtjW2pDzKLfXLA3z/XT4Roxolm1oWZz9d0WStc9qJU1YBNLF5y7GjUf7An8x3tR6V89xv7HMf6/Nd4aq21LLLEMPbBcW+RoBfF5dAxshf0GoAvsB5tGdNO5IozyE+RuXX8LW9fD+Gi8R3ywGtftvY19gzlbwOu/vWA9W9bh/Spq09FAhlKe6WuREurzLXAubW0qV0vTPWemvaiFln2B+1rUziut/SNEdQFWbFloXkTnHwFi7m78VI8F5Bxt21YiftA89vpH+vxkTvMiEqS1sESJBHQPHFgIGOuYVTQtmXouZHXeM9ECZsFJ5vWJwnNtaSM33B4iGwTm/46FCfbdU/bWjT7SP+JXnmdrLmKehX5jeH2tgYbj+D/+BToGf1vj0A+ys76lWBxBJB4gi9ePbb+3vN+Z1viM5MZWOAajjJBJ8+UIEMOldfkC3OOIOnoluN5ZIE4te3A9s86vlfFrsP5HKc2zBK6b0Kd2vtTnDNiGR8uFGNjCFtl5b/VirIbWg9prhNo6nBc1WP5eOC4hG2q/p0Mr99frq1HzMfPrOkqPsT44xkAmRu0QAWuN0s2SfRQaUzXZazGA8aU5QE/9QxyqHxHzPI9lL12H5cW8tdYTE1Gs3IvAcqmOZwKZGNZR801hvXSeHnptc0X7skw1antIy1zrhjj1aM0rrF+Ln3Xj9cAIsH5NhlYbgNKcvbRc/5Rk5jip6f9TiWXUYKwEWV7vLrMTeh2yd0GcX+9cMhpoi7zQhM4qj9qhBnSzAvoMdBO09OHjW/2ia/U0lmNE62Ey7MRwcfpuHBWjrRcGkboQ8avGfC+t8o+A4wob6Vx54VQCc9TGq828/jjvxU7tYjH5Q82Oyoh4rgHfIV4Qe1bD9YAVq9xHj2njOeagLSxa6vEcjHXuZ1E7/xuBTdSXWtc8vPHr4BeOiDvP92sh5xC7ETm8Oc6EZSrpP5qI/yP0xgB8vmV9+J33VbYlGvpyf8/W7A+M0XY3HhrZq4c1Xuce3Tzda3h7CI5jXvWt9p+pVrMv+Jj257VYDtVtboxDi6128lD99G9uHANebKnuLc2bswbk6rGz5a+WNtIfWiui9IzrtTXXrxqwrcI2r/lM/XMGmhdXgeWq+aRmQ54rStSHEWryKcj5kt6cFyNk3ALkKMVPpI8CO4zGy12Lkgy8Z3h9fjqnaG0FvhbTkW3vBItsGiwPaC1slo3OxpJJ5dJzU8FONXSerW2VFzt6nM+X+raA8SUbRPpcFdhlb9nZD5G1uL9HxK+t63pE1orQIsMIuZmITVejTnjrbz2f/KHVThEfbkVj4KzWC8bXbBpdr9Ynut5vAjGkNmFb6jnGG8/nPH9EqfkVeP284xYtfY/iDJl4TfXtTDcKreOKNY/VF/HC/x+hM+vS2jwZe5vOV8Ozw1Y5aq1VTqDzjGqIFz3e27YCWXrt5KFytjZFz6kNYVc9jnM9eLJE8OK9RGv/KD2yrB2xscXeLfJBLoX1rMmgcXIGZ6/v0RIvtb618xYj7YJ5avGwNvSt6VQbP5KIzCVZLdj+pXl7aK0pXj+W8bdy+INjvQd36QM+euCH5DBbHjRQkosfMqFr1ljXtTh3Cwe78C/wcAu1PcvED+VBn16f6INtrIe/1Wh9aKZF9ME1FrCHN673gSFXgOOhxzctbMkfz/YRv46IQX4YijXH8/mc5nn+57jF+/v7NL3mKcWL9fCzEUTyie1aeuBO6YGnWx429Nso2VE5yq6aN7x/WuCBTciT1j2WxzKlOC0RfRBfNNZLD+OKrvXbsGqYPtyv5FtrPIjUsRot+5+Xd/pgtJIspRg6ixb5R6DXAVhTj3tofkF+HGd9PFBrRuiq9ivB53HNyLqU4sN6cCSvHYlhphT77Au1dw8t+1sJXGd5exFkvtPDgb2+DPqzzvwvo7F7p4eTPh6Pv/7uhWukxsEW2A+IvefzOU3TZP6fbae1wauHHprfkTGKtebj9eD4SC5b42vAZtH+EdQW0TidKP54fAmN14idAMcAx4zF7XYz52+pJWoXzPeUh8DO8zzUH0Bjfo81emmxI+8Llg48VySOsF8Ca84oPdd/oLQu9k5rztJe5/F4PL72kBbUnvr3JPaEXFhrfu0pWFdtD1p0ieDlbwuj9vlvjd613xO8u2J9HQNfa7DOtcLvgI2az2r6VQysx19dRNOvNGJeS0Z8BQd9PV1KX9U5EssODH9tCA02aIXXis6hdmq1p35Fj32iupbgGPfWwtxR3a5Gq2+2wH7QfLNaxGeRPtG5LBb5GQ/PVi1ftdP5LCCzxvwoSrK2rI15rL6Yx1oj+Q+ttzUQP55dvVrVCudNhJa4seB4GaUD29Was0XHko9qPvmtWDWA91Xtqz6yxgNrjhY47yJ48V2LMWYZ/FvfI2D5LTuPRGud2kzX12s5y27WPCuN1eOjabGdF0Mr2cY658F2bKG2VktdjNBio17Ytj31mK/LSrDN94ytHh1qtPihFgOwdRSeL7K+hY7XelLzR00npbV/BI6zM1qr7dXG1njYySKaV0DlLbXR8Ny1WPKw7DMCjsWabLW+fL61bdWvJhvgfqNzprQu0Li3GvYa3nNwfDZ+MozbTPcl9bj19/SyPR/b6gsGcvbC/hop13ej34KNICjuziYMh4xwxlHOxRrL64VS63oRGdEH61wVFIi58IKR+/SCOGK7RYofy4RjHIs8r9cAxxcfr4E48eyzko2+I2yXI2hdr9Zf48ij1/+rc8HoscgNfS8uWJ5SbO1Jqb5DvohsJbuUbJD8h8ZnyWYc85Z/ZuP5K73U8k9B/5L86ysuVPaWmGulZFfkQWRd9pFS8slvRmMC8WvFqOUnHa/He+0NOXTeGlb/UlyUWA64gRyB5T9CHn7xOYIe24/EilsPL57XxloEemKvlIMAcrbMW6LFRj3wdddqXBvW4k37l/r22LwH+KDkp1Yi+oFSDJTi2IPnaxkHrGsfPhaZs6STR2v/EojTmT4I2CI/+rINavSMseAc05jEOQtvTAley2rYQ0bSExvK1hgvwXOjnnmNbWWBPlEbtsZpCfi2tLZen+n6M92XUX15jGWT0rq/Gdio17+1mPst7K69JoMHbzZb4QQaMZ+FFiVNbBQ9D7ZLKckzUP+G7QH7qu2tZl2Esd1rc5T6JvE8Hwn7IXKxyBdqFqyD12fd6H+scS98m4JRmaxaUdPrCLQeMi2yeXpi/ojNfjvsC8SGZbfZ+GTGTBehfM6bowXOmwjo79UTzQ2WEWP3AGtZcsGOEby8ren909AXP4hDxC//X/3NzYtbNKxj2XZq8JvF8npDdQQqcwTOreiYvWD5exlhS/ib44jjC/9XVHbui7GIIfw9EqwfmdeL57Uzpnt8h3wrwfEJuTRPcYxtXGuW3iPA/LqfQDbI7vlf9bD6ANZnb0bbrWU+9qkCW7bA80XWVzj+AF9TROYs6WTB/bfWacjPcrbaBH2j8us11xa8uXDckr/V3hZb7R5BdYM+0aZj0VpzpISuozVZaxiaZb9Wv7TmWYnSPPfX62w0AHk9e7K+HiV79AKZRs2JayDPPntTsnEJjqcz5L4S/9Ofv9kD/D5S5LeJ5nmebrfbpmb9ZtNIrN/f4n/nef76Lavb7fb1G3cM/4aW9ftQSZyPj48vu3ut9HtrE/2Ol46b5fe8LCz//jbOjuGafyfKuen1m3LKETq8vb1N67pOn5+fIZnf3t6mmeqZJSP/Ft3ZqAzIDUvuyfHDZMyDYxGbJf+B3/Hz7M/H1ebW30fWOsi2LMv0eDymx+Mxvb+/f+3zLB9qteLF1xbULgC2seSYjH3Cm2d6nYtcL12BETbm38mEXXjfxf9n47dj1ffop61WO0r+qPH29vbPb2Y+n89/rk0jjbnf7/+ct5rqf7vdhvhlKz0y4LdbNV96gF3gW/w903U3y+itybGJa3uuT2fhrY3n1GhM7sHn5+c/OanoPsP5jMbHJ8prq+0FcnZ6ra814/6qy5+fn18xML9e5yGO8HvX6FuStyc/RlCS6Whq++ZeICZ5XfV3C1qTrTZqLfxe9lK4r+Id38IWmRV9bQP0OgA8X8+PmP7cOf3rXATk2kgdPFh2/B/+4qbH2R571zpmWZbp8/Pzq5bjNern5+f08fHxjy+uAu/XC71OeDwe0+12+6rDVi3HmK1Y824BMmvt6GnQfXrF0/v7+6F7Dq6XvOsqD/bLVWPvMPSu/Vnou3Wj2uh3Ybx3eErH0Bj0xXwe3vikn7TpeM6waeuakf6RPlqrjqC0Ho6PrnUteHXMO7465zw9USvPArJGZLDkPxKVtSSP9lXYH94cUThvaui62jx5mWi/UZTWs3S3jvHxM6jFg9LafwSe3SJ48lrHRsAxe0RbXzqeicrTiqXTUZy1LoP1I34cHc976T963hYbteDN69mZaxF0wzHtY7GllvUwej3PXhbe2tHxCs/XOt4bax0vza3+b2m9YE1LLs/GHq3yqL4jUF2whrJ1zfmg1xBsH9Wth5FzMVase9R83hp3rf091NalZsWYtz6P86id70Fl3qPVfD2Smp09zpD1qhzySfoIeLfnfr9P6+udvN6257uP/C5v7Z1qfZcO72DdXp/UqI3nd7z21Okn8Hw+3Xfr9J1DvLto+Uf7lo4n59KaE9zfipUr+/jq7yZ/fHxM67rqYffTIPi02USf+puMTzwy8zyf4qP39/e/Po1gxc70iinU9unEeNK6VgKf9LP2ItbTqpdbQc3WT3+wDSf6NAbv8Za8R6K+xd+WjTjWJ4l3C+SAF2d7AD9E4hw86ZNtVr7uBWzZs6blH1A614tem0balvFT4LrSgz+FtqUx7+/v/5wvNc396XW9rPk2Gmtt1eWKWDEbfX2R/A1iLPLaDnC/q1+jKXvnlAfbCTl2xp4H2IeW35dl+apjCuef1mKr9exZzOP1LX7vmm1v9lhzfn2Lxvt7omsmPd4C7Lbnp4k5RrbI6rGH/VsZbTsrr3rAfR1ufG6k7UbbQJlf3xgd0dgOS+GbN3vAa0X9rNdhv53L3KT/DuArZlPwBSJ+2oL/RqDqeCvprQvwxAYFWm/23ORnEfSGCXg8HtP99VVba/weG+5PwYrdo3k8Hl9yPF9vqqABy+897BULz+fTfTGAi45ROrTw7PzZhht9bVyP3183XqeXX26321/1VfX8eH3l8n7wT648Xj+9wC8ctHZPciP/bNR22IM8u3kXbdAHF7ijv9bJF9Ic37i4ZHv3rq22qKFx6jXdJyArYlnPsRzo48XL29vbV8zdDrhgfb5utqOV4hzwfqn67QlqxNx5k8Kr3cvr6+a1N1C+Ey37ssYAbAy7WP7l44gVq18LLAO3PcGNL2WrLmeA+IXsD+PNh+RfuJ5ZPxFUigWcu9/vX3lU6m/h1aU9aZVxK7xHAuQ39vdZfjpoD/Rajd9I5PqP/QB1bn7d4LWw6ofFx8fHtLyucXqZg3ufd73ngf762ol9sYdf+NoS8yNWUL8QM/AJfKXXWqUGltfPibTapwZyf3rJb8X7d2V0faq9MRZBYxF5wQ148nvHQTSvvwu9r6O2ABtGbMk5eR/8xsq3RT9afxb4ekPPQwaUlq/xRLEe0sKU5MdDMlaahx8M4c27hx4/FdjJa3iABj8YBW01vsZntcRGbXcUli+jzcsn7uOxl77L6+GDNRmV1v49QOfZeMjR1sa1EPpbdXQNnB+J1urZ8bu1N4x68E8PKt9a+AqxBz/YaZQubL8I6N/qa/VTi/zYJ7Txg6f0/+jDc6wvOfi4UrNHr/6taOzW5EJslHQbxZ0ezGjlGcN7vAd0s+bYI+Z74NjdwhGxY8Hyn2nHCBzrbC+OBeT/UfC6NbhGeHmpupVgW4yE59WmPqi1nmukEpFrCshYi4P762GLDPxijR2pRwS29Yg1W+dCf9hEbdUiX0tfhuMHY2fj4eTYe7Qh17YC+Vtkr8E2OaKNBvZfnWsr2B/rq29KDWNG+U+BXJAXa7L8Pexlb7ZJzR41GXiuCLq/9sAyefN451jerW0kmJPr4kzXH+ynRR6Gu776MsihPWRtwdLLgu2quvxWzvOaoIE/qo1wdKTYToHiX7qI1mOrXEwkZVCwZtqUubDphRk3a6y2kl9/O8gPL473gteNwP09f3JcePA8pX696PyerGtQp+8E8rS0mUPfUp+tlGo1+x39rmJ7lQ8gTlQfj9bcitA6p+ZBqZXqe1Tno4ns74ivvWId8ytsPwV+OSLmLb/enZsn2s/yey0PeJ4W/VSW3qb66vloi9hiL3jdFhseidoaMaWwLWvX96NosR3kmwvXqMhx6FCCfTcSnhe21lj38tpqLTbyWOh1geV7AFlrlK4FvDWgh3VuD9h2I9Zk37Hey+v11EI3krB2zZZR/27RheVSanOyHhzL+NeKY601+D83T54W1CaYE/rCLzhmra9ysK1U9pFE42MlH0Vhu+wB7MKyW8d62NveUyHWAftd42MNXFcpHHvRMQzG13Twzuk4bTjnnec+I+F192hnghhSXwC26dac+Umc6zWCA0mTZEvzAiIKZCnNg7VqILkVbzzrkfQTjaekD7avFd970bpRRvpH4kHjaQ+ia0T6fCegSy2O9tYZ9lfU3l5NPwuVzzoXIeqHFiL5p7A+PW2k/KNhOUvsqYs3b0k27/geqD9bmqUXYtA6B3iOKLr2FdtR8JolO5+F7q0RGVv7b0H9Fmk1maJ9ud9IrHnVDy209reI1ILVkd0C81lY67D+R4I1VZ4e2DbRFlmX+3uw/SJzRojMqXE7qo2gNaZ61u8ZEwFzenZnWtdvmbsVz+Zsp1FtJJFYB7W+ng08WvsrLEtJLu9cbX2c886vHTEYgded6c0A/J/lZr20L/eJ6HIELTZXf/1mbGudgOUcdmrLOyv8LtsWsH5pbX5H8F75pM3kvAvpBS4HbdIOPjXAdmRfWue2xsxvhO14pP343f0IkNPKwdX4ZImHxo0331ZYP8+uEXn3wpPJI5Jf0KVUc9dgbd6CJyvb+yy7e9Q+nVKLf8DzjITzJgpquDb+VAZ8pa2mZ5Tl9YnLFiBDiWj9gj9aZYjgxQrHN9sRshyFVQOtmNC+nq3mYN2wdC9hybRXY3t4DTJxOwqOHchyFdh+iAP2XclOOrbWvxdeI9oidub+HpE+PVhycr7uYccINbuh3k3O67va38CyKcfTUfCaNd0jsG2sfZiPRfe7VeT0avVoXdbANdQqewj7G/+P7ENrYY/dQmtMsQxResbUYLtHbTEVfMTsESegJDfbaVQbCdtFZVdquctztbZWn8DmkLk0j3eulifeOMB+H0lt3R5quh4J4kj10/hJ/uMy1piMDQ0O0+NHUiteHFyWnBqMFpiD+/K8kTmS/5gLX6W14ILLNvf6J39zVqzWNp9a7lpwDHhovPSsE6Vm14i8e8A28GRjojES6QP2tL9nT9Zjr7V7qeXD6uyzCmpnrV8rEfmYUg32ju8B5OYbDqvUF/x/kTeG9YU8U3vhw3gXt1vxfMwxzmvejd9c3gvdw2tEagz6eOfBXi/CRsDxeEW82DmTxfjJQ81fHK9dK+o8PMYb10KL7VrqQiQ/WJ+RaA2E3D3rzDu9OWLBuaY2Q8xEdMA8LHeL70YRiYEWWubitWtwPnr9R+uyBq9rsa53PjLHutO1e4uN104ZesbU4JoaZQ7+DBXLO7JucG2w5sWaERlL7GHvVWKF9y+r1WzI/kPMz686jTkAjvXqhLXWQK5559h3FqyvR+18D568W9hi69GwvxBHkVr/m7mMRTjxOai8JCphFZG94ODSQsTnSjJxX8A2KI1N/jAbN+Ytv6AvNhDGG29doCf/wbF6pJ1KF3bIqdb6wX73YH2nnfMTa1lrcN1o1XMZ8OlKtkFr8+TF+Ugc1S609kB9fyVK+QDQx7Mv6zeaVn+V9kDWVc+NRn3e0yxa7NHSdwRsX44VT5fRWHtxjcg+1GLH2lxnUcoLcKbM7LMz5QBsr7tzQwVw3NVipFYX7nLjo7Qu02I7yNDSt6Rb7fwI9LUR2yjSMC5qzxJz4XVDayvZDDqznzBuhB5R2H4sSy8tc/HaEdi2FqN1AbU5sa53nuPb67MG9OsBspVikemRgceMil3MF5V7dXJK8a5jtsLzejbo0cmix0cROH9amgXORW3MOdICZIbNa7nmnYP/PN9445ge+WtgTk+uHjDnaFl7UZ9xLiX/8r/pIry9vU3TNE3P53NaluWvc4/HI9xut9t0v9+n2+02PR6P6fl8/jVXK8/nc7rdbm5j5nn+On6/3/86d7/fXVmg+/TSdZqmv2zA55M/PmF/3263aZ7nf+JmnudpXdfp4+Pj69jj8ZjmeZ7mef7HR5+fn+bxZVn+8i1iS1tyLOon5u3t7Ssmbrebm3tMpM/RfHx8TOu6VmtAyRbK8/mc7vf7NM+znuoG8yFXuC3L8k9ufn5+/vW3ov1LtPT9qfC+WfIr7G71QW30zo+iJVa3MOoagOF4Xtf161/+v9rOi08c984z2MMifUdg+ejxeJjHR4I9nevIHkT0OCIXtmLtC8jj9/d3PfWrQCzNr2u6eZ6nz89P02bg8/PzKzZquYa92YsPxPARRNbhmI/E/x7g2oNBnkcbuN/vm2Mcsugaaqv59VoC/l7X9R89SiDmEFO8J5XicTS1mL4SLfYdhXWtwK83+RrpN2LZZys8Z4vP397evnLTkouviSe6htrC8/mc3t/fv2r76NdmZ8H1zWqj6a1DqM1aT1uJ+sSLrb3v9yyv+xYj2tVA3gL48DfX1SJ61/5s9FMN+ndr2/qO1OL81ii/G8RrLPQJVZXDe8d1Nd4Bx7jSO3m/iei7vvfXp5dKtub+JaJrYt3fir4zehSRd2DZh6WYAOxTD42LyLwA9QFjrLrCNtT+/DfLgfrCsc9y8XosO3zWogOI2IqJ9GeZarAuR6H7kUePPbfQYgsrJ5YDvnKIdXmPK/kZtrb61HKfdfHmiNJi27XBlq3zRuYchdaW9WXzPeMaPuV1an5mWGbP3xqDJSLzRYnaTftZtdyyE2CZvT57w+ufgeZfj+/uHT/rNMsnvVvHgxa5e2uIR8varWg+oUXhWrB3XLOs3jqtfmb5W+rQSLB+Sa8WWuKlNVbR35OTdRmF1g5u8+s6GX70dOY5vD7rTvKzjY9onm88SvadKvay4PkUrRdb4bUieo9am+0zEq3HJUoylM55tNYCgBzkv0s6eOdY5q1tJJgT+9ts3HtsbXvJuoVZnldyJdmuxqUsowE1GclVgse3jOulFvgtsrDsa2Du34gVH9yi9IwprZ302XQrmjMeLFstF6N6tMwJeMwVWyutYyP9cT5iU83JvdH1vDVx4XEkJXks1M5H7J1YQ9f01ivJU8p9y0/WHFFKa3nw2h6RPkxr/y1Y8bDnup5erHNL8/xdizlG4yiCynGVdiS8bsTOI9l7bSsvPGrnPaLzrx21qTZny9qt6NyQPUJPLm4hspbqU4P1bR07ioheLbTo0RqrNUbrojHm6YZ+ehzoPB6RPq3o2nu3reh8nk1LeP4YKefaGOtrw/qYz5pX/TmSlnwsyVA659Gydgmex7Kfd45ltuyv57mh7wj5FUvWEYyWcysa13vp/RO4rX8ceDr8NchlWaa3t7fp8XhMy7JUfxphkvH3+z00Zgv4ypO3Fs5PpE8NfDXlfr9/fZ1qxFe0fhJsV6BfgYqArytF7Vv6OYmLpNCp8NeqjrIHx0JtTf6aaikfI3roV7a9fgpk0PixQG0pwfNE5mRQY/hvzyYeEVsxkf7oE6l97FNvvpHc6Ge1uBaonPgKvrUv7AHi0duLLDh3NCb3siXH/8fHx19yz/P8T/zx14otG3u5r3uENb6F1jiL1gfMG/Gbfs3em3MUvN7e1yNYy6rLXDNgU9RGrV84NxV8vrfN9TqU/2V4XuSAnuc+DNcfjC3tF/eO2r6FSJ0fyfP5/Iqf6aUv1xP92YMtqE+smN3KWXsgzxVZOwr7h/MOuVJbS+tprf9WeD1vrdrrPwutDcvr59GOIqJXK2fF6tRZZ7QWaD4znm91XxhBVP4afA/Bkl1hG0ZrWc+YEj33ShSOQ9SU1vys8Xz97ElUPrbTKEbFydToR+SN5njvntE7TqnN49Un77ienwo2Rx/v/F70vN67Evr6jDlCJ8Ty/eDr4m70rv0Z8Lsq/FUWfL2o9nUhHl/rOwJPXhD9upui7y5Zc/92YFt+VxPH8fUZnL+/vrKMxsfwf+7LMYRj7BNeC+fTR3+w7LQ37LMIkdziPqvxTr3GSnTt0fTWmJG02iDSH+eRe2iWv1r9vwXUjdWICcU7vhewg2WjEmzrI+zI9RbAlrAtY/UHXr3ROj4Cb60S6F8ao3HETTnKRwzrsPe6Xuy2rB+piaV4U/a0Ocvq6e7RosMZtPhsK/AR9gsLjQv0ReM6o+fxf44Fba3+q8Gy1hgZC5grunYEtb3aqlTjV+PnMY6g5tstdtI4OhKWexQtdhi9fo8d1f5onPM1nTjn0IfjxIp5NM6BHvlL9OwpPTL0jCkxYp/VOtFqhz2ADKjN8D/HhNZEnMdxjdeR8N7Za6de2TjPWscypXwtnfOOg5psHG9bQSzosYlem6mcrJuOZfSc/n00HM+on1acb4nJErrOHmuMZnuEbYSNpoG4UjB6xlSj740WF0suLn6tHKnLd8WKEy6aezTLz8l/sP0t/+wB56KFVfy5WXLyeVCKrZ4cH4Fudmdg2apEpD/Owzfqw/mEN0oQZ/q3tbb23Ru+mGsFssKWVj6MxLLXWrhR4x3nc5Zf7oUbdj3U6oyi9cID83qxDl302FHwmiPt2UKL3uwnT17tw//ndoTNOU5a8rc1Ho+G7fZTrpvY5qgve+nGMVkDcrXEj4fmwwhqcVC6btR66M0xGs1/3k96cxZg7NE6rZX9tBfPdxaj6xbbMYrGm8odyQH08c7rGh498pfosW+PDDxmRPz2yG0Be2O+nvwcCXQqxUCN6LXkGURyxWPLWIbnKTVeIxJvPNajdj4KYlZhGaxYjtQZPrdH/Y8yG3uqotfce8iq8TJ6/j3YHmEbYKeUjIV+uiGowfX8XiCpOOA40XrlwZyevomPbmbsGyv52c7w3SIP40Sf9EMMttkRsF+B5ib8Cx/qOaV0bpXzpZq1J7o54/+oQ0dRs5US6e/ZVv3GbWR+Lq8bAxovvIbKosdV9j1RGaJ4NZFzZTSerGxPhuuzormPnNij9njylWCbemBelRkxyHOg7eUbi4gOe9MiA/vJipnVianZuCl/pM2xjsaBR088HgnbzvPDd0GvK/eOhbWwB1p4NaSHSP5E4bkiNkP+sR5H212ZjWtJbq1YNWaE36LsYUvMGYkXzqWt8FytNizpH8kB9PHOs2xen7Vxb4tg5VAJrW1ResaU4Lwo+aYEz8H/L9l/b0bI0OujvYnGuEckzyLwPIh7xJC3B2l/i5rNR9YyzwY1GVbjdZCic2tu9OZbC7rvldbUeGdZLRu1wjVSbXNVbM8eACdQBKuvOvEMNJh65WF7cEuOJe2/jSPtpjVEfWfJoXmmlM6tgQv0I4B8LENNrz1oXS/Sv9RHdVQbjEDn92Sxzunfe9Mbi2pH79hISnPz2lZMW/rhHPDmHgHLF6WkL6jNy3OU+u3FWesyLTJ4ccSUYkptHV13K61r1eLmbFgfy87fiVbfjKDFdqV4bmWUrpE8tOD1ubXMsResU4+NNGeP1k/XH0WLDiNl6I2xGpF5IzlXm2MdmG+gZ64eGXrGlNg6n5WbVjuaUWuPmmckI3J5hF61fLXmL/UHEdlq56N4skRkqPnBOs7zWudH0rtWKae3oPNadr8a/9PfqD8CfniX9wABBQ+8ud1u0/v7+18PdvAe/nAE67qaD5GJ6jXRg5UAPyTpdrt9PbAk2Y/n8/lPTP2pMUkLiN3H68G8e8I5ow/p8fy3tU58fHxM67punqcXPJR0kjrx8fHx9TCUierkEX6Y6KFKj8fjq+H48/lsloN1847h4TkjseazarnGHuLP6rsHvIe2xOL7+/tfD1pCjqjee+071l7J8kd1wTyI8+kg23N8e41zdBRePdsTxITGxk9F4+com1s5kexPqb7x9eBRcaAsy/K1dz4ej6+9lPdUxOxVYkj3l2g9nxwdrIcVnsHHx8c/dfB2u4Wua/j1Hfy1ruvXfPM8F2NxBFhXa9wWWPdlWf7ZB7WNXPvK7O1LC339E0Hl1L8j9IwpEckn8Hw+/6o399cDY9c/Hz7tztfRqBwtjLbvCFDP7g337xTWy6r7PXh2Zhm918+tjPLLqNcKJV20NmhujJKBeRr301pi5ePjw40L5HFPLmNetCtcW1TRu/Z70/qVLAbvfvAcPfPsgb5DA/lq79To14bwVZCWr4gkNhH7z8ZvZaWt+xn5NbASvfm2Um5Z8HxXQr8GVtLTsk2pfy+6RkvzwHmrrsMGe+gCeI1aHVjoYdV7yqTw/leTEWj8WOMW5+e+turGa1vrruR3BrJY6x+5P6pNYBc07CHcuK8H97PAvGdxhG1rqN29pj6yYmYlm3vnce5InVn2CK39jybihzOx6txMP3mIenVW7rFc0bZVVt0fWsFeOHX6nMdjDuh1ZC5asGyo9xHba5ypHmpzq88I2JajUfm1Wfvh1BFfyl42Y395cYw+3nn2q9dnHfhaoxRjJTT+ooy2Pc9XshfQvCrVCNR1XgNjcG4vWnTyUB9tmWsEnMuezQH8ZPVTvXppiX1es9Y3IlvtfA2W3SIiw/qax6I0v9rfm6MVzbVSbkbROa2GXN661hX513s7oRdgrXiOQrE90zksm3URNzlFgRPFsklkjsRGLwytJLb6JNuBXfe0J/sNOTcCnvcqaD2J1oHF+G3rEZsmaLVVpH+kz2+mJbeW10Uyx0/E93oBh6b1MwqP97DmhtzWOI7rvWH7RVD7ebTOezRXkI3tiFj2mva1aMmfI2mpy1eIm5L9jszNrVixU4uhvcH698BN1Ug8c454MbbFZ6h3EXkVy/aeT3CdV9J1NGwXXVevrRjdAzy7az/oOQq2oyfDFjzbWLAsHhxLHLdMye5bYRl1XcB9VJbe1gvHjydvCZaB44NtP9Oblzi3VW6GZSjpsBivZ6IxbY21GnQdAeaM5PPi3NDW+qDnjwLyRfVZX3ESsfkWsEYE9nENy+Y8jv3SCufPVLDnVhuV9i5QkyECx0ZtvV6sNby2RZcr0uf9BhDM2HRbmJ2LNRy3CkDPOr2UCqieU5lYL6/w6hzQz+uf/IfardTUN8l2YNs9GZ3rmm9no/LMxkVcBKuGjtjIWmzFupTWjvT5rWC/q8WAdUHTs29Y+6u22pzs91agg5XjrF8JrF+Ts0R0LcD9S3HM9r0a0OFsONZqsN2tmFkrMXU1vJhtjcc90PqCWNea8Z2YndcbR8dLy5qwd6kv9gP1jdVK83gsdAMvwuLcMLPW9vyh40qtRTag63pzWDWcx0bW5z2SG65va+NLsBx7ULMPA7uU9kSg9vfaaL3UdxasB3KLG4Pc0D6qXw+cR7puFE8Glllt7o3pheez9Jildll2jlKqPZEYbqGkEwNbq0xX2U9ZtkjuWnh2j9hnK7x21McsX0n2qdEnOrZkT+2HuOfchD74m5uuZdl5a/3Q2Oidp4XZuJY5Yt2zaIuwTqKJsVYKljWP1VcbB7jVetDg9NAg0nGWToqn41FJ8R3h4qUJzQ22TTuOhWM2EuNXYLnITXqN2VJ9iaK6jYj5Flth/dqaI3X+KSAeSvuFdSE5D3jh4cUNWm1+9iVfXEYa9LH2b08ebWwTHGuF14sS2ZtZtqsBe50N+7kG/FSqHRwLV6WWczhW0vMoNMdU5u8K25lbrd5tpbXWtNY07/XVnvp5a0ZqJCjFWamV9kwLXacmH++7uge3rGvZCPbpzXPIUtOhF5YzwtL4Zg7w/N4zVw32gWe3UXZlXVrBHtEa30pUBo1trD0C3u9gU2u9rfZWUDu32K9Er520BkV9NBrLLyNgffayPWAdWtay4sKKyVafYA7EXgndD7Y0b63WmmzZwLLVESz0evIn0xZhO+IFZNQB3vhIa0HXicjHfUet2zvPb0dt57VkOxyz3wHNsaPR9adgfWlh5Nx72GmUbD+FSA5pzJT6bqF1bsgOX1rxfUZrjS3VYxQs05WAvlegxUYR/+zly73Q2N0Sx3uiskX89R1QnY6w+RHrWLV49JrWGiPWKs27ZW6et2UOladlrIK5tjJqnhpHrLEemIeRGKidj8L6tNI7jtG4rdHavxdeY6uNzyISRzXYDnva22JPHxylz16229M2isZAaxvJiJhO2rmtfwLhcJ7P57Qsy1dj7vf7V3t7e/vrXI3H4+E+FZhBn5an+/LceJJ4RD6VCU/Gjoxl8BTm+/3eJHfyL4/Hw4w95qTU+DE8n8+vp4gvy9Ic70ejebq3/1EDJ+MJ9701ogb75H6/T5+fn9olzOPxGC4jngj/bZ68vjPv7+/Tsix/2UPjdOrcz1p5Pp/TNE1hf2O/QoxxvJ9JT8w+Ho/htkWsb83D0ajfzmJkrQLfsb5Y+T5dcE+FbacLytYLx+B0UNw8n89DbDfSX6XXcxPtTz2118O7hm/RBXJzfkXH69iW14Qeo3x/VA0fJW8ExGvUPz1wrfXWwTWZdz7K+/t7c7xE5GvhdruF91bUwr1emwDk1d51dk9gq6htLfjaf097M7zf7bXXPR6Padrxtcrz+ZzmeZ6WZRlSky2QN3vMzXivmT4+Pr7sqOwZK0fW++SF3rXfg9n4qi43Pj+S2fnaUMtXM/TrHVE5+asY04CvpSX7oXEZ8W8SB/lz9fjnONhDVtQEqybNB35lbAn+9MwZZA7Wwb5yVLz0gBhLfBDrrV+HHoUVP/fXzypdhdF1ALX3SjpGQD5Bdst3Z7M0fnX6O3HlPbMXXI9shXMKe9MZ+xOuraLgeg9yt8iLsdD1Kiyv16stdvgutPinl0hOnFXnIFtNvj05Q+/fylm2PmvdUWAf2DNPvruNku/D7p+kx6cdptc7PGDPd3ssno2fApzkk26t75jxp96P1jXpA+/Atvo6qYNPgGz5ZMER7PGJWaDvfJ9ZF/bUcwvv7+/TPb8p9CPIT12U6bkmGYV+0os/FTriE3pXBdejV96DPPb45lISJ+tZcnVwnb3zy/okSZIkSXZm95v0SZIkE70J8h1vkCRJkvwUvstPqCRJkiRJkiRJkvwm8iZ9kiRJkiTJL4J/k3qv3x9NkiRJkiRJkiRJ4uRN+iRJkiRJkl8EfuImf0IlSZIkSZIkSZLkGuRN+iRJkiRJkiRJkiRJkiRJkiQ5if/pgSRJkiRJkiRJkiRJkiRJkiRJjiFv0idJkiRJkiRJkiRJkiRJkiTJSeRN+iRJkiRJkiRJkiRJkiRJkiQ5ibxJnyRJkiRJkiRJkiRJkiRJkiQnkTfpkyRJkiRJkiRJkiRJkiRJkuQk8iZ9kiRJkiRJkiRJkiRJkiRJkpxE3qRPkiRJkiRJkiRJkiRJkiRJkpPIm/RJkiRJkiRJkiRJkiRJkiRJchJ5kz5JkiRJkiRJkiRJkiRJkiRJTiJv0idJkiRJkiRJkiRJkiRJkiTJSeRN+iRJkiRJkiRJkiRJkiRJkiQ5if8Dl5okAJC5kagAAAAASUVORK5CYII=;" vertex="1" parent="1">
          <mxGeometry x="-2191.0027311197914" y="-323.00009331597215" width="1513" height="62" as="geometry" />
        </mxCell>
        <mxCell id="yBlYgujM2W9td2w1A4_b-19" style="edgeStyle=orthogonalEdgeStyle;shape=connector;rounded=1;orthogonalLoop=1;jettySize=auto;html=1;entryX=0.5;entryY=0;entryDx=0;entryDy=0;strokeColor=#DDA15E;strokeWidth=6;align=center;verticalAlign=middle;fontFamily=Helvetica;fontSize=11;fontColor=#FEFAE0;labelBackgroundColor=default;endArrow=classic;fillColor=#BC6C25;" edge="1" parent="1" source="yBlYgujM2W9td2w1A4_b-17" target="yBlYgujM2W9td2w1A4_b-18">
          <mxGeometry relative="1" as="geometry" />
        </mxCell>
        <mxCell id="yBlYgujM2W9td2w1A4_b-17" value="" style="shape=image;verticalLabelPosition=bottom;labelBackgroundColor=default;verticalAlign=top;aspect=fixed;imageAspect=0;image=data:image/png,iVBORw0KGgoAAAANSUhEUgAAAMIAAAA9CAYAAAD/Jbb9AAAAAXNSR0IArs4c6QAAAARnQU1BAACxjwv8YQUAAAAJcEhZcwAADsMAAA7DAcdvqGQAAAlnSURBVHhe7Z1hsqQoDMdxa+7VeDLxZMLJ2A9trLy/CQTR7lcz/KpSO40QkkBAbPvtlHPObjD4x/kPCwaDf5GRCIPBSITB4M1IhMFgJMJg8GYkwmAwEmEweDMSYTAYiTAYvBmJMBiMRBgM3oxEGAxGIgwGb6bx9uk1Ukouxnh8Xpblx/WnSCk555x7vV54adBDrhBjxKKPEWPMzrlDvPdY5WuEEH7Y5pz7SKy+1e9dxBhVe7XyXrz3OYSAxT8oJgIFvabkSfiA99phyHszOCE/BfZr7ZvaWXlq7NH2HrFiaVc8I9DWH0Jw8zzjZZdScuu6Htu1BF6ztHmSaZoOkXyy4r3Hoq8QQsAiERpL7n9JrHpb+XTc1nXFIjdNExYp6bFvJ5hJDm5PpNXJKtbbHN6md3VCG3q3Yq7rk1zx4epY3Q3aEUI4CS+n2xq3zxlqd2X+kF6JoqdoNJcYY/F6TbhBGAiO1uYKXJc1kCXu1NUC98MKjhXGnITXadFvBftogZ8ZLTHHM2aJ8tUdaXeQEgGDioJ1CdTN0dpcgftR00X+lQ53pMsyKHeBg6vZhvD413zXxuIOuB2tcN9rPuTGuWO2hk98GnjulGUylAzT9JTatNKSCJi4Thg4zeanKdmk0TJWV/RbwbhKiywKtqF2JVpvo4qHZc7r9TqelUsHHv5MvQdJ91302Fg6PD5p8xOU7BUPkg9iGRMp9jUfuN5SXcKcCETO+WNfHv0mSj5bBvPKU7J5nt26rifh0FM4Lj2T+b0hfI4QglksYHy898WxO8AtogXcsghtW+J18dakVi5da6VFl+Ybx6qL4mG9nyd4/62C8Gs1e0t6euFxbaV2RsDzk2uIefOOoGHZfv4VUkpunufjmTztGN96LQJ3iNIKiSvqk5BduKORpJQOcZWdd13X0xyMMZpj/gcLCApIKWgcvCcrGf0tWrZYDGoJ7muM8eT71Xh47092oP4Qwkk//zfekqG+GvM8n9qQDXfcRmGSWokxHnNznudTfEMIYhKklMRydX+ybKXa7YPWVivn17Ry6ZoG2kXtpDJeF/Xz+hL8ukXuokUn2oA+SmAbTa6AY9MjhFaOlK6Lt0aYpSGE6pbJVw2+6mKmfoMQguhT6VUCXEkJOpySPlwtfxPSKyS1Hb42zoQWtxoxRue9Px2EQwg/rml1uBA55+OzZTzmeT6PL2ZG7bmu9/44gPDs5ofibx+WpUOTRfjBCnVIKxnGyu+vA5AerH8XXKd2GETbSnURqS2KdSxaIf2WZ/8tSD7xeJx2hG3bjgzjWUfEGMVyjiUrnwZXFFptpOtUzu8d+U5GdRGq4713OWe3bZtblkW+B/0wOAax4eBIc4DPA5TaztJLjFHc0SROqzuQ4LcjxI+yH2kjEGM8ZVPLjsBXDq4DV5RauXStFc2uvPfjvT/5ihLYy2CaLgLb3kVJJ676+PnTSDupJJbYl6TkJ9aVdpvTjoC8Xi+3bduxwgTlNM7B1eguevVKqwJBu4ZWJ+5PSZZlccuyuG3bsMpXoXOL9/5YIem/dN9PjyK1x5RUj8qwzpOUYm9Ba4u7ivdeHjvMjBYw26Xy37Qj1HTx6ygSJV1Z0HcX6IfWD5b3iOZjDcm+J0RC6lujuiNY4au1lp299O4IVug+uMTTK6QG9ivZiXXu4OqZYFkWF0I4zhxPiBYDnIdSPeK2ROA8NWHRsbvx+xdTdPvTw92TkW5RWmLbUrdEzhmLmuiNpQSPr6SfbnUJGlcNUyJMjT9rfHrCPsW2bcf5pzaRa+ckpHVS8lc06PsOWtFQFw06rbxk27ZtP9pZV2auH/vqhc4yvaLZRXHDJKiNVzURaELEGN1kTAjNyL+J2hdPGPjWmJTq4yDTI1ttxaNEuLJAlez4TaSUTgngjA93nCURUDF+JnjA+L2YNji/Hc1P4rf4ZRlkouYTwes97ad1l8pwFuD/Lu0QVvuriVDCEtjaLcZvRQssIfnFHzlads4SOIA0YSwx56AftZ1suvgS3FXQzxLoi1P8odvBrJxtpmk6tWtOBJ6JuEVLaCuWVr+EFIinqNknXY/7fTrds/fi92+0M/sxFMZTSkjO6/VSxwxBXbzdb2VZltNuUXrYQQkQ9j9RdCQEPk9F8Dks/wYPr2XhHR0O/1YWn0tTfa1cutZKiy58Bi0h6eJtau2vwvWWvlHl8G9ttTZcr/Tt6x1gXFuk9m1+LPyhBQJ1kq7qCGEjDnXKO+eOWoNZ6gMN7kHTRQnK+8YBQ3jCc118sKSEvwNuV23gCW6vNC74eoNVbysY1x5pBdvzOBS1odGWQZVWnrj/BYwSNBlxAHj/eK0V1BWF96gI9F1CikuvjRbQDyvoEx8fXl4bqx5oLuDcIOF20ELC5wb/3ALXK/koj/AOGlZDqi+VtVAyvhUMhiREze7a9Sfp6Ze3pXh+0xdEsq8X9E/ysfmwbEU7aE3TdDqUWfnkYflunnpxrVUnPuae5/kYK7+/Tv408zwfB9UW++lpXEublNJpLooPDDAzODyDpPtKDmYdgdsuiXVL521aVwjaQvH2B0W6l9f8weukH9sjVP8OuF3WOHK43yUfnwD7pBgSUrk0hyx+t7RTvceJUBpo7FCqiwaVjOLU9EqgPZLUJi/63wvqK/Vdo8cutINPzB6bLNSSIBcWX1pwpGsSOAdq9dVIYsDQYMJaLwt1nSEZrLo5GAQSmvy1PrNgay9oi8UGiSt24SSyCB5Ue0CbSb8Er4P94rjidakOSQ21hkUR1tHqcbA+d0ZyTKtbA/ux2MbBwesBdV3V16pHqo+SlVhp0pocmg0a2BfC9SGtfXHUWiVlWoeWVY5nLK4KtVXLop8gG4NxB0DQR7//0QI+ESShvnhd9KMFbItCUL9an1xCZYJZpUYUHk9THDV4XcnOzHzln7EfEqyroXqDWwzR22HedWhOol7Jhk9wZWJYpCVOBOogoRhabdVizqFE0saZpMUPWhRw4csV20v21mysJRxSnV1+/1E1hydJydgroEMkLU7dRWmQrgjG0QraIS0kNNmkPrFuC1Ji9OiT0Ca01g8u0nf4e/l/L0vPcvElsF74W4He+9v1t5KEn/y10uvHuq4u7n+OpqYrpXS8rFer2wrFQnuh7Srruv541k//rvWDf+oxGn6Ao3E5EQaDO6GfobZOZFo4a0lTYyTCYHDl9wiDwd/ISITBYCTCYPBmJMJgMBJhMHjzP8HCmVZUe7oaAAAAAElFTkSuQmCC;" vertex="1" parent="1">
          <mxGeometry x="-1524.9977971540172" y="-205.0042857142858" width="194" height="61" as="geometry" />
        </mxCell>
        <mxCell id="yBlYgujM2W9td2w1A4_b-24" style="edgeStyle=orthogonalEdgeStyle;shape=connector;rounded=1;orthogonalLoop=1;jettySize=auto;html=1;strokeColor=#DDA15E;strokeWidth=6;align=center;verticalAlign=middle;fontFamily=Helvetica;fontSize=11;fontColor=#FEFAE0;labelBackgroundColor=default;endArrow=classic;fillColor=#BC6C25;" edge="1" parent="1" source="yBlYgujM2W9td2w1A4_b-18" target="yBlYgujM2W9td2w1A4_b-23">
          <mxGeometry relative="1" as="geometry" />
        </mxCell>
        <mxCell id="yBlYgujM2W9td2w1A4_b-18" value="" style="shape=image;verticalLabelPosition=bottom;labelBackgroundColor=default;verticalAlign=top;aspect=fixed;imageAspect=0;image=data:image/png,iVBORw0KGgoAAAANSUhEUgAAAJUAAAAzCAYAAACe50q8AAAAAXNSR0IArs4c6QAAAARnQU1BAACxjwv8YQUAAAAJcEhZcwAADsMAAA7DAcdvqGQAAAeUSURBVHhe7ZxrkusoDIXxbCx4ZcErC6yM+TGR5+RE4p3c7hl/VVS1MQ9JCGGwO1vOObuLi4X8xRkXF7NcTnWxnMupLpZzOdXFcraVD+rHcTjnnLvf73zrR5NScrfbjbP/F8iYOeec936NHfIiYozZOfeSvPc5xshFfxwscwiBi1QJIfwKXRFtzJAQQg4hvOXX6CtdwHu/ZHD+BGI4zbD5afwS2uD8FidjmXNBn1beLTjIqADfIMb44jje+5f7pXti4Nok4UFwzv1ap8rKRGO7lFjyoL7v+8t1jNEdx+H2fXf7vrtt297+Po7DzJc8ScdxnPn4DNAKPyfEGF+uEe/9y7WUjTG6EILaP+d5713O+a3f38T9fnchhPNaxrQJ9rIReIZ+Oo1itYGzkqNRS988q7mNGUba6qlTk7tFf2Y6Um3bxlk/FoxCOOus3WpK6fxbok8LHO1mCCG4bdu6UikS9yLRynvf3O7UkcK+72dH3vs3Y8YYzzz8W64lTwTm+gKWDSEMLyvHcbyEdFRdJkcI4XQyLF8yE04s7717PB4v92cYmbSoQw1sv6deiSGnSim9OMAqYb7Bvu+n7CIz6oO6yKSpOYoMzKzTa7DDSh+IXGM+l2Hu97s5jhKhb7fbS7TmSOWtcy1eD2to281VuxxpJ8Z4Jm2d/wSl54oS/DzlvT93ivI338frGpptS8+AAsv1iWT1XdeK4Ia/kSzhW9DawpQbBokHCMtw+71phJq8WZH5E8nqu1mrGOPLLPuG0JIs4VvgtlYkkUeL2r1phBVOZd3nSFpKVt9VrTTDyUEY3wvP2c/hX8sXpThP/sZ2tSWgFZa9JaHBWRa5n5WB0+TUysiyLnbsBdsUWUbQxq8VTVehyanYMMiIQC3gYM4gjhrotQnqwxG4BN7HeiUHwb5q7bewyqmyMulW0NWKpxfEK5VjViuK4AwV5Jr1K+mFMlrleEJa5XpYaXeUbZWtuw4/H4+HvoUcPKSz0k6vfVbCxweSJ8i2ed93F0JwIQRVHn5lYZ2xMa3lViKvuVqwyqWU3LZt5n2ky6m+BZ+HrAQHVc6jtP4wLyrvvfhMyJpsTGu5VWzbdk6OGcQeEjxKLHUqOZiTQzo8qON8Day/kpTS+UJaqBmZT/gDvExmBxOs/BnkZTsmtJEMMpaTyMuDjxHZQptgKaU3e2nR+4TXwx5Wru3MinVe22Q4ZZeGZfiBW3uI13aEXEbg/nvh+i0JZahtJriuU2Tk+6HyrdjSSPUpWmaYhhb2Y4zqEiRlubxce+/N5RIj2uooW6PWH+oTY3yJZBYYcTki5Zzd/X5XbXjCXtaDNoskT2ZIaVZj8nCmxfdm0CINIv2VZh7fi8+DYMlHmZla/y1wPWyTZeOyWYmsGLEwH8cuVyJ4iXcrdKA5wCfSLFYbmvwjlJxqtm0N7E9zIg2UA+uwfHht1akxtfxZy0AtJPcy+wD8j63qrJC7trT8KWSDJMuXU5Y2Z2xgcOlvYcqpQgguxuieEe8cFHE2UaI1YVvx+fnu7G7QcsiU0tukKH3eIjtIqz2B2/wpPB6PF/2O41BlZefxlc9+VDh0zVDbaXwbfre1KvFzTM7/Lhu4TIw+k9QYWf4Qyy7SlpbXw1SkQjb6jLXk3SkldZmQPIwKWrlWtJk4i7c+THti9TkTbVdyHEdVFrxv6VOEvawXy+t5xzGaRmYKIjtKTCwb7uIwCmm6WWD00PK06DZKLVJpedlYSVA3qYftj8huW6kR7Hx1sowzCxutRGs5zala6/ZSciq5p6HJg3nYFuZb7VkML3/82oPxz1curUnqYP1amB6FNxIWuPTWZMEHXH6gr9WdQdpOKZ0vwZn0fBkstMjDZboeQ9jLWuDlQw4CRw/6uO6gWE2UZjnCS18LrIOk3uWjBuqg9YmbAtaDdbbucT3XaIPcs/wF+LEGVgCNxgrXDKoJX6szitaX6MXGxsFqlQfbFzus3PUJ2jhIQptzOdYxF5xKu9+qS9WptIGoddKiTFRe9mrlVqLN6lqydLTg+it0EltJ0vQItMngMpYe3AbDY2S1g1SdCmFFSrAwXJ7vaQp9Eu7fSj1yaTr31Nfg9jhp7XMZVxirWlu5s73c61QyY1qXA83IPINKynwLkcnD/+mhnB6OJSw0XWf1K7UpMjHaylIarxY5tTZL7XY51Qglw5QU+SY1GVFWNmRQliNxQMyznKBGiwwMOkFtueK2LVgfSZosH3EqMaoliJawDiaN0r0WpD47g6NBwOc+Np6lG9fX7vfILv3UnIORvlluBmWryYX2KpVt+i2F2ktU7WxEA8u11rFoedHJn9OWkHM16xUM2sCSXfsAMNHvFSAtOsj5ELc7ynEc5+8lhOcHAUJY9ZsY7GUMztbe1BJRRtqvtSlokQKTRI3abK7JV5MnKudwriGKrGZWj1aqTiXUBFolHLelpR4suXvh+iPtYL0ZG83A8n9CpqblzxXCOL5iWRWiBf7mKT7/w6U3RMt/oAi99Z2i/+hSIT9PpC2V30J7LBjVR6PZqdwH1vffSPoP/OY6/kaXG5xkJbqc6uKiheGvFC4uLC6nuljO5VQXy7mc6mI5fwPej08QSLzU4wAAAABJRU5ErkJggg==;" vertex="1" parent="1">
          <mxGeometry x="-1502.9977971540177" y="-94.99714285714265" width="149" height="51" as="geometry" />
        </mxCell>
        <mxCell id="yBlYgujM2W9td2w1A4_b-21" value="" style="shape=image;verticalLabelPosition=bottom;labelBackgroundColor=default;verticalAlign=top;aspect=fixed;imageAspect=0;image=data:image/png,iVBORw0KGgoAAAANSUhEUgAAALoAAAAsCAYAAADSMaKvAAAAAXNSR0IArs4c6QAAAARnQU1BAACxjwv8YQUAAAAJcEhZcwAADsMAAA7DAcdvqGQAAAiBSURBVHhe7ZxttrI6DIXLnZgwMsvILCPr/cN2bbdJaaGox9dnra6j0I8khDS0eIaccw4/fnwI8zw/fB/HMVwul4djexh+jv7jU1iWJYzjqIdDDxf9OkdfliWklB6OXa/Xh+9gnuduEQMsy9KtP0S3lFK43W56+isZhiGENZKnlEKM0b1+TeQCMUY99PHEGHMIoakAfIfe+Kx18Rf1tM5Ru2l/LOO3wzbsYUtQjOi4u8J6h+Eu44gZYwwxxqcpZxzHEGO8f8bdiWMeKaVDEXGe580xmHEc79GS9T3CUR2sKdzr05rBtO3lcgnLsjwcSyndZzPto/cs14JGdE/vZtTzGY0qNWUcx6djLeXoHYxIUCtHSuneVs/tLT2A/KyPRUrpafyjxRvrFbAMoZMtc0tE30KjiEaZWo7mZBwNMdNAFvTLUZ/Vn6bpXrd2VsBYPOMVTFoN61Hq14r+Rzl6DY4An+NM4ah+1+u1/DCK6Y6nDn3Ymuc5XK/X+4MThLvdbve62sajtl4JTV0s9diYfEG9G2CLmjH3oNO4yhtWm2HsGodAyqLgBsf5dz38ss4jpb9HyDn3mxt4Cj2afhxBH+QUPs9pS6Z0wWpXYmvMvWga9s6U4lXAhuM4VqefWyXnnP9T79/L3lTl1XCE0NnDinQ1aJTtDUfbb4dnp73Xw6Kbo/8FeOXBMiLfBKjr/eXPupt3FpbM3wbf1DHGkHN++pxz3izI8e/BQaeOvfD0/ampC0+Flow65bUUHrcnMcanFOubUbv24p+K6Dz19043ejw0WVyv16cUa1mWMM+zObvwZz6m52poqfvxqOfvpfSQ90q8iM7HvYc6nGMdUkr3EmO8zwR8XNeyz0Z1PLN4tjoLfvAOHW3Zraezpu5W1Ams41bakmXabOVI21ZUxzOLZ6uzwHgYvxddUpdl3UL+5IclTlt6y9njYRTpCD7zMT6nsC7Yw8D6M87pSgaO63eg348yTVMYhuFevO/TNIUYYxiG4S4z16spnp3uG0ZLhx02tO+5DGZtkpSwNm9Ut1XlJwbaCfbqWFhjtsJje6T1vQ8EFg84OYIP657W90ewKqHnlbHDey9qny1YtpKeFp6/POyM1hjbgo3Fy0M9aHUaNarl6HAYhfXfcgAGzgNaZQ6O7SED9Kntl19l0DbLupPqnT8L6Iexe/lHkADrOfpDEsS5WWvRXSzkkXq8tbQ+2Gr+ClQOi167ca0yZ8P2LEfrg1lJFrWPnj8L6IHCD/sKPxfgYR+f9Vherxv08p4pHnJ03GlZFub5uJ7Dd+4j5xyu12tINHVqv/rXKsmJvCW8KHy73R7OTdP0cJ7BtMm0RPhWmQPZDeV2u90j1BEsWWr1OIuR0iFLPo7Il8vlqS4fA+yDJur5e8Cym3b3jpUYjVhK6ZzVFrpxQeRA9OC/Vr97gRyt/aoODOtgnT8DHq9Vlxq4X1wLpcuInmFZQWuKOgMeU+UBbHSGUxfl1XpkGtOTyYLX9EdjDVzt8yp9WA+1+1HQZ6nvw8uL1kPUp4Op20oLMAV6u4JWGzDPcxiGwW27l81pmeC6705RPFr0qaV0XcLRl7p0zbI0mOZU74QdoNYpt5xmoLXfcRy7OvzW2EyrE73jurToU0PN89MhR1ej6rJOyfE/BS8CqgPgnOq8LMvTrDauS4Lax150TA8NPFsX32Oe56e+epBkU1E3yPR46Ri3qdJTc5kWONezciM+/yo0B/Ww5C61s/rVY9rfUbTvLTB+qb7KbLHVRyvcn47fq5yWo+sdtoXete/Ek70UGXS20o2psLbXeq8Cy6WQSWXz2LoupWXYVmDfkp1bwVLw5qynnl+Dvq3ndcPnX/V0rxFDiTE+bMawXKV2WTad9PMZsDyeTNnQWfVitK4Frz55dVrQMc8sXkQv/jjag7eYw5p7Wfno3ndHjqCRNuf8JC/DcrG8lk54lQDb2OHkKK65v2VD1Tc4sgPU54IIe7lcnvqL3pZ6AzyDqt8EeZhEHq9/IWsJ9Gf+sFs9fwu+07ea19brieaD2ZmBghH1auTlXDCe/OsfyKLr6Bhb9YFcJVh+vZY6XjBs9Ffxr6iQ1h8etBiV69Zy1LgqI9CLaY1htVPUDmelLdlxdO+mbZGD23jOHiqubw09+qgF18Ya07+ighohFJwBtNQFrfWVGkf3KNVR43Fdq34P0K81ho6v8pXQtl45il6LFhkZtPOcOBs6ab0qbay73oqISqvRNFqN9JZbLWpcUNOP1S6TXBw199qkFtYDn5W4ph+t40IfOI6W1v489FpgTD7PdaxZyerDwroejN1qJaVkdlBrCG9QDyjFY7aihmlBdYQj4ZheCMs2exyPUZurPj0d8WzUPuzkXh0LtbHVTzZWi/h6mT2rcbm0GLm1nY6ljlWDyt4CxlTjo6iBdQbSMq7vSdfojhtL+ygVRMQzgVx7UHktO2hwK9VB8fzCuh7o7768OM9zSIVffow7/h+fLo8xWKLzxgsby2Qeujy2qrcJZLU2H7D8ZS2z6S92LLb0UJkBL+3VjBMObsqUrketHQEv6ZZ8B0u2sLu3nKm+5Mlj2TJn+t+Letdw2XtHl/q0Ctffi45ZA7fR9rW6qy61Y2dD5tK4Wu8VpRXVx9MFoE6pLvdVqpcNG8UYH1MXK/SXOqzBSwNKxZq+alEj1/Rl6Y20owXNrVvwcksLpBN7bOsVL2XbksVC+9gC42zV5z5L9uWbAfWfdkZ592/s8AvwsPbpTYnK0TF1F9SbChWeGmvbeCw7//010kdvmvdg+ybaSezBVtrFQI7WnVW9Zl5aUpu+BKPuk6P/dfSm2jIyM01Ts5N9A3tvTEUdtpSbM9rOuzmmaXp49rDqAAQN5P9f5+g/PgO8FdnjBurBz9F//BPsfh/9x4+/xM/Rf/wT/A/Xsu4FVtGfZQAAAABJRU5ErkJggg==;" vertex="1" parent="1">
          <mxGeometry x="-2058.50443359375" y="61.99886718750008" width="186" height="44" as="geometry" />
        </mxCell>
        <mxCell id="yBlYgujM2W9td2w1A4_b-22" value="" style="shape=image;verticalLabelPosition=bottom;labelBackgroundColor=default;verticalAlign=top;aspect=fixed;imageAspect=0;image=data:image/png,iVBORw0KGgoAAAANSUhEUgAABBYAAAA2CAYAAABzwRqPAAAAAXNSR0IArs4c6QAAAARnQU1BAACxjwv8YQUAAAAJcEhZcwAADsMAAA7DAcdvqGQAACUqSURBVHhe7Z1rlqO6DoXJmVjIyApGVjAy7o9m5+5Sy7Zkm0eq9a3lVSkwtl4WjiHw2LZtG4IgCIIgCIIgCIIgCCr4T24IgiAIgiAIgiAIgiCwEgsLQRAEQRAEQRAEQRBUEwsLQRAEQRAEQRAEQRBUEwsLQRAEQRAEQRAEQRBUEwsLQRAEQRAEQRAEQRBU808sLMzzPKzrKjerrOs6vF4vuTkIghOxjlfGcoylThAEQRAEQRAEPv6JhYVpmoZxHOVmlWVZhmVZhsfjIXcFwV/M8yw33Y4eMvZow8M4ju4+x3HMjtt5ns154Gy8ugZBEARBEATBnfhrYeE3X7F/PB7D6/XKTuKXZXl/fjwerrsdgn+LdV2HaZrecXJnHo9HdRyv6zosy1J9fC3TNFXlIozzFHf1113lujs5XzPStq3nurPHg+TxeETMXMS6rh9h99b5y1V6to7NO/Obdfsk1nVtGhtBXz5hTKzrGudcA38tLDyfz/cV+7MdfcQg97bJCwt3vboZ3AOMlaHhS/CZ4Iq+NyniLp5xHIfX6+UeU6145R3Hcfj+/pabf3DXsY2FqpaFoLszz3O388s8z+/zVS5OXq/XME3TD5sirnPHpXg8Hu/xcAWsB2LmKln+RaZp+oicj7s1a/P2siyX6Imx+SpcCPpEpmn6Mce+Wr+WL0vWmLrjYsqVc5reeBcQ53m+lT/kedyjyxUgJ95dzmG3bc3YbmJLMAzDNgzDNo6j3HUYR/Q3TZNZF0/dIGDGcbxt3CCmh2HYpmmSu4vwuBiGYVuWRVbpDvryUNIReqT2L8vSxX/TNG3jOLrshPjhcgWazMuy/Niu1bGyLMsPHVvtLduzFPhfxnVLabFJLdy/N96Cdjj2UjnlalrjVI6Rs+KM8+E4jqfYt1f+z6HZ8wzdSkAuj3/5GAbHczs8P7qDvpsyNu4iV4qUXzgPwb4o+J+3y7mG9N8VyHFxd1+wDVN+uQs1Y7uV7Oy1ZLxlWd5Cc9BqwS0DOxfsPQ3AAVtqk2UIAg8yud+J1mR9xbio6a+kJ+cqCfvPkitKwGbWdtjGmnxnwTY4u9SC4+V5A5/5HDCQfdnnbHP5Gec5tCdjRfZ7FppOwbnIecud4LivlY1j7Mw4a5XbixzTR+nJfVhyBnLPGdTMYWR8WMsdYHksvjiCcf9uZOl/yPiFdZnou1eqSH9Y+j8KmaeulMUD29vKVbZe9kVTr7y1smZHuAxAidzfu/QAbVmM6akbBJLesduLVpmuGBcpmfnkKP9n+8ttm3Ly1epxaYX7KiFlvQq2rdwu0ezmRWvXS8nOOdumtpdo0bkXLENK9+BY5Bi4kx9Ytlq5rtAtN14lkEv6oVfpCbdrtaXHFj2QdmQ5NZlTdSVH2bQWludKmVL+lXYv2Tm3T6PU3pncwQ811NjvSj05jqwyT4n5YImihiWny6s52MZ/5XZtG6+WehQvYW2Pja7JaUXaIvgsWnyHFcHUqrKFUpx6scZ/il7jwouWc2SOOLrU2gx4Ejlf+fwk2F4tcV8Lx0TKxin5+FgvrPdVsAwp3YPjuasfWnOKzLdnwXmzBOs4iFvBcTWY28M23if/8ude5zxpS8RKqWjHHA3blHPmqFxNZtlytMZiT6QvWlgafz6j+dhSUn6wxge3dSSwdUou9kXOjrBzqp0WZJvStilKNud2ZMzljmslJz+PQ0v/LG+uXUkxqjjwj6ZGgRxslBzW4C4BW7W0EVwLTug1wP9XHa/ROqasY6g3qT5TeljG8BXjkxN5zg9X2bkVlrtn3Fphv2v98/lLs32tze/grzvI8JvQ4scCx6AWYxam/ctsT3LjwgKPndo2asidB7Gv1s5XIL9UTMoCglb4GHn8kUh5YWvN7lwvh7XeGXi/XOVAO7VjF37Wjmdbs/00mXP7NGr9IWOUy7JfZE7FsKYj+wILB1qR7cg4rEW2fXbRbNIC7JXD03+tvI/tz8FJ5nl+P8X2+XzK3d1AP8MwDAWRTKzr+n7y+zRNw9fXl6zy5vV6vZ/ujyfKe5+iiacYg3Ech2maDrVZ0B+OBQ/jOFYfN4i3kWB76c0Gknmef8Q5xlQp/lPwmLSMf4yZmr4kj8djGEQuWNc1KwOOSenbao9aINeQ8SvX6ZH/zoLlPtuugyHPQz7N7nys1+Z38NcdZPhNPB6PH3mO8yme/r0sy49tz+fzxzlDO56fHI59nMu8edZCj/kUx1cvucC6v8JYA3KP4/jj7T1yjjXtb7xgueQ58A6k4qMEjrtiLskyb9s2zPtT+2UOteYg2V4tubixgvgalBizImNxoLY88Wedk+TOY7y/1A6w+k3CfoQd2Z5A24ZYhnyco6b9OybPh/m8ruGROwdysfxb890XcwqrH3oDmXO24XnPkIkpWW/wxFdpYWE4KVn3OBEy1kTG/Q674VKBnGPcv1iyI6aTTwZBGxhItSebVrS48yS1x/4KPCQJjAEt/llXLakMhQmRnHQjAQ+ZROVBLixwkpOygNLJ1XoS743MMZo/SrLflTsvLJTOKXystj9H7cSsJ3eQ4bcgx+iVePMnFi5kfp4yE8x5nodRfCmXyBycA6+us8ot7Y3zB39Zs/qDx/zj8fgrD+So+fLgQX55ssrFXySnC+aRyI2wy+v1GkblS7P1vNUrV8m5BmyL2OF9gOcNch/H2KLM3wG2wyZcD0z73KI0rhjrnKRkP6sfQKk9LxyvlhxgmX8CuZjhsW8rXrvynMKi2xE8Ho+iT+UFVK2+zNFanSTyFoar4FtSeoC2Srdu8K04QN4KFvwbIBaugOOfbwnzwDHLRd76p93+pd1aJut4S45J/KaVi3Z7nGwb8rLcmg4SWafnbXUpOJ+k8hH2e31+NeyTq2RP9Z/aDtgvMgZLhfW+ijvI8FsY99/cS7TcoOUexrod/7MfSzGrgXic6JkAsg3um/OrlAlwjMvY10qt7JKWNng815SaPnOwPCk7a2hz0qvRdGC/l4BO2hg7E/b3HYANS7EHmVP288Zwbzt4+0c8yJjSQNuWukfAsVuSgceE1Ra9sfQtc6VGaX8O/xEH4UlSJTzOTfXZYtTg8+gZf1569c0xi7jnbbkix4lXplJ7ElnfUjSZLH2l4LaPhnXQKO0vcYYOGtI/V5Dyo7ZNwsfWlivgsdAqw3Ch7+7CVTaQfqyRQcajt2h9yjreUoOW371IOTxFs0MLte3iOAvWei3ALxKPv9jOV+GR9ywgUylGSrFU2i/p7Q9P/1adN2fdo+C4KclhrQes9TxM+2JviVIMlPbn8B9xED0HvbxCmwJ9aquALUYNPguOPS0WNuVqUy9qr2poWGIecL9afYwhbZ+GxYYSTV9vOzxOR3q6Nwrv53ratiPJJfvW3IdjU+0fCduwpf+WY7X+YdNcu7mxtyzLe9si3nxkWe0/A/TfErs8FqQN/gVKefBouO9a+3P+QFu5wnVT8YN9OSCv1mYNHIu1sA0ssA1q7a/BNvGA85aFXP4qAfksx6Vk8ugI32rtnMUdZJDAhqV4LcV1ab8E9S2+K+GJg81xZzDaTfnLEru9gH4pWTaHLwHGb67NGiCHhSGRA1rPi8XetU6PwBucOdAOB4PUgw2nwccHvxeezOQGkTdpWEF89qCkA5MbbzUJj9uz9J+C29Fkk6DemPhZhVY25cuhpa8UyC2cY7Rtch/gGMS+af+iwXXZrtgn7SXbPhruu9bv0METbwzHAG+zyFPre9bbC/zWWqTtawq3we38C0j9U2PnKHug/1S/VlgPi6xavmHQnqUtYLFjCanDsudoa0yivkd2b30Lck7BOuA8NYpXXmKbVp+PwfZJGbteu6O/ku6pOpBB2ydheVkHqXvtOaAEx4bXTkfi8UHOPnK/do7Zdj+wvYeK85eE/VrCGjPwV0pf7Pf6slSf9+Pzsr/qMicPx7fsg9sBXD/Xbi2aHBqpOjl9LGSjCo3XNOyFFWmBAyDnNOxP6cZOD34vnMByyY7js1TXChJ8LyCfRbbceMPY8MDtWfpPwePOIkNrn9Z+Ukh571CsMaXlvmVfsND2STB2UGp8wHkaslv6BiwD6z1kcjuDY72wzF6k3WA7aYuzyqjc3WOx3ScjfZAaM8hr3rgs0XNu5c297GuNnD1SsC1rYB1gE95msRX71GKHrcP5QwLbTsqXf2xLFU/dSckXU4UOsg1pY8ilgWPlMRpSv1yp0aMEZPXGNbCeE71wvORg+2hIG3pKCzzmcvZZ6Ms5YmHMXAxCm6k6LH/JdkAed8di1aVEa1uQp3a8DNJhKefBwSlyQWWB+2uBjZFylsVorPsVSPundGHkZIlLTtegjPRHa7xvHcaMxBIjIDXeEEOWNhhuz3sskDaWsmm09JmygZdJuY259D9jmfTkjpc2y9UFckLZo/Rs06IDwDEcA0PBngDHemFZr0COt9L5Ofgbq91aYjPF2HGhQsZCCR6nErTlla11PGgy8XzGAte32GEzzgWtwHbclkce2MBSd6vwewq0IWXfMhcZvL7ZEud3lh/FG3slUrp56GFnDY4ZtoEsbCsNr3yl9qywbDlG8XMa9klOV+gkC+cLj19lbMn/e7ActAjlAXasoSaPSgbpxFJJ0SIEKPVRQhoT7bFc1oFg0Zlp1V0i7c5F60sbkFoJ6pD2vSO5+JCkxoEcQ1a4PUv/GtLGFjla+7T2cyS9dPDqUdsfkP5KbTuSVNyl4ltiqaNxpo4aUr9pn3AF/bna1yVSYyCFjB0mtb1Eq41Sx6a2p/DYYesgN6P165EHfrHU3Sr8noLbkXZIte2V9Spyuk2UM/EXdXg7H99bZ9m2pWh4ZSu1ZyXXL2+T+3N9s83lcUyujVpy/X0SLeOT7V/Lf3iH6rK/7x5/+f2Vw/4ezz++1MH7dl+v1zDPs7ngHcx4D3IteOcm3iE6z7OsMgz7u2oHxzuSLeDduqk+Pazr+uMdsxpSdvRvodXOwd/2/00gH9yFx+MxPB6P4tjC+JvneXi9XsU89Hq9iuPsE0D+HOhd21Ys72XOoR3PMuTOF0fz9fX1liWV82A7r93uinxHe9CX3x4nyIep/UfBOYxJbU/B54hlWX7kej4v4P9e+R9ztnEc1Zx4d1Iyw55a3GOOkDr2LshYxnzi8Xi85zr4jHjg/7W50DRN7thMAduO4zhsf36a/v4ehu9i2vexT2BZluH1eg3ruibjpNaOpflgLdP+HVbKta7rexv6xv+yrgS5JjUPOQLYW8a/BcRaS8z99/X1NXx9fQ3P53MYhuH9lwNhWZZkYAAosCzLe8BayjiOw+Px+GGAkqM0LMZY1/UtX0kfRgYQB/W6ru/kMCWC0kNOfubxeLz7SQWPtPNAJ9wgGMSkgSdH67qeHicy9hG7+JwbW6zHOI7DOI4/chJIjZU7oE3gSrA+Nce3cHZ8ePn+/h4GmuCk4Jw474vdnOtReDujbTsaLY61bUE/zh5fR6Hpgfifpuk9BzwLxK3M/5ocqTGYg7+8ofD2Fma6oIV884nA9mwTbGM/rHThqybfYF7h9WEN8zz/kHHaL44u9IWdP+cKx+ayLGps1pCKxefz+aMPz/eVs+Dz/7Rf2OFFu2VfHBnHMenvXnbsCWTmRSjkDV50wv+yriyIndI8pDfTfsOAZ57GdWVMupC3MDCe2yHwmxfP710Y6+0vGtpv07g9/OYFny3g2NpSg8UGXAe/T5J953yQ+s1ckMfimxIyJnvjkU/eKoVYAvw7K4usrfaRx8t2sE/Kg221tB7fCutdg7TbmcjcA86Ux6K/dn7YCs+k8RTL+OgN98/bpI5BO7Bzi22X/SntR2AZA4yWc+Sx3rjW4tFC7ve8vA/gf22O47XDRnp7dAXoT5MFeORBe5a6W6W+OdgGmm45X1nB8S1tWGDb9OiP2+uJ1eel/r06sl1qkc85mDLPSpDjK7V9M8Z1yR61sD6MHBupffi8iNdVp9o9mpydJSxnq12zR3s6aHU0lPIaPjUwZXB622YDS6fIvnqR6k+D9eMBXpINdrb0EfwfGU9e2EceP3vwyIc4QF3tGE402n6ml32AbCclS6stcfxVoP9aGVrt3kKqb23bUaRkYDh2GD6WseTIyfjgv6PQ4kb+H/ShFF8lUrmrF5YxwMi6o3iwGrZZ29sS8WiBj6spPEaXxsWbpeKha6X+IKf2xUsWT92FnrI/OPxkRdqX40H6oKXIuOsF2md5W2zE7fQE7ZZkY5tpeHUstVeCc1qq35xuub4tPjvKH6V+a0jNP84g5wMJ5xNvHpRkNfUYg4WqpUaZIZGcLMGZA8e26OMlpUsKyFczCbDWDf5QG098nCweX1tAHFgmJtaYseptrZeCj0MilvbRcoz83wPLfAXcP/vOkwev1EHzx9nyWONOi/fcCX9wnFwx3s6E40Zus8od2LDEVwqOTy49fWQdA0CO0dQxHnm5rodUrt8UOTVwvKZDSmZs5/1eG1phu2hlEosKtaWnzDIvLvuCjbQX5Ebf2Mb1sW8RCyFouzcsO+TtYSPoqsVpC9KGKThGNLw6tvpBxqzWr2WfNlfldrX9k3grRE9yMrdwhKwWtPGgwfV6yJltwdNJKfCPAH1qsDw1QdLTyBYgr0dWltEjJwZnYKcmnqR/PD6qQfZlLSUsdWvsA7TYl//n6uXkKtF6fAuazSy2Zrz1e6L1zTqdAfeX61OLnZyssm4K7ltr5yjQn6aPRe7AjmbrEjIuZfG0VUL2pW1Dn3J7Dk9daz0vljalnj1KL/942vPU3RLnjx5wuyUsdcBR8jJa+9o2Lx6beEC7JdnQd6p/r46l9krw8al+Lft6lJ6gTZZZkz+1X6t7lKxWNJ0kvcfmf/KZCxqpB28wNQ9yaWXZH8T4L4IH6ADPgzau8NW/BB5ew+DBQWcw7k8YxoOJ8BCdjR5G5IkXHmNHPHwG7eMBRamHkuJJ/5rsj/3NEfjLTwLnB/Dx/9JHZ8P6aU/xzT2s8k5o/rgCy7mA6+QeiDXSwz9TaA9FOmJ8SLR+mZLcwbHM+wP9GMQT8m8u9lrhB4Yxk/ONP1LGVGzfJUeN+5vJuMjcpNXx2KQWKYfGGXJYQP6wzFfGcSzmI3B0XmI55Fxi2PvnuYCnQHaLHz1YfW7xxaCM2SOATa2y55Dz0k08KHPa582y9Og7x7Q/oBG5VHsgY+kzytVgvj9l3mbCY7NLjMuVBsazynLUrSm1tK7A4Niz9Mnd0ifh21Zg99xtLhJrP8H/scQT10E9j19aKcnHyNsdc1huk7LYR0OLe7RlaQd9ylvm5G2XvB2fef+ZfgIpe0l752Rj/c8k5W/efhaaHBJNLm2b3Kex7Lf4su1zffcmZfvNec4ObKRsLZE5xXJMD3LxoMHylZA6abmI85WlfyvWc1SpTm6cA2tfXjxtaj/XyuH1uwXYwXo+yeVJRp7TepP6/iHjV84LakpP0KbFf7n+sU/Og7igH2kDL+gHn1PyW/ZpsM+0fANybdSSk5llwWftLwpgfa4il99YPk3vGkx3LFjossrRkaNXR3uD165Y5GZbo751Bc+6uhzYwOuT+CoRVln5Na53wxJngHWwjHNLHTDtV5VaVtrH/VVfX/urc7++vn68+gu+wHZ8Rt/TBa9Yy43D5/M5/DnH/SFlT159TtU5Cu1ui+ECOXJ2bAF6yCsO67oOE10NXZblHVNnwble9ot9R9kl+Mm6rsPr9VLzP/LOJyPHs3beOOq1eFpfR3FmX3fGe2Ue/pZ5UsL2tc5Vrbxer2HZ717O+XGapuH7+/s9Nj2lt8wSyC3vlJj3V3P2yOfQwepbDcw5LK9WTfXj0SXlT08bveA8h8/aX/mq0JQdzuT5fL79z3eeYT4z7PHRLX/LlQYmtcKhcYdVGaZ1FQbHevTBymAtkDm3SidXG7mUrpzlVq2CPBxPsDP7YnQ+dO8IIEsuBoB3vJba5vasdkA8yjbRluWqyZS4K8Sr30arzUfD4zAnX8mmvF/a8EhYfumjGrszkzOHWm2g1SnJKm3PcZnr60gs+iIvBX3Q7D2J/D8l8tAZWGKCQV1rjHD9lI6e9qzweEtRGsNb5mo2Y2mnBk+bkMHiw63C7xZKftawyN1bTgDfpuTtZaOj48NTNHL7NErtpRiEHdGGZtvU+C3Z0uozre1WLP3WkNP3TOR4SfmolW53LICjV/buDK5k1a6mYbUotcLFv/UCuDoy7Kt70/4bHynDPM/JdgMfvDoO+39/f59+1ftMMK4tK5pWOyCWU21a4vUrcVdIqs0cy7KY+myFxzDGrgbrIMf9lbAsZ9jLCnKf/G2jzIWS1DkL25f9t7nI72ffoZAiJQN8UtI7qAOxgHGw3fzutJ5oOh4dZzLHzPsdgnyXSI6rcufRdmEsdvCg+blESga2Qypn1YD58HTBHYe9wTwyVe4AzqlWHyIe5Pj1UOrrqLHNsTzvd47gs5eaY44CvhjH8Uf+bPGRilxpYHKrLNO+Ys//H7HyUYt11SsFjk3pL+H+eEXIi7wKItuVBf3wcaVSK9u/DPvhLjEugXzWeEd9K7m44fiygPyhtdkjl6ANqy3kXQSaXL3AWLXol7vaxjF5pLySnK9ZphqQ86xoeT6XC9lO7HMN3m/x1RlIXTVKegU+ZAzB/meOuRzaGMjBelgZMjmmdcyn4DjG+YL/Ryn1jTq5MXzEmJF+4TLSXY9SN1kfddCe1BvbPCz7c2Jk27U2wHFajHjOdxbYV1p/DOvltRHD7fTEKluu/9y+FKjvOQbxwuTk53jVtvM+xCD6wP5xnyNOlG+5jpSnFbbLEeUOyFxzhFxVdyzw1RvQe+Uo9fTKK5BP+ZzFU+e1lfPR8bRc5vv7+716JG0sGcfxvVJr+c3TsLf56au7V9N9de8CamKzV9zgd10cvyUwzizl9Xq9x800TaZjpU9rx2+JdV3fuTI3tgHkKuVXqx1bWNd1eNCdACWZarDYpMT397fazrIsP+xUkv9Jz7oo1T0D65W/5/P5jpvUk/wDP+P+tp3tw+9QkLnOwrZth+uLK4OYV7GcOF8s+1Pkv+h5OtrxXJALcOeRVrR8cSR85ZD/lpgKzxGw8nw+h6/9OUM92PYnz4/j+GPu/ng8XOe7EjPdeSvz+W8GttPiBPbV9vXkSzy7qoQlTjEmF7oLmI/Ddox/zD8sbbcwJe4gQf7hvyiyLop3jB8Ny4Gc2h250sBgNUO7ypNaheq1giTb96KtilnhFVHWn1fVuEiWDr/V1laVUHI2lit+mh5nc1W/PWmJJwu8IluLRz7WpwccZxZy+mqyYdVajjmMNewHHPMYD+hTs4+URavTSm0MSdmA1+atyCsJGprvPHhtk7Mpy6rZcDFepUQfKZ3PguPYQsougY+725HHpUVG1C3FvZWaMY88zLLkSgoewxNdeR8TdwLIwseU+vLizRuob/HhJuxu7SNHjR8Z9gWfd/F/LzxtSd/2KD1Bmxafa3VYP49deumTkz8Vz6VxwTrJY4H13O1lysxLGUsdxlv/KNhuKMiVPcl6RTouFxCtSUnS2k7tgANs+CvBCdga8ADHeY7pjXZS/1Qsya6FHu165DtivA6J3OAll2csaCedlvZ6wDL1kgPt9fJhDh7LOflb42owxi/IjUvkwBxWWaF/Tvcjqelf2ubMcwHOWSX7fwKp+OqFx6ca7GeLj1vHqKSmPW2CK+PF0i7q5GzIuSuFds5oBf1a44btYEGO71Ystiyh+bWlvVbYRqNYYF7oooQcN3Ib69MTTS4PtTbupQ/a0OIPtpf7UtuBJa6PGK/Msi+MTYlzWM35+GrYZtCNcyO29SDrFXQII+cMycHQg1xQWWCDeQetTI6BHxnE+Nzi0yuxJLsWerTrka/neGVfW/ou0SqblqvQZg/5vMix4M1HGr1tnoPHb8knrb7z6tM6Lj2ysg9r+qqF+/UiJw49Yi+HPHd67HtXWuKrBOzVgvf82tsvLbk1N5YsucTyBcPSjqWOF7RnHXMeH27Kl+ZWWvzIQCav/kfQen4APMbuQst3HPZPLTLXj+P4Hs85u6e2g9yxoOd4RVuMppuE55k5+0OH5cKLvXIOysj5XUkfC6ZnLPDvMFK/senx+ylJS5v8OxLvb0i89YO/YRuyL1p8GtyTo8ZLTazwbzo5V+G3uDVttiLHQo/fhXKbud/bt4LfP4I/84J/B36mBP9We9rfQHE0Mz1XoeY3mjwG8FvQIzm6/d8GYqkFb1y09idpaa/1DStHxFuPcc1t9Mj3JbwxkKPFn5yvQE/ZruKOOnDsnxFjEjn2cH7BMxFKtIz7o5H21PyPc+uSeZvYg56/B9uk6h4J9ym/w8tnUkEfbSxbMS0sgFyw5PYF/x5yMSHiI03vB5Uu+wNxHvSgUTykENt7+kOeYHrhbZcToaYf2jvzgXb8YLBpmm59MpWw7OP+4DoP3hMT/KL57gogD/T4+vr6a1Lwer26j1+Ah5wOu/1rY4fH0bQviBwlcwpvLAR2UnkSPmZf88NjfwO1YyKHN89J2N53yWUeZI6zIh+Cye1g7vGp3M2PPIe5ajzLOf5meEVmrxiojVENi/1SecYSF5CVH5b62B8yfjSY+w+FOZz2INdpf/B5zVwhubAgA+DMSTErIuUIPoPn8/nXhDbQsSS2GvhLyUSLO1PnVVOWv2eO8MjIX8KGhBx4Wv6yLKdMdPB2CiR0TaZWjhhX67r+eLPGOI5/rXJbmKbJZGO8bYLj6Az/4DzDcQbdcTKWfvv+/v5xcubV/Z7yruv6lmuapir7g+fz+VecjPsTtnvKPDjHbPAH6RsvcoKPRWT4GH/xuef5pnf8eEH/ubiz6Js73kvpPHRXYCeLvRjkS+i97E/IR67kPIacU/NlJfgDFgcxr5BX1+8C5j48BngOegfOXmj9+vr6Mc6OWuSXcyrLHOLr62vYtu2Hb6rnN/K3EVviNxcl+Dcv/PuMhR6Cgt+Y4HcmvA/buR2tPSve3x0yUoagHdjUEkt3xPK7r1pafivHeOSz/EaN68jfz2lj1dKvBW+s8O/HLDLI/GY5xgv//s4D21aLBeRMtN9Tdm4XbWsylJD2rSlWu3EM1tiCj+W2LHqn9MQ4qYXl6E1KZujfC2nPnm2fzZE6wB8tyDGbg3PlUIhznp+l4L57YxkHqJPLFxYZLX1Z8J6LGO9xvccX2rLaQMZSzgcsK5feeUfSy0aWGDoDtnmJ3NhlH9TCts31BaxzIovPeo3XXBtWG+X0zx1vbd/DJB7ImLJfCTkX5GKZ36gayQZTRmNSiaO1lIIwRYtxZcIM2qn1xV3g+K6NSQ1t3NSC4z3j1VJ3UxKWVnqB9iyxwjJZddmUHDdQwkSpoSXvgMX4Kraj4rBHuxb5U8VjN+7Hc9yWiQFPHEk9W2KHzzs9fJBCnt9SpYcMsE+tTe4A+7Y3bG9P3DHeHMh9pkAOkmME8a3FfW+4jxRSjh6lhZY2cKy0JducS49zDWO1Affdmi+10iPvAO6vZKOcHpZYPBrIYLWPHLuwgdxeC84jFvick7Pz5vBZi/yL4YUErTZinTU8NinB+pTs5sEyXtEf96lrvOMVUHbWWlrgdjw6gF5yBH/4dFtaB1iPUov3+JpxkbJDT9BmTj4pR65uDqmHLB56yCORevbuQ7bfo00NKbtWavpm+b3Hy/5rgQwttOhRg/R7qw1S9LDNlUg79US2Xet3bsdCTX8yTmQ5AoteljoWerRTY1cmd7yMFVm0Y7xweylkv7Wk9OmhB8P9lNqWsrB+2rYzaek/Zeva9mrw9JWSV6tT8qlGrl3GUieHJfZK+y1Iex2BtFmqvOv/OFqwGG6FY7DKrRW0I7eniqdfDVbW29Z0gqP+JbCS5vXDneDVxSNLi428Vw9q4ZXRI/pE25OSbOXKbGq12YrWHvKPVS/OF9ZjPMgrDK16S52Rcz8Rtr1HBzmePcf2hq+cnC3HtF/BaomnHK2xegfk2GNfwXbyMwr/Lz/LNmt97z2+NkfJMcO2OAIe2yksdSy0toPjW2xh8WMqdmp9ynC7zCLuoJs6zM830W5O5xak3CVy41OzzdHwuXpsnGuxLTw2aYHlt8rOciJGevlDHpvTX9ZLFcwVeZsmr9aX1zaMnMfVtOFB9pfSaSstLHwyULwm0XNgpwwX2IAtf4MdteSR+oz/EYO8TdZH+RRYryNA25wo0Sf29baXt02ZZI9O6qx7a1+It9Z27gDiwuM7sOxflGqO7QHH9G/whQTj49PhcX5UaYlBTGzPAGMG5ch+LecZHkMtWPpK0SuPeGIBMVkjbw7EEuY6kKnHeecKWAeLXRkZ60fYO8cRPm6xhxe2nyd2cvmM5a/RAXE9GeY/sq+WkpOzJAcziZ8hWfTozbLPfXM6PbY/Ce3XgSdY1jyVF08KrTk2+AOe0r/s77a965Nrg/uxruuPeOGn0d5lTPLThM+QSdok+Fzwxodxf1vLb/Tr6/X6VbkfT+7u/QTxcRw/zj6v1+uvp70fAcZJLobm/RWHuToWauZ8iPGx8q05EryJx6LHPM/Dsizm+rV8+nkH8TFVvtUOxw8nvhkPfR51fni9Xl3iNcXRNjvaPhLX2xAUeul/x3lwil+7sBBczzzPtx8AQRAEQR94UhlTi+A3U7MYEXwW4WMfuKCIhfMjvvSHT+5PLCwEQRAEQdDMp1/hDIIgCIKgnlhYCIIgCIIgCIIgCIKgmv/khiAIgiAIgiAIgiAIAiuxsBAEQRAEQRAEQRAEQTX/Ayo7o6ponJ8IAAAAAElFTkSuQmCC;" vertex="1" parent="1">
          <mxGeometry x="-1865.50443359375" y="56.99886718750008" width="1046" height="54" as="geometry" />
        </mxCell>
        <mxCell id="yBlYgujM2W9td2w1A4_b-23" value="" style="swimlane;startSize=0;rounded=1;strokeColor=#DDA15E;fontFamily=Helvetica;fontSize=11;fontColor=#FEFAE0;labelBackgroundColor=default;fillColor=#BC6C25;" vertex="1" parent="1">
          <mxGeometry x="-2090.5" y="21" width="1324" height="120" as="geometry" />
        </mxCell>
        <mxCell id="yBlYgujM2W9td2w1A4_b-26" style="edgeStyle=orthogonalEdgeStyle;shape=connector;rounded=1;orthogonalLoop=1;jettySize=auto;html=1;entryX=0;entryY=0.5;entryDx=0;entryDy=0;strokeColor=#DDA15E;strokeWidth=6;align=center;verticalAlign=middle;fontFamily=Helvetica;fontSize=11;fontColor=#FEFAE0;labelBackgroundColor=default;endArrow=classic;fillColor=#BC6C25;" edge="1" parent="1" source="yBlYgujM2W9td2w1A4_b-25" target="yBlYgujM2W9td2w1A4_b-2">
          <mxGeometry relative="1" as="geometry" />
        </mxCell>
        <mxCell id="yBlYgujM2W9td2w1A4_b-25" value="" style="swimlane;startSize=0;rounded=1;strokeColor=#DDA15E;fontFamily=Helvetica;fontSize=11;fontColor=#FEFAE0;labelBackgroundColor=default;fillColor=#BC6C25;strokeWidth=6;gradientColor=none;perimeterSpacing=0;glass=0;shadow=0;" vertex="1" parent="1">
          <mxGeometry x="-2256" y="-966" width="1638" height="1174" as="geometry" />
        </mxCell>
        <mxCell id="yBlYgujM2W9td2w1A4_b-27" value="" style="shape=image;verticalLabelPosition=bottom;labelBackgroundColor=default;verticalAlign=top;aspect=fixed;imageAspect=0;image=data:image/png,iVBORw0KGgoAAAANSUhEUgAABkkAAABLCAYAAADUDmCUAAAAAXNSR0IArs4c6QAAAARnQU1BAACxjwv8YQUAAAAJcEhZcwAADsMAAA7DAcdvqGQAADkhSURBVHhe7Z1rkqM8s4Tx2VjjlTVe2eCV+fx4nf3l1JSk0g3jdj4RipkGXeqmkjAGXx6Px2MRQgghhBBCCCGEEEIIIYT4MP7PHhBCCCGEEEIIIYQQQgghhPgEdJNECCGEEEIIIYQQQgghhBAfiW6SCCGEEEIIIYQQQgghhBDiI9FNEiGEEEIIIYQQQgghhBBCfCS6SSKEEEIIIYQQQgghhBBCiI9EN0mEEEIIIYQQQgghhBBCCPGR6CaJEEIIIYQQQgghhBBCCCE+Et0kEUIIIYQQQgghhBBCCCHER6KbJEIIIYQQQgghhBBCCCGE+Eh0k0QIIYQQQgghhBBCCCGEEB+JbpIIIYQQQgghhBBCCCGEEOIj0U0SIYQQQgghhBBCCCGEEEJ8JLpJIoQQQgghhBBCCCGEEEKIj0Q3SYQQQgghhBBCCCGEEEII8ZHoJokQQgghhBBCCCGEEEIIIT4S3SQRQgghhBBCCCGEEEIIIcRHopskQgghhBBCCCGEEEIIIYT4SHSTRAghhBBCCCGEEEIIIYQQH4lukgghhBBCCCGEEEIIIYQQ4iPRTRIhhBBCiMHc73d7SAQYYbcRfQghhBBCCNHL7XY75d70drvZQ+JknDFuctzv97eT2dJ1k+R2uy3X69Uefhtut9tyuVyanXgG/ZXY/gO+uFwuy+VysafFIHrmixjD/X5fbrfbT8y/OgctykOigev1euq46d0fLMuyrOt62ouiM7NtW1d83G63H9uLc4A1Sz75XC6Xy6/Nh/f7vXu9OAPYV55Jj9o97plzzOVyabbvO8bYmWWOfoh35pwV1eH+vG4U46n5zGnbtp+96Vn8cb/fl23butZnfPbW0vZVjLjGOxJcF70L67ou27a9jX1dHh0sy/JT1nV97Ptuq5yabdv+0mHbNlslqxO3X9fVbT8bjN3Kuq5d7Y9m27afwr7zSs53n8Bo/a3NXxHvn8a+76eP933fH+u6vlSGUby7/L0cuY7v+/5YOtevmSCmUWrl9ObsUbZ9d3rtZn1X2170g3XL+qJlLkU4ej+CdU/E8OLgt81LG+PvqJ9dt14d4yxPdI6z7NE2R8G2tbJhv58Ce6az6pbCxtNZ5gVkKslz5usbyFaKhbPvt6Ps+34qP+TmswfXP1NM2TlqKel2Vr1y2LWupOOr4fz/DvY9yrYz8/OwmyQoI8FF1izsBLHgfArbfnYgWLzxa+ltfwRWxpryyYzWf0S8iRjWztHyKjg23hXocGQOPxtH639mm/fOLZ4TZ9Svl1n7sxHrDLedIaPw8XyXKqP9MqPPHLP0+K1Y/y8N8/rsWP2gI+bFu8DyI75fuZ558uTwfHAWcnrkzj2c/PouWH9A9lfOC2vLkhwl37yKGh2g89l0qOGVMeNh7V+y7SvzaI5cDLHMKawd3oFcDjhbnIGzxo+FbTpTTuvD0TT3yILN+mbA2vmUwxa4iM85EXenUvrZYPXqzMQGR0rOHNw+ZYfZ7PRteRTYvlTwbRrYn/99hS5nouRTtnNknlm7R9qINBzvNq5Txca67e+V8JytzUOvAna0dn4X+UdhbXBULJ31mzERuUo2qv12S8v6zWAtPALYZ8YaALtH9PHOcyx75y2RccTfYB1C4dzhFVt/hs15PN4XzipWx565+9the9XkuWi9s2BjEOz0tO2MnDkSXvswdwHv8ey5mXg2zdEiH/aCvTG3PfNbqp+cbKn4AZhH3rkzk9OL50XKZjOwMnn+YHhelOoeBc9H6FCyIetdqjuLnnFflYM8bK6M2JTXQgZ9zdKn1DfrYLFxZmE7eOfPit3Hpc7l7PYK2B9nkw14di3NjRJYo/n/PA5K7zjMv7MhwBETgpXvGQPB5AVSbtGzxrfnHyZQXwFk7LFPSccRIJhR7CJnCxZ7Ljg3Mvh/O9aukZLCm4/yRx6O+9qYR/2euf0KWKezxkZuceXyCiJycSnFVW85gjNu+CBPKoZze4dHw9rM/aXGLFGSyWLX2Jpi4yQyXgT0HbEb6tqxa+xYa7NPoXbPBp9xm4j9R5KTBX/Dzym9bDtb1/5tbXC0zj1E5tgIYHfYNwrs+0425VjYnHzCtvDOn4VSTNvYn01OFo9aG7NfasZJAft446dkszLY81zHO3dmSno9qE5NjmgF/qkdqzWXjYb3LUtlvPa0HUXPuHaetPYzghZZuI0F57DXGAn73YtdnPPGZR2986xTxAZngeX29DrDXEnBcnn+fCWeXe2eYXTZJn1udnn8Z+wqvB8p2rZt2bZtWZ4/1gLWdV32ff/5ARdm27Zl3/dl3/e/jqdY13X58+ePPVzker3+jLHv+/L19fVzDrps27Z8f38vy/NHjKADH7egbYMJhwC9cjLmuN1uPz5p7SMCfhSK4wJEx3y1rd8RL7YZ9v+Sqbck5tDtdlv2fW+ak5/A9Xr9Jxcuy/JX/kkB3+R8ckY4TpYTzNf7/f6zxnjrDMf/uq4h38yGf8yP4+fr62u53+/L19fXX3a26yqvuZinWH/RZl3Xn5LSGWPNhtfbpZCHjoD3N7CRxbP5tm0/9uI+bF2AmIS/GKyXtfaP2hJrso0HloPjiOtZUKdFXgvsxvbEHLbyeWuX3buV8OrsZo/427H7AEtqDnhxFWVGbuHYqdmT8FytWa/s/nlE/B8BzxGeZ7Ow+ZT/TeGt16lcdiZY11QesXFzRp0ic4L3IKk6o6i9/itd+zB2zwpS/ouSykcp2S6Xyz91LWjbK9vR2P2Q5xO7dnt1erG5L2frFJE5PhvverwGbt9qhx7smlCzBnH+jOaDWUTi2lKS3+7hW/ybwvbN46fyEmIlJ8eRa8FoUnqDnM1eid235/xzNKkcGd332883PL8cRfVNEgi/Ji6cRrOaC+MWY6WCPLUoRzYi3LbShMOo3Tha3iWxlRYV4VNK/qlEZsld1EXmiqjnXW+S2IX76PmKGwwsw2I+6MOGr8a2uNEQjfHb7Rbuu4WWnJibx6+m5WJjBtZGAP/P7Xvs/sHGYKQPptUGdg6+S25OfVgFeC/I9sNxbruZL+CgfsTuNfP8txC9eGFa2iwT17bSficF555oLl0G7p+tHfH3/Xlz8Pt5828xN8qxJoGdbiR6/6KOnStLg82i2ItdnsM5bO7EsRkyjiQaS62xehQ1elgdbDyPoPZaN2Lf2/NLXrxG8Nrcq0Nqj+Z96Ogds6C/9QUfavcS3d9F/NaKvUGyVXwwz0Svm2dwN19uic4Hi93njrZ1CbZhbTyn5tUriOZJJiL/zD18yvfe3MOxko+8tu9A6jNgS4ufZ2NjpEeukWu2zbO5uEkxam89BPtoSYnl+WjLuwG5rew4hkeC8JhQCdTzHtE6ghHjW93PjOe7Wt5Bz5GU/Bu1aa4ffqxOjGPU/D4ajoee8VvbRuIxUsdSo1NL/7W0jMFteuJqBiNkq7FFipQMUVvn/JI6PgOM5elyRnKyRu2W6sM7JvqJ+sUyKzZb+2R5asBcrx2P4bFfXXr08OBcuFTYdqZMs8nlfwb1zkrUb9vz1XP8d6lNLVFZmFJ97nNmnHlyeGPavz28du9C7byYoSP7u4dR/bQwyj7sj96+WuixYTSWZsNy1MgSlZ/7LtWtxfN97liOV8dSL1HZI7Y4ktb484joH2VEPETnyBH8n71pkuN6vS7L867mDPBtqRngzhZzo9eaAHxTo0SLDWboF5G1ROruKTND9iien2rBNzAQw58ObFqKH/a7Fyd8TLY9D/DviLlTA8cDf8uhBsjM396I8v39vTz++60te+ofWuW7XC7Zwv1eLpeX5s53xMszJUbEO+cvKwPiqZTj4HtvfxDtYwStsf0KeH546xFsmZtHvJ5Z363Bb6+LuvkDX9XEs/XhO/uFv43Zyk6vIq4t+OY5/n48Hv/UsfX5X6yT+NvOm17g23VdQ+vx4uSC0TLNhuPZxrqFc939fq+aR2fh+/v7x0f8zdaRunDslGxqsfVvt9s/32Lfn09rHQVsBP/fnk+EsQxWbsZbI1Pk+nkVuTVmfT7JA1tgXvTqwfuDaC5KgXwZ8cPlcsnqW8P1ev0Ztzdev7+/f/oq6YE50+uDVzJDds71M/YxvXGaAz7P+R5xW7Om1cTlqHlxFFgrFspLr9RhxGctC/lh27aifyNAFm9PGe1/xnxqxt41SYE7O/hBlP35w46jfsgGP5Az8gdXGMhr72zZu1VWH8hlj9t2EdDG9lViXdd/2qzrmrWV1dNi/VkCP4hj5cgBe6cKfpyqVGA3yGvPlwq3b/XBOwJdNycW4M8c/KNVJXvN+MGkd2XfdzdOvWP2OPzFserVKxVuj3ZHARlasD+UFom9WhCrNTKyTWHPfd//kg1/o/9Z8j8av2nBbWp0PwLYswUbM6uzXpZAH7n8BfulbLcW1uRHw7rbw1l9zUTXmFyscx8eJb+J/1Frq4jvGNRvmaMlWuMd7VLxk0J7njSteY7j4x3hNTYa39ymdl5gzeHYt8fwN87hGMc912V5bL/4P/eb6gt1R4D+LMj91maoj+MtNh4Rg7vZIz5IFhy35x9P+fk4yx+ldQ7OoGVePExubo0lxGfNuCOwc7BnfJ63R4L51esDC/dZS+1cqK0fpVWHGnk4547G9gmZEGM2XhELNgahj+0vB49lxzkayBKV386JWh2wJmz0OQmO8XH0aY/xWCt9tmP78MbiPjZa060+reyJGAHRXMxy5WD9ZxH6TRLvvXT8rZEZ8Fgt3OnHPpfn+0Vv5j3xd+d9dGgHWEe+M8bv4PPgb0LgG1/c71rxTky2P8ub+hZASmbGvisY/3J/PBYfW4PfZOAxcBcWffI4GBff0EA9/GttzH/DrpBro2/NebZhIjq8MxyjXtzb4xb4r1QPoD76jsT2bwS5ETGZguvYeOUYx/9Tc8m2TbFm3rXP365rxcoDeUewdq4HTG1cL2a92wvvh62p2wqPEVjCl8W0qdE9x4i4mUVNzCAmcrZM2fx6vf7kvFz7JdPHDPCtnRnxNwrET8kWsJudT1jLcr5G21Ex/9vx9vspanJdTb8tpPY7JTiHleKQOXIuvxN8XVWKCaZ2XbbXczXY67xRIB4Wc72WYnd+H2apmCNYe1rBntB+I5b14P+3EPHR3fldnoWu2719C8fZYmLN25dsz/12NB4vl0tV/N6ev3FS8gd0QXzY/TLHA+LA2iCCrReZV0fMi9TfOObZAUTnxRJcmxBDOH83v/nhwfM6NX9TRHzARHKpp0MpBpfOOZ6SJUrrWr00rLv2c6ho/OSolYFh/5TajtjDc17Cvx42HriuF+eIAe+zULa3xesr4hfMTa/P5dmvp6N3nP9v9Wa8vqzsAPZI4a1JZyXiD4/SHo5tYG3N5HwC2BdrxefStRRvkvAHn2y0lkU7xff391+JbGlMnoBl64UnFf9rJxjLvhY+2AdrcMNm9dmcBMZJwI5lbYn+EFg5Ur6Jyh4hshDkPkzBY6i59p9IaiMC/3u2BK0faNibbyPj5LeRi3v4yPpuoQsZe7wHe3HEeQFjQV7ON6iLnLSYeEObhX50lvvAsZw+94E/KrYUbLskxrPrndcO8BzYCxunVlo26TU6RIHv7Dz3bGj9zBcLiCGvDY5xLC3mR4ztePbvHNfnq0Eiec5bh2zOK9nV6+PTuD8veJaE3eFr+DC1ZuFDwqjNI/4R6X2/R2SvwHPE+nAUETk8dJNkHK1rDNaCqB35YtyuPVE4xnm/08PuXLi30KrTKNiPs/YwwF5f9oD4GZHvL5dLOB4XYzPrexy32OOIR+b7+/ufD5e8ehx7tt+l4mYV5pQ3RivevIj2jzpoX9KD9xZrYW/g7d1u5oYh5iL2JCzzSp+3cB383Qp0QI7L6WBzLmwL+G/Ijr5Byuete+oSrWvuUrnu2s/Olob9gYedjzn/eLRcA9wavxRwe94kWSheOV48UscZzAvOtSn4HOa/jctSbNl5PQqWLacD4HnyRV8wiOhwe75asVQvh5ezzkJpXoxc6zl+lsR4Q7CPljC5R17wiNUSeHQmAvc3gpxMGCenXw7IWnrMB33X9m+ptQ2P69khd84Dj1BFdG6B9cPjYJac/jNle2dSdvGOMb2P9tpH+I54JO4dSfnnUcgxo3PvCGpz1CtBfHq2fSRem2RzVA6O/1LdVlrsXaPDUbxaHtgkiidr7T5iOdG8HUWtHWGzFDZWeU3azCsF+Zj3f61H9dTs+dgXHtzXzLhn/0aALBwbNfKV9P402B41pbUdlxq/zcTmrXflaD1K/qv1M+q3gpwVHa8E5MHaUytbxBfoN5r/juTIeMKaX4LXpZp4OUKXveJ19ix/tM2jYb0cSa3NGbZ/DvbvyD2fFze1NozIz8yKOeyNW/uP+iJa7xWcOW96cNydCfYx4sjmIr4Wy8UZ17N9MJG+eslaOTf4jKAf3Z8H5N7MhXYNUcdE65WolTNXt7avR2ObGuzk8oicy9kZ/v4kUnbxjoFRvrY+5ZIa+9PI2QP2y53L+ejoeI/IdBZytn0kNiGsX6od8NqPpsXeNTocxavlGTF2iy9+E6x/1AYlm9s+ZxSRJ2qrUvznzo3E+veoUorlT8CuLdY+1ma58nB86R2z58+AtcO7cjY9amXpjQvoHx0vh82P9u8Sdv6kqO33SM4WT48Oe51Jlx5ZIjE1i56xo37rGSOHnY8t/aNdxGfeeJF2EWxftf1HbRD12Suo1fnVRG1+NCxXSrbSeRCNlyN893/2yZLl+VjT5XJZ1sKjisA+ntiCfZXGLPhxLdbtcrks1+u1qAvLGXk065V4ukDmUY88jcazqaeHRypW8bjhtm2HxdlZgS09W/Gj1v/lnzi32+3ntTXLs3/0BfCop/iPnC165if8+Ip4z+k0m6iuuRxocw3HdBSO+ahM4lhut1vVHidCbezf7/fldrsdFiO32214uT5fdclcr9eiTjU235+/FfN4PP76vz22PV/HlSqQE/VEntpXGtg4WCiferl2Jlj/IqW1HexztG5nxL7+AXbF33Yu2vkLMC9tHXuMsT4Ux1LK9SOpWTcWZz/3ChCfXj69XC7L5XLJyhnNLzwHRR5+dc8724tjq3Zu/Gb4tT/R+RPFzmdej5ALsbe3e2X8C7ZtW67X608e8IoXn9uAa3t7bWtflYS8lMtNTLTe2YB9R8fJbLy4eBVR37PMuTbsi94478beNXk8HycrPXrEd3r4EdLNvOYABfW8Y6gbuXPUCj8ih7tO9hjrhL8tkB11c9jxWoneVQOpurX9gNZ2UazdLTiXGj93juMKJff41m/Cs0vqMXLMeZxD/EcL29f60I71SbDu1g5sbwtsam3J5yzwm433I8jJexRW71HFxnhJR67r+XYEPEaUGh2OolaHkaRssD0fE+byeM4v/hvwGsN1vTaYo3ZdSskyEh6T92EsjycbjqOgTaqs6/qPjWrZGuK7BPo8wta/gV4f7Im9xixa5xLHeQ299vkN7LRvZDiflGixY6vPZoOYj+o+GvgjAvK/Nz+jesB3Xh8jgSzRcSKy5+D4io7p4c0DHEO/vN5aeTmHwtYpUn2cAZ7jZ5APNo/OFeYMuvD8bNHh8eIcGrUfYp/JrRe8Hnlte2G5rQzsEy7efpn7wdz2SopevSADxw7L9HCuF+yY6IP1TuHlwbMAPc4om4f106th/+P/Kdmic5Pr5TjCFnkJMiCwlkQSqC1Ro7TiLYrWufaYrb+ZDWFOVtTl+q2gr+himLJjTR8M61ILt42UzQl2Pu/hnfP82OuHdwO6W71X5zcXYKMHfZDHPuFi/eWVT4fzWalY/zwKcx7nvGPslyNpGRdxNgrPjha2kWfbFGzfkswl346A5YlSq8Ms2QHn6CijY8bCvju6jLR3r41YLuzvjsTG6oiCnLwdrMu7gvmZi0uOEQtsfhQ5WXJwrNeAeKod7zcBG1h47pbYGtYy9lkuPl9Bje6jYVuiRPei1o4RPex4ubo95PpHfmf5rc7eWmCPoVi7tIL8aWVGvyyvHRfncJzbpmBdz8hZ5IMcrXmbffUqXTi+7byNwvF2NBH7pdZXtj+z0w2SXL+tYNz1+VmSJ8Oj8jo0Unc0rAfj+WQzn83yOf47ZQvgtT8LqXg6K6223J7r22hsLHuxBVKx9DDzxstvvCbi71RfI2mOihmBNbo/wAZnWAdrZBxnJ3EfcFAqyXH7XlJJLYU3Lvpoge2U0jcHJieKF/To3/rhEbClPVfq71PI+WyheNoqP8yAfT/ZthF251vnDPKSVydnY3sut/AchZ2DJfbJG1oP2K1l3JqcklpvRsLyRInowH5ZJ384jjW0Jvfk5swoanVme50B9nOLTBy/6GOmvT1Yh9Gl1r+fTMnvZ7JrqxysQw1H5PmzwmupR40vsA7U2LHVZyNJ5UXIlbLNbNg2m7ne2ugazNazRGzMdVL9jMCTg/cq1g9Wv5aS8m+E3N4G/du+vf0Z/9/7m0n1ezSezo9gPM2GbdxqJ89PRzJq/Ff6g8fenJuWdg/KMrL+TCoXjAJjon9Phiis+5HwtYq1U04me87qbm1jKZ0/AuRkSyqezgiva2zLPfGWA8DzKZWfW0C/iAvYMjUGZBhdvJgdRXNUjErUYFagol9PxpIOLI/Xj/2bYQf2Umsbr25O1hK149cS9UNqfD4fqfsp5OzgxXOUnK9EnJwdc/7h+XKWeLeypGRMFU/P0ViZasYs5SiGxxiFHTM6Bp+P6MD9luqOwI5VU87CK2SytiiVGrjdTN/n4FgdRS6nijZaY4wZ5ZPWmG3VYUaMzqTWLjlKetf6otSfpdVno8j5/pWy5eSylHwU0SNSZwR2jOi4bI+akrJJlJxsuTHsOdtHql2N32eSk4Pt+ypGyMA6er6YDevQM/4IW7TCY0cLgP1Zd+/YSLy4tn/XMFteD08HBuc8may8th97nkHd1LhHkZMjdfxssA97iuenFmxfuTh4OLnL1rPxxX3Z+mwL289I3B9ur2XED0Z5P2rWC/8QdUlGb3y0Zezf7wB+IAc2wA9CvfwHcSawPX9U8795JpbEDx8hFlp+rOod58CZ8ewJv5T8s67rzw8Xn4ncj4p5+o74IboSkGn2D7V5+uW4PX9EPFfwQ3oojK1r63EfwPbn9QtyvuyBf7itNIZn05S8RwPZPRlruN/v4Tlg7YV1zx5fKuWyPypZ2jcJ0QPi/Yj8P5pZ68cstuePxI5gXdfQniNiI/b7kTGAH9dF3sXYWJc8udCG9boUfnj7SEbm69K6wfbx1p0Z4EeOF9r75vj+/l4e/30ZtKq02vF+v//IV7KJN8a+7z/r7u12K/pgBjwPvMLzBfMBhXW+XC5/5ZtX6MLYOWr/fgeOzI9HYedeqlgQa4i7NfA5XyvoH3K8ox+QK728VNLn+/v7xwaYN14/s7G5qKYw1+v1n2Pvxrquf133oXjHLd6xWmC/nrxu56v9m499f3//dd6rOwV71ySKvaO10SNyeHSOz9eUUUCWFCxjicW5W5Xqf/QdLvQX7cuO7T1aV/NoYo2dWsj1b+PII3fOEq33GyjZJWf3HPYRO9EGbG/nID9S6fmmJh947UcDeb1cmMLOay9HjcQ+bsr/38z7rD1qcjr3X+oXbOZVhCVYnpY2JR2OoCaOAcdMTbuZ8L6nh1p/pujx8ygZevHiO/c4uXfcHtO69Tds19Qx/tezG/yE/G1tzqA998nzudc36KN2HvL4NXCMjiJnv1ZYTtinx84RrF9nllZsP70FvpsRFzVEx0a9VCyU1hEvR8+C7Vw7v48kYo/N+QatBbnR9oM1zMJ5uAebK1rK+vzNS/x9hnnhrTXWtlFK8wLsz9fBjcLTITd+Ce4nRyRea4mO7eHFaKsvI2A8HqM3lnvb14A4LI21BOPJq5fLPz2+Zrz4ry2cm1gHnJ8ZRyOAna39S1g79OoJX1g5cnHwMHLkZOB6OVDHyjGSvAQZeJJDQC95bc7vUXjHELgp49ZQctSDLvoixsXEsmAci2ebHiL6MJGE+KAAK/XL+syA+7cTh2MpZc8a2bwxfispmzI5u6bwFhmPrfK3Tj6NlH9g35RvMF/scY/ovOihRh4wOkeWWCjPYYFfnZv5W+JGRY287D+vrxGwPFFqdDiCWhu16JwCfSEGNvNeZKz5KLAZn8PfkAn9cV2vb+8Y99HrI+6vpg+WPcWWmB+jSdlkRMnp9ylYm5ypIE/Xgva1/uWxa+AY7QVr0pGl1c4ReAwvX/Ax1t2r+3jammE9erD9MixXrp6F4yKlz0yidinpVlpHcG5WHO30ucAR9vR0jMJ7yhzYO5TYEtdO8IklsnZHKdk4Ml89SvE0C/bNiJwdnd8jdWUdWvOSBX3kbMFjefHYSmTsFDaOcj4YgWfn3jjqbR8F4+R8VxNPqfzDfTDWV72UfI2xlsLctIzMnzOBbjl/erBdRpBax0rxFvVPRN6auO2h+XVb/JgrHnuxj93s+/7ziAzK19eXe+zPnz8/j5r2cHs+erdt2/Lnzx97+gd+FCny2FWur1z7kY8E7fv+z+tRvALflF5Hwq/0KdUdCT+iezGvgfn6+vr5Px7VxSNk+H8vpUe0fxts0xQjbXK/35fr9bps27bs+75cr9fi45yfAOKeXxlguT1f5YBHJpeOV5EgL+Xy0yfAeWShWMfj2Y/H46/8sq5rk73ByLn0CUTy02jsXsUeW9f1r8Lrjm3LewnU5RjA33bt4n64D5Qj4byT2rPc6fWlPfOjlv35OkGU7fk6TXvcHrPnj7bpmfHsEy12XuD/iB/029p/bq8dwcu/qXi1x+3fObxxWvn6+vpr7lv77fv+U6y9WkuvnSOs6+rmd+/YkjmeyklLpc8suX5TspTgvD4yRiL02MLCtrF68Dij8yquC5FLmJJPcA18e74WCuD/KftgbUPbFvZ9z86p+/3+M4dLr72zew4+vjh7etjJ7k1aKNmYfVKqy4yQrZbb85Vl67oWfYPPJEqF/bLv+z/nb8/4Bb1xtdAc82KCsXLkSqnd9Xr9J5ed7Voenx/OAjbIrRMtcH8z7fn9fE1WLvZ5Pu/7/o88/LeXkxeTB2z7kczyNeLc0+2MvCKXAqxjpVz0a7B3TaJ4d974Wx+5u0RnIHenCneoSjqk7p7m+m7BuxsL2TwZa8Znn6Xu/o24670535jFtyK8/mFbyIc7l56cXix6sK6fQERX9sfsYv32m0Fc27hHzD8c/9h6yzOmc/VypObLaCBLaf4xR60VnEcA7GflZZnsOba5PWc5QrdozmNqdJhNNIaZljZngOPtCLvX+hn1o3kCsTcrth+TfM1+EO1wbOH/iJ018Q2zI4Asryjib2CXyFxrmetH2b5GD6a1XS+pa1KPiIwpO7f4LMXuPDGyPHMKZIuOZftoLTNyWG6djX7m8HjqyH3U+HwE7PuIvMxM+1o8e6fiFtdrWL9Q+NhGTwCzHji+0B4vVWrxrl8embnL+nl68HHUYz2sTl6p9bkHj10L6zgT5CWPETKkfHg0HAuebxEvJWAT1of7PgKOqxq7Hp1DW2jVjWN1tn6cQzxYjpGlxh61DLMYO6JF4JY2PbCBLblzFk9n71gPXvLJUSN/ZAJxnRq4Xy5WD69/KxefL9VlbHsUK8NvxLOHpcUmnr/E/7CxlrKvtaGty/9yexvvOOe14TKLlv6PkOuRyJ3eMZCSy/NDiiPmR1QWpkaH2aTsnOMIu86AdT3C9jV+brVpS5saWuXKkZv3IoYXW+wnnH8FkAPjQ0YUPu/Jb2PDtn8Y/ex44n949kzRMtdTPhtN6xivio0aW0Z18/qLto3gzc3UeCVyfTBWbivDaKxcPL4duzS+rVPj8xHweNaOJaI6jsAbZ4StevSvxZN11PhH+sLSM/YIH0bYMje2Rsgwwoe12LFs7oHOfKzGV7ZeTdsRWF1qOFLOFlptaf05k9K8YDngo8gxWx4D82CJ5tdtWfgxJTwKdL/ffwr+to/73eiVSyMf5bter/8UfiUVw8e9czmZ7GNP9jHGkbzT402ezfAIcerRReiHR58XetUGYx85tj5I+RLMeHzyNxC1Ceb6O8Xjkdh43J6v27H2xWPgi8kb9pHPx/NVMblH6jd6RY/1y/Z8fccMUnOshKfDDGCL3KsjGGu7Xrw8+OmwTUbb+4ywjqm1h/dJR9KayzF/R+7ZUlyv15/XP/CrIOy/eKVFqm6tjuJfYMNUHONYad88E8j4eDyWb3qt78O8bion/+K0x3mspYonkYL3W6+aB7yntNfiLfA1Oxixj7N9jNqv5vrw5j6w8kSxnzHkrkO35yuYLuZ10+CaeR2XV3/JHD8TR82L6/M1SbkYODvQ4R38+htJ7XFGAb/mrkdHwHmJ846Xe7bCq369XMakcmeuz1mkZClR0vEVzPxceQYRf+Mzsdy+3J5DWTr8W8uQmyTX6/WfmySX5ztFUfA3JiEmKxtzf77TeERA8NgoD/Neajb69vwQ0iaskiNw3rZbChuxs1DSr5Wvr6+/gnl/vq/Vs8n39/fPhLnf73/Z9Ovr6594wPsVt+dvNWAsxBXizMbb9tx8597P+EnwJnVWHHwif/78+Yk9JH3vXZp//vxZ/vz58/MBHnKUVxdzyIv3VKzvzxuM3pwbTW38ePlyNLjIqBnr+/v7x5at1IzXS63dz4DdK3wSKX0xh2d+cGDBurplvriQAjluP/DdtLw/gx35X5aD86GdjykfiDT3+/2vi0fsoezebDE3Uo6MZ/GetMzHo3JOD9DL5p+ZsC03+kBsNdfiuQ/hLbA19OD57e1Va/mi3+PBdWCKI/JJSzwuz5wIPaCL/cxhe14T2MJshd8QAMi9dk2cTc4/EWbPC8R2xIZnBWtt6jMTMZ8RuS3CrHkAkJc4H9m8g3O2MGvgpiPm9v35hXh7/Mxwnj5inWmlZ+/T07YGL6ZhU6yPvfML7Ut7hm7soyW18HsO8fhLzaMv/AhNTbtWSjK2PMLD9WvbRig9wmRhm0ZAXe99hI+G8VvhcViWlD6IPeHDNuN3LvJc9ez9MPPEnkMbG+O2nijDfmH7IbbZxjh2Fjv35DuOvRlANs9WLTLX6Fp6x2svrbar0WEmre+pnSX75rx3eWRhfb33PbM/R+jHfab6Qt5piU+0sbK39JXCkx9jpHSyQL7U+3FFnFROY/8zbPuRcZHDi5kIKR1KtOaxT4BtynmQ9zV8HHXxf+TJVBvb/yx6xuC93VGwbUoyR+uxHq+K+eiYqBepy9TYrZaSzVLXADlYz+XgNa7XVtx+BjkblnwRoVf/CLl+R4zPMddji1Z6xu6Jn33fs/ERpUcGptePPUCHVO5gHVN1PFD/FbqxzLV+tuvcmYBcLXqNitUIpZiK8Ip9U47mJ0nwzbL9+fQH3/H27iJ58J3GreHbjLXwKxdSY/GdtlQdy38x/Pc3OqJta5h1NxZ3kXvv7PVwvV5/bB+9y4j6lxe+2uFdwNMH+/PbuPbbTWzvO73ubMt8w5nnOZ4AqvmG2qfjPTUFvByKb2+n/HE0LbnyCPjJnEgeGc2sPG05apyR3O/3w7/5WAL50JtzC51H4eO2Xun/Htw3+ve+od8Lvt2FbxYvT9lu9FoqfhQ/Vdbnt5HZFuhrFFinbF5ZG57yisiFV3KJf+Enxe1eIcX38+lgzJ3ZvOJbi5G4+nTYF9i75OIB59Eu0uas8Dw5OresgWtQ2LVUD3rwGvmO/ngFvN9J5QvYcq3Yr1r7H5XzlgFjcbzNmBdRG56Z0pzs5TfYqAXsSc4C5tL2fCvKUdjPeDzYTqk6HjY/zI5lhuWsjfGvr68f2ffnWzvOgN3b1upV47tRROZY6nNbtLVx9DLsXZMofGfLO166e8jtS3VHELn73nPHbaY+kCvab8o3rdSOX0vJNznb9vjst5OyS8nefN6rkzo+O05+Gzl7lWzs+fVoOEZqsPE1mlK/KdvmKM0ZZqaPauSw9LQdRY8Mre1KRPtrHbtH5xZy4+F4T2F4LHtuNLXjROdhtN4nUvJv7twjcH4UPT5slbFnzN9OjV1a7Mg+szluJL1jtOjWy4yxSnlgNtFxW2XMrZk9RPxfOu9xFn+02ipilxmMGHdWrEQZNf4Z4qdl7B4fbs8nEXvpkYEZ5ctaIvK3yvUqnR4D9gWvlD1Fr07cfjawX0RO1LXU9HEETU+S8LfF7R2jx+NR/OaPvXt0xB0jK6dHz7dkuM1ofUrfRJnNzHHtHe2S7exd6e/nbwgshR+7G4mN33cl9S0yjuXd+TYvsHEBX8z4VsS980cnz8T9+RQe7Jyyr8f39/dPu9Sd+COwTwGeBeSAV8rE82L0N+W475q4OQtnlD8qx/Z80mO0T4/kvz1zGui4Pd9bvDvvKk5RO+cidvTqpNYXry7w6i9m/7G8OKeejTt9CxrxUAvP999mW7v/Ef+Rm4ejKF0nvAo8lQdYzkjs38273Ftomacl9sonwkboAVr7wdOBl8vlxy84ZsuMuWzXFs//l+dvT5w1nj08PUqwrRejb9S/0Xo5ZvhZiFb42qMmv/Z81nWjN+qk8g73n6pzdiLXdVinvLwU9ceIvJSCc+2W+LzujERsx5/bzrShBT7HmxGK65m9a1KC3xmbAu8U8+rYdyHWvl+tlf35LmuMi3fe8vmeu20zdUK/0TtrLMsIasePEn0Xa8S2R74Dke90puQ5AzmbeccewTvpOO/N70fi9zR62ff9r35T8r8DkRxa8gHHe66fWWDspSHHcIyNZHu+w7wUGyXberDMNaVmjAg9/Ubm9kx61lhu+wrZQWTuWo5cmx4BPyOXjsijrX5pnU+zysh8uj/3mijvSmQdZxum4BgZYV+PiKwpIjp4cAyL/wG7RP3cYkf2WYvPo+TG4Hmek4dzS4lX5oxUzrLz19PR4vXTQ9R+VsZose1Gwdcttn8et3Ydtn3Wtu+htOa3zAt7zoL+eqmZiylYrxEy1TJifDunj6ZnbNa/lh6bMT0yWDgmo/O4pm4Kb37CNnysFpubjoTH9ewDHa3eXJfPR/YwqbFGMCJfHekLyBux28PkIbRBH7NsyvaI2CV/luDFPjJxEGgrfWjlGeQVbObHAiFPVDfGLjYotf3kqLUZyzGCGTpxIipNhog+HJ/RfnvARnC0XUZSspkFsVyKs9JcsXNipB+475H9HgHLnrIdiNSzi/lR9qhdCC0s90iiMRGxrYVl5nb784cA+Viqbi+c31qYJVeUUt7IMStmamnZw7DfWnSv5Wg/t/plq7hJ06LTK2KGx+QS1fMsRG3NOuawe4JI3zX02Dmqg6U3H/9Wav3bMk9nxZHFjrElPmTJ5TIb+6l6j2dMzdQHe5UtcQ1s9WBdbf2cHmyzXliG3JiPjrnMY4yS2+LZvEVWG09R24yEx0zFU8SW3CYnP8boZUTOPiJWcvD4rdgYOpqo/RBfXLdH/8iYEXpksLAvotcUI8YFqbnbMgb6sf2NsHkEOzdRWBasczmZ2Ce5eo/BvmBY7lxuzGHtMZuWsXiOc5mFHac0Vv7sk1Zn2USMEk0Es4F867r+NblrsDpxcqjtK0Vtf2zrEaCvmsBPUbsg2BgqYScbEuIsMF5El6OBDSJzlu1cqh+ZK9YPpT5rgQwzfTsSzjURW8BuJf3s/Ii06aEmTlKwrK+gxU41m42aulHY7q3MkCtKb55k2V9NJP8xvCeYbXebD6Iynp0W/7e06YXjHOWd/MCxGsnvHGsRbHyibIWL1hy9uaVWB8C2emda7e7R4ouWeWpjZwYsly1b5qaIh437VNsaG+TAfNoyH4DhfEoWb906Wg9QGg+wbDWwr2fFE/DiKjqmt/+uzdm9pOIJetTIUBNPURvl4LFaOTJWPEatOyNs0UppXM5bNqbY/rUslWtTih4ZPLi/knwjx7VwTHi2T8HzeH1+xhGd2yOx8rMeUV2AXf+8tjg/mpp4yHF0ruqRGXMedvfsPQK2SUTWrHd3+nY+Ar8WVnq28rXYScwlNSkAt+W6ts9WuzFWNrZpqfTCAdWrh7VZlBZ9PPsgUY6G4/tMRG0NH0flj+prk9Fo0G9Jjley013ymlwQ9R3w4n2dcIOwVi6PEX300DI+27fUjn0Q9XcOnkc9cD8lHUbC47bag+3/alrz5Uy727V1o4vMmrxzVqBLjf1GzZsaeEybk88OyxuNlxb9duepX1ui2LhvoWXcx4viazSwXzSX5WjN8y12HJ1TsU9jWbhgL1Wjl4Vj1bMRzkfBPCrNpVr57fy0bXhtSZ2v0SMCxopQUxew30fEUw72ifWRtSVAfKZszv2MlB/jWll5rGhcpRg9L3LwOK20xEq0XgT2RQ+1ttifH3yPwLOfzTupNYntX0trO0uPDCl4HuTiZfS4D2cO2lLKTal6bCecHwHyUio31ax3OWw82v6Wgq9aYJv12mtUroiC8VpsYmOFywhfMoidiJxZy40wrlV2RJ+jsE7wnJSC21lq+olg+6opvYzqi21Sg7VlDdYWXvH818Lo/kYQlSlaD9TUZ1uPpic2jqJVvhobA2sPr/TQOocZ7qNGt5G0jM82LLUbZW8wqq9X2H7UmCP6GAV0isoyygYpON5s/7PHPoJWHbjdkfC4XM5MbUyDHv08O9Uywset448Y+9Ww7rW+txxpx9acALzYS5WR5PqGTDXY/mxpsU1KPsbazzs3Em+cFDV1QW88RfHGyNkSlOSzfaT6KWH7SJXR2P49+3h61zJCh5IvPGrqluDxe6i1RU3dEjx2bez26M9j9tAjQ45Iv6XztVj7p46nbFaqw+dTdUpYWXKlpf8ctn8AmWaOlyMybrSvUbT6wPrP2vxoPRh3RNwZ9O6cRbBK4q6ed8dvC97NGYm9a5q782ll47vdubt8tp9WWz4aAo/HTcF3YlNYf7XSG089Mlg/oCAmc/rXEImJo4GuOR1Rp8YvkX4B279mjCgcoxF5joLzRItcrTptmTzbOv8eFX7k8bzCMuX6mQnGr5mr1pY52P69OqKv3n4exoclHUYQXSu5jo0XGzNHyB2hRo5ZdrfzPGVj9gPbeURMWdhvo4jEkAfb/Wiwv5rh99G02vfRuTd7ULy0xuII+6Z0gGxeXsKe1mtXAu1tny2lpx+bP3psyfao9eWWmad74tvLLHutvDyeV2Afb9wR2PEhP3SqwfqwR3a7Xpf6SI2N47V+eST8nYsPS01dhtu1yF2C7WLzLNvdk5tls20Z64+IDxnb3vYF/84iNS9wfATcvwfby/4ff0f98cjo1ENJhwicr0v97GYvUxtXFmuT2n5b5rjVt+S3Ei0yRCjJOXpcO56Neev3VFt7zuLllpq54LW3fUVipwVro+VpJ9impHsNdowU2zMXc/0181TpSBlzYPxW37LOno62oA7Kw+TtESRnWu1Am7PpXp3XveyBR+1ZaQQj2vLfLbDRU/14dWzCSLVlvMm1VCwGgNtF4LFyeD5LlRp5Qa29PKwNW4H/WuUoYeVssddocrbHPMzFFOavLbl+LWyXGbA8Z7E7ZMrZtkSNjVNsAzYONl9H+7OxYkuPbXppsW3L4t9Di81L1M7dHnjeR8eya6wtr4yZEoh3D/Zlqk4tdr2J2CZn29FlVMz29Mn6vgqMP8rvIxmRD9g/RzMqJ+d04H0j1+MSmXuAc1xqf/XqUjvPevd4W2Kewlala5RaeR/Ohy5r5TVZLzZ/c6ll64x/K0uNHTw74v8tcnEs2P4itrFtEdPoZ6XfisJxb8yRRG2CemAPfsmEsfbicXNjP5w4KMk7A9bZlhGycH8PJ96OKj14/dj+jyq1ePZeG3Kv7SNVUrEUnU8pUmvWCFLz0M6NXliH3NyCPLCZlS/qO8/36Dc3PrD2iLQZSSqWlgN9kWIr7JOOokaHmjhKxU6u5Pqrodl6CFLrGBwvCbgHN8BeaUmqPE40QbI+rWPbQOAS7ae2fouMuSCM2otB28hkyWHtd2ZYzl69R5CShRe9Upzk5qjtN0VN3RZaZJrF+rwAK9m1xBn04bnXKoedvz19jQJytOS12SAPRzeONXCOH903U5NfUticc0ZfMd76uZm9w1KxhkdA3y2+zOX13jICtltrHHEfLe1HMNImo+D52RI7zGi/R+mJfUuNDmdcz14Jx1IrPE9z2FzaY/v9+YHTK/FiaTkwV9nxe2zJ/WBd6bFvq6+tHJtzE9ArvBZGxolgdSj5FXZ80P6nJUezP6wNSuzOkzxHg7nZ4v8S3B9g++zmy5Q4BpuwbfgY2uH/3MbK3Wvfkg6R4unD52w9xjtWw4j8sCdipFRSOtXCY88APrDyc2nB9hv1Aezd0pbZnTUHpQRkfyUpn/TA86E3Nu2caPFRDxg/56fNfGmhRmfOTdYHLf1FCHsXwlknQLCcUUrk+kZpTW5szNo+WJ4e/R602LYww/EpWOdev46C4+DM8AJwJrt5snjHctjF7Uy+sHP8N/BqfVoXMQ/k9p4cOAqOlVfLAmzemCUXdJ81BvyMuOkBNtmCG+izgL2MzZUoo5llG+jhFT5n6/ViY6inT/bDjHgvAT3OBnw2gpmxnQJ+HaED596anNXS5jfBea53j8DztAT7q2fMM8H6z44puz71+o6xeiydc5SvRaMyttrQ2qQVz75RbC7qsd1j4t7gKHgvUGtLj1a/nA2eW9F5cTZGx6a3D8X/Z9gIPlgCa1YPe+ZmUI0NbT+1dkHbEXnpMcH/R2N9UquP548RIMfV+ncUOX0gG+JohHyY46Pi0iM7wzkIvDILO07LWOyQ2vbcdpbhzwrrfgasH8/uj7PYrjX2c8zocxRnlauVV8X7jLk2qp9RjNRN/MeM3DCyr1fANnl3XWZi1/hR8/PV+7hXjXskr7Dv6PnUIvvROp+NkXkN8zTKqHHPxuxrL/bZrDEezjit86S2XU++r41BD6t3Da3tPoEev1p+g41H2EH0MSoeo/AcqB3btotix4yO9ylY+0RpaVPDK/3kxUqrnc6CKzErhDs0KEeCu8M1d5zsglrT9mGcfLS+Z+FMerM/3/nbH0cDu9XGfw7kgpF9juSscrWAmD9Sp+1ET3yI9+FV+4Ozgxwsu/wL4sXba47iVfbfB7yC6B14lZ5H+9NjP8FraV4Frste5YdXjXsE+IbpDI5ep48ahzlSP2al3zmpBT5vaftJjPj28W+w8az8IOJsz2vlo0F+Q77Jgf1Za07caP/cO+9+MzV7wVfvnWZj43J9Pi3zzjF0efz3gZwQp+V2uy3rui5fX1/2lBC/kvv9rngX4o253+/Lsiyaxwlut9vy/f1tD781t9tt2bZt2fddfhdCCCGEEEKIN0M3SYQQQgghhOhEN7iFEEIIIYQQ4j3RTRIhhBBCCCGEEEIIIYQQQnwk/2cPCCGEEEIIIYQQQgghhBBCfAK6SSKEEEIIIYQQQgghhBBCiI9EN0mEEEIIIYQQQgghhBBCCPGR6CaJEEIIIYQQQgghhBBCCCE+Et0kEUIIIYQQQgghhBBCCCHER6KbJEIIIYQQQgghhBBCCCGE+Eh0k0QIIYQQQgghhBBCCCGEEB+JbpIIIYQQQgghhBBCCCGEEOIj0U0SIYQQQgghhBBCCCGEEEJ8JP8PZBK4w+dSTjEAAAAASUVORK5CYII=;" vertex="1" parent="1">
          <mxGeometry x="-2232.996748046875" y="290.00216796875" width="1609" height="75" as="geometry" />
        </mxCell>
      </root>
    </mxGraphModel>
  </diagram>
</mxfile>
